<svg width="700" height="340" viewBox="0 0 700 340" fill="none" xmlns="http://www.w3.org/2000/svg">
<g opacity="0.2">
<path opacity="0.2" d="M225.573 42.9873H187.185L179.142 51.219H202.357L191.755 61.8288H168.539L114.065 116.707H98.5271L73.4835 141.768H89.0215L72.3867 158.414V196.463H187.185V215.853H202.723V226.463H187.185V234.695H225.573V226.463H241.111V215.853H225.573V196.463H244.402V158.414H225.573V141.768H210.035V116.707H225.573V61.8288H248.789V51.219H225.573V42.9873ZM187.185 116.524H171.647V141.585H187.185V158.231H120.28L137.098 141.585H121.56L146.969 116.524H162.507L187.185 92.0117V116.524Z" fill="#FE0C13"/>
<path opacity="0.2" d="M442.74 141.768H427.202V116.707H442.74V62.561L442.009 61.8293H465.225L454.988 51.2195H431.772L423.912 42.9878H289.554L281.694 51.2195H304.909L294.672 61.8293H271.457L270.726 62.561V116.707H255.188V141.768H270.726V216.037H286.264L296.866 226.646H281.328L289.554 234.878H423.912L432.138 226.646H447.676L458.278 216.037H442.74V141.768ZM308.931 171.585V141.768H293.393V116.707H308.931V81.4024H379.857L352.072 116.707H336.534L316.791 141.768H332.329L308.931 171.585ZM404.718 196.463H335.071L377.846 141.585H362.308L381.868 116.524H389.18V141.585H404.718V196.463ZM404.718 116.524H397.406L404.718 107.012V116.524Z" fill="#FE0C13"/>
<path opacity="0.2" d="M616.581 116.524V61.6462H639.797V51.0364H616.581V42.8047H578.193L570.15 51.0364H593.365L582.763 61.6462H559.547L505.073 116.524H489.535L464.491 141.585H480.029L463.395 158.232V196.28H578.193V215.671H593.731V226.28H578.193V234.512H616.581V226.28H632.119V215.671H616.581V196.28H635.409V158.414H616.581V141.768H601.043V116.707H616.581V116.524ZM578.193 116.524H562.655V141.585H578.193V158.232H511.288L528.106 141.585H512.568L537.977 116.524H553.515L578.193 92.012V116.524Z" fill="#FE0C13"/>
</g>
<path d="M216.8 42.9873H178.412L170.368 51.219H193.584L182.982 61.8288H159.766L105.292 116.707H89.7537L64.7101 141.768H80.2481L63.6133 158.414V196.463H178.412V215.853H193.95V226.463H178.412V234.695H216.8V226.463H232.338V215.853H216.8V196.463H235.628V158.414H216.8V141.768H201.262V116.707H216.8V61.8288H240.015V51.219H216.8V42.9873ZM178.412 116.524H162.874V141.585H178.412V158.231H111.507L128.324 141.585H112.786L138.196 116.524H153.734L178.412 92.0117V116.524Z" fill="#FE0C13"/>
<path d="M433.967 141.768H418.429V116.707H433.967V62.561L433.236 61.8293H456.451L446.214 51.2195H422.999L415.138 42.9878H280.78L272.92 51.2195H296.136L285.899 61.8293H262.683L261.952 62.561V116.707H246.414V141.768H261.952V216.037H277.49L288.092 226.646H272.554L280.78 234.878H415.138L423.364 226.646H438.902L449.505 216.037H433.967V141.768ZM300.34 171.585V141.768H284.802V116.707H300.34V81.4024H371.266L343.481 116.707H327.943L308.2 141.768H323.738L300.34 171.585ZM395.944 196.463H326.298L369.073 141.585H353.535L373.094 116.524H380.406V141.585H395.944V196.463ZM395.944 116.524H388.632L395.944 107.012V116.524Z" fill="#FE0C13"/>
<path d="M607.99 116.524V61.6462H631.206V51.0364H607.99V42.8047H569.602L561.559 51.0364H584.775L574.172 61.6462H550.774L496.3 116.524H480.762L455.718 141.585H471.256L454.621 158.232V196.28H569.42V215.671H584.958V226.28H569.42V234.512H607.808V226.28H623.346V215.671H607.808V196.28H626.636V158.414H607.808V141.768H592.27V116.707H607.99V116.524ZM569.602 116.524H554.064V141.585H569.602V158.232H502.698L519.515 141.585H503.977L529.386 116.524H544.924L569.602 92.012V116.524Z" fill="#FE0C13"/>
<g opacity="0.2">
<path opacity="0.2" d="M185.905 42.9873H147.517L139.474 51.219H162.69L152.087 61.8288H128.872L74.3972 116.707H58.8592L33.8155 141.768H49.3535L32.7188 158.414V196.463H147.517V215.853H163.055V226.463H147.517V234.695H185.905V226.463H201.443V215.853H185.905V196.463H204.734V158.414H185.905V141.768H170.55V116.707H186.088V61.8288H209.304V51.219H186.088V42.9873H185.905ZM147.517 116.524H132.162V141.585H147.7V158.231H80.7952L97.6127 141.585H82.0747L107.484 116.524H123.022L147.7 92.0117V116.524H147.517Z" fill="#44A83F"/>
<path opacity="0.2" d="M403.072 141.768H387.534V116.707H403.072V62.561L402.341 61.8293H425.557L415.32 51.2195H392.104L384.244 42.9878H249.886L242.026 51.2195H265.241L255.004 61.8293H231.789L231.058 62.561V116.707H215.52V141.768H231.058V216.037H246.596L257.198 226.646H241.66L249.886 234.878H384.244L392.47 226.646H408.008L418.61 216.037H403.072V141.768ZM269.263 171.585V141.768H253.725V116.707H269.263V81.4024H340.189L312.404 116.707H296.866L277.123 141.768H292.661L269.263 171.585ZM365.05 196.463H295.403L338.178 141.585H322.64L342.2 116.524H349.512V141.585H365.05V196.463ZM365.05 116.524H357.738L365.05 107.012V116.524Z" fill="#44A83F"/>
<path opacity="0.2" d="M576.913 116.524V61.6462H600.129V51.0364H576.913V42.8047H538.525L530.482 51.0364H553.697L543.095 61.6462H519.879L465.405 116.524H449.867L424.823 141.585H440.361L423.727 158.232V196.28H538.525V215.671H554.063V226.28H538.525V234.512H576.913V226.28H592.451V215.671H576.913V196.28H595.741V158.414H576.913V141.768H561.375V116.707H576.913V116.524ZM538.525 116.524H522.987V141.585H538.525V158.232H471.62L488.438 141.585H472.9L498.309 116.524H513.847L538.525 92.012V116.524Z" fill="#44A83F"/>
</g>
<path d="M197.604 42.9873H159.216L151.172 51.219H174.205L163.603 61.8288H140.387L85.9128 116.707H70.3748L45.3312 141.768H60.8692L44.2344 158.414V196.463H159.033V215.853H174.571V226.463H159.033V234.695H197.421V226.463H212.959V215.853H197.421V196.463H216.249V158.414H197.421V141.768H181.883V116.707H197.421V61.8288H220.636V51.219H197.421V42.9873H197.604ZM159.216 116.524H143.678V141.585H159.216V158.231H92.3108L109.128 141.585H93.7732L119.182 116.524H134.72L159.398 92.0117V116.524H159.216Z" fill="#44A83F"/>
<path d="M414.772 141.768H399.234V116.707H414.772V62.561L414.04 61.8293H437.256L427.019 51.2195H403.804L395.943 42.9878H261.585L253.725 51.2195H276.94L266.704 61.8293H243.488L242.757 62.561V116.707H227.219V141.768H242.757V216.037H258.295L268.897 226.646H253.359L261.585 234.878H395.943L404.169 226.646H419.707L430.31 216.037H414.772V141.768ZM280.962 171.585V141.768H265.424V116.707H280.962V81.4024H351.888L324.103 116.707H308.565L288.822 141.768H304.36L280.962 171.585ZM376.566 196.463H306.92L349.695 141.585H334.157L353.716 116.524H361.028V141.585H376.566V196.463ZM376.566 116.524H369.254L376.566 107.012V116.524Z" fill="#44A83F"/>
<path d="M588.612 116.524V61.6462H611.828V51.0364H588.612V42.8047H550.224L542.181 51.0364H565.397L554.794 61.6462H531.579L477.104 116.524H461.566L436.523 141.585H452.061L435.426 158.232V196.28H550.224V215.671H565.762V226.28H550.224V234.512H588.612V226.28H604.15V215.671H588.612V196.28H607.441V158.414H588.612V141.768H573.074V116.707H588.612V116.524ZM550.224 116.524H534.686V141.585H550.224V158.232H483.319L500.137 141.585H484.599L510.008 116.524H525.546L550.224 92.012V116.524Z" fill="#44A83F"/>
<path d="M207.292 42.9873H168.904L160.861 51.219H184.076L173.474 61.8288H150.258L95.7839 116.707H80.2459L55.2023 141.768H70.7403L54.1055 158.414V196.463H168.904V215.853H184.442V226.463H168.904V234.695H207.292V226.463H222.83V215.853H207.292V196.463H226.12V158.414H207.292V141.768H191.754V116.707H207.292V61.8288H230.507V51.219H207.292V42.9873ZM168.904 116.524H153.366V141.585H168.904V158.231H101.999L118.817 141.585H103.279L128.688 116.524H144.226L168.904 92.0117V116.524Z" fill="white"/>
<path d="M424.457 141.768H408.919V116.707H424.457V62.561L423.726 61.8293H446.942L436.705 51.2195H413.489L405.629 42.9878H271.088L263.228 51.2195H286.443L276.207 61.8293H252.808L252.077 62.561V116.707H236.539V141.768H252.077V216.037H267.615L278.217 226.646H262.679L270.905 234.878H405.263L413.489 226.646H429.027L439.63 216.037H424.092V141.768H424.457ZM290.648 171.585V141.768H275.11V116.707H290.648V81.4024H361.574L333.789 116.707H318.251L298.508 141.768H314.046L290.648 171.585ZM386.252 196.463H316.605L359.381 141.585H343.843L363.402 116.524H370.714V141.585H386.252V196.463ZM386.252 116.524H378.94L386.252 107.012V116.524Z" fill="white"/>
<path d="M598.3 116.524V61.6462H621.515V51.0364H598.3V42.8047H559.912L551.868 51.0364H575.084L564.482 61.6462H541.266L486.792 116.524H471.254L446.21 141.585H461.748L445.113 158.232V196.28H559.912V215.671H575.45V226.28H559.912V234.512H598.3V226.28H613.838V215.671H598.3V196.28H617.128V158.414H598.3V141.768H582.762V116.707H598.3V116.524ZM559.912 116.524H544.374V141.585H559.912V158.232H493.007L509.824 141.585H494.286L519.696 116.524H535.234L559.912 92.012V116.524Z" fill="white"/>
<path opacity="0.2" d="M647.661 84.1465H590.262V94.2075H647.661V84.1465Z" fill="#FE0C13"/>
<path d="M640.165 84.1465H582.766V94.2075H640.165V84.1465Z" fill="#FE0C13"/>
<path opacity="0.2" d="M146.605 72.0732H90.668V81.0367H146.605V72.0732Z" fill="#44A83F"/>
<path d="M151.175 72.0732H95.2383V81.0367H151.175V72.0732Z" fill="#44A83F"/>
<path opacity="0.2" d="M69.2806 173.963H13.3438V182.927H69.2806V173.963Z" fill="#44A83F"/>
<path d="M73.8508 173.963H17.9141V182.927H73.8508V173.963Z" fill="#44A83F"/>
<path opacity="0.2" d="M500.689 24.6953H491.914V33.4758H500.689V24.6953Z" fill="#FE0C13"/>
<path d="M497.399 24.6953H488.625V33.4758H497.399V24.6953Z" fill="#FE0C13"/>
<path opacity="0.2" d="M357.196 0H348.422V8.78049H357.196V0Z" fill="#FE0C13"/>
<path d="M353.903 0H345.129V8.78049H353.903V0Z" fill="#FE0C13"/>
<path opacity="0.2" d="M699.759 23.9634H690.984V32.7439H699.759V23.9634Z" fill="#FE0C13"/>
<path d="M696.466 23.9634H687.691V32.7439H696.466V23.9634Z" fill="#FE0C13"/>
<path opacity="0.2" d="M668.13 122.744H659.355V131.525H668.13V122.744Z" fill="#FE0C13"/>
<path d="M665.024 122.744H656.25V131.525H665.024V122.744Z" fill="#FE0C13"/>
<path opacity="0.2" d="M663.931 228.11H655.156V236.89H663.931V228.11Z" fill="#FE0C13"/>
<path d="M660.638 228.11H651.863V236.89H660.638V228.11Z" fill="#FE0C13"/>
<path opacity="0.2" d="M173.845 5.30469H165.07V14.0852H173.845V5.30469Z" fill="#44A83F"/>
<path d="M177.685 5.30469H168.91V14.0852H177.685V5.30469Z" fill="#44A83F"/>
<path opacity="0.2" d="M100.356 228.659H91.582V237.439H100.356V228.659Z" fill="#44A83F"/>
<path d="M104.196 228.659H95.4219V237.439H104.196V228.659Z" fill="#44A83F"/>
<path opacity="0.2" d="M497.579 261.769H488.805V270.549H497.579V261.769Z" fill="#FE0C13"/>
<path d="M494.29 261.769H485.516V270.549H494.29V261.769Z" fill="#FE0C13"/>
<path opacity="0.2" d="M214.243 261.769H205.469V270.549H214.243V261.769Z" fill="#44A83F"/>
<path d="M218.083 261.769H209.309V270.549H218.083V261.769Z" fill="#44A83F"/>
<path opacity="0.2" d="M349.146 277.317H340.371V286.098H349.146V277.317Z" fill="#44A83F"/>
<path d="M352.985 277.317H344.211V286.098H352.985V277.317Z" fill="#44A83F"/>
<path opacity="0.2" d="M8.77439 267.439H0V276.22H8.77439V267.439Z" fill="#44A83F"/>
<path d="M12.6142 267.439H3.83984V276.22H12.6142V267.439Z" fill="#44A83F"/>
<path opacity="0.2" d="M40.0322 81.2192H31.2578V89.9998H40.0322V81.2192Z" fill="#44A83F"/>
<path d="M43.872 81.2192H35.0977V89.9998H43.872V81.2192Z" fill="#44A83F"/>
<g opacity="0.2">
<path opacity="0.2" d="M236.363 339.146V292.683H275.665V302.012H245.503V311.342H273.289V320.671H245.503V329.817H275.665V339.146H236.363Z" fill="#FE0C13"/>
<path opacity="0.2" d="M314.055 339.146V334.573L309.485 329.817L304.915 325.244H291.022V339.146H281.699V292.683H318.808L323.378 297.439V320.671L318.808 325.244L323.378 329.817V339.146H314.055ZM314.055 315.915V301.829H290.839V315.915H314.055Z" fill="#FE0C13"/>
<path opacity="0.2" d="M362.313 339.146V334.573L357.743 329.817L353.173 325.244H339.28V339.146H329.957V292.683H367.065L371.635 297.439V320.671L367.065 325.244L371.635 329.817V339.146H362.313ZM362.313 315.915V301.829H339.097V315.915H362.313Z" fill="#FE0C13"/>
<path opacity="0.2" d="M382.785 339.146L378.215 334.573V297.439L382.785 292.683H415.323L419.893 297.439V334.573L415.323 339.146H382.785ZM410.57 329.817V302.012H387.355V329.817H410.57Z" fill="#FE0C13"/>
<path opacity="0.2" d="M458.832 339.146V334.573L454.262 329.817L449.692 325.244H435.799V339.146H426.477V292.683H463.585L468.155 297.439V320.671L463.585 325.244L468.155 329.817V339.146H458.832ZM458.832 315.915V301.829H435.617V315.915H458.832Z" fill="#FE0C13"/>
</g>
<path d="M218.082 339.146V292.683H257.384V302.012H227.222V311.342H255.008V320.671H227.222V329.817H257.384V339.146H218.082Z" fill="#44A83F"/>
<path d="M295.774 339.146V334.573L291.204 329.817L286.634 325.244H272.741V339.146H263.418V292.683H300.526L305.096 297.439V320.671L300.526 325.244L305.096 329.817V339.146H295.774ZM295.774 315.915V301.829H272.558V315.915H295.774Z" fill="#44A83F"/>
<path d="M344.031 339.146V334.573L339.461 329.817L334.891 325.244H320.999V339.146H311.676V292.683H348.784L353.354 297.439V320.671L348.784 325.244L353.354 329.817V339.146H344.031ZM344.031 315.915V301.829H320.816V315.915H344.031Z" fill="#44A83F"/>
<path d="M364.504 339.146L359.934 334.573V297.439L364.504 292.683H397.042L401.612 297.439V334.573L397.042 339.146H364.504ZM392.472 329.817V302.012H369.256V329.817H392.472Z" fill="#44A83F"/>
<path d="M440.734 339.146V334.573L436.164 329.817L431.594 325.244H417.701V339.146H408.195V292.683H445.304L449.874 297.439V320.671L445.304 325.244L449.874 329.817V339.146H440.734ZM440.734 315.915V301.829H417.518V315.915H440.734Z" fill="#44A83F"/>
<path d="M232.523 339.146V292.683H271.825V302.012H241.846V311.342H269.632V320.671H241.846V329.817H272.008V339.146H232.523Z" fill="#FE0C13"/>
<path d="M310.215 339.146V334.573L305.645 329.817L301.075 325.244H287.182V339.146H277.859V292.683H314.968L319.538 297.439V320.671L314.968 325.244L319.538 329.817V339.146H310.215ZM310.215 315.915V301.829H286.999V315.915H310.215Z" fill="#FE0C13"/>
<path d="M358.473 339.146V334.573L353.903 329.817L349.333 325.244H335.44V339.146H326.117V292.683H363.226L367.796 297.439V320.671L363.226 325.244L367.796 329.817V339.146H358.473ZM358.473 315.915V301.829H335.257V315.915H358.473Z" fill="#FE0C13"/>
<path d="M378.945 339.146L374.375 334.573V297.439L378.945 292.683H411.483L416.053 297.439V334.573L411.483 339.146H378.945ZM406.731 329.817V302.012H383.515V329.817H406.731Z" fill="#FE0C13"/>
<path d="M454.992 339.146V334.573L450.422 329.817L445.852 325.244H431.96V339.146H422.637V292.683H459.745L464.315 297.439V320.671L459.745 325.244L464.315 329.817V339.146H454.992ZM454.992 315.915V301.829H431.96V315.915H454.992Z" fill="#FE0C13"/>
<path d="M222.469 339.146V292.683H261.771V302.012H231.609V311.342H259.394V320.671H231.609V329.817H261.771V339.146H222.469Z" fill="#44A83F"/>
<path d="M300.16 339.146V334.573L295.59 329.817L291.02 325.244H277.127V339.146H267.805V292.683H304.913L309.483 297.439V320.671L304.913 325.244L309.483 329.817V339.146H300.16ZM300.16 315.915V301.829H276.945V315.915H300.16Z" fill="#44A83F"/>
<path d="M348.418 339.146V334.573L343.848 329.817L339.278 325.244H325.385V339.146H316.062V292.683H353.171L357.741 297.439V320.671L353.171 325.244L357.741 329.817V339.146H348.418ZM348.418 315.915V301.829H325.202V315.915H348.418Z" fill="#44A83F"/>
<path d="M368.89 339.146L364.32 334.573V297.439L368.89 292.683H401.429L405.999 297.439V334.573L401.429 339.146H368.89ZM396.676 329.817V302.012H373.46V329.817H396.676Z" fill="#44A83F"/>
<path d="M444.938 339.146V334.573L440.368 329.817L435.798 325.244H421.905V339.146H412.582V292.683H449.69L454.26 297.439V320.671L449.69 325.244L454.26 329.817V339.146H444.938ZM444.938 315.915V301.829H421.722V315.915H444.938Z" fill="#44A83F"/>
<path d="M228.684 339.146V292.683H267.986V302.012H237.824V311.342H265.609V320.671H237.824V329.817H267.986V339.146H228.684Z" fill="white"/>
<path d="M306.375 339.146V334.573L301.805 329.817L297.235 325.244H283.342V339.146H274.02V292.683H311.128L315.698 297.439V320.671L311.128 325.244L315.698 329.817V339.146H306.375ZM306.375 315.915V301.829H283.16V315.915H306.375Z" fill="white"/>
<path d="M354.633 339.146V334.573L350.063 329.817L345.493 325.244H331.6V339.146H322.277V292.683H359.386L363.956 297.439V320.671L359.386 325.244L363.956 329.817V339.146H354.633ZM354.633 315.915V301.829H331.417V315.915H354.633Z" fill="white"/>
<path d="M375.105 339.146L370.535 334.573V297.439L375.105 292.683H407.644L412.214 297.439V334.573L407.644 339.146H375.105ZM402.891 329.817V302.012H379.675V329.817H402.891Z" fill="white"/>
<path d="M451.153 339.146V334.573L446.583 329.817L442.013 325.244H428.12V339.146H418.797V292.683H455.905L460.475 297.439V320.671L455.905 325.244L460.475 329.817V339.146H451.153ZM451.153 315.915V301.829H427.937V315.915H451.153Z" fill="white"/>
<path d="M233.257 305.671H192.492V308.598H233.257V305.671Z" fill="#44A83F"/>
<path opacity="0.2" d="M225.03 305.671H184.266V308.598H225.03V305.671Z" fill="#44A83F"/>
<path d="M233.802 322.866H205.285V325.793H233.802V322.866Z" fill="#44A83F"/>
<path opacity="0.2" d="M227.954 322.866H199.438V325.793H227.954V322.866Z" fill="#44A83F"/>
<path d="M496.49 307.5H455.543V310.427H496.49V307.5Z" fill="#FE0C13"/>
<path opacity="0.2" d="M504.166 307.5H463.219V310.427H504.166V307.5Z" fill="#FE0C13"/>
<path d="M477.661 324.146H453.531V327.073H477.661V324.146Z" fill="#FE0C13"/>
<path opacity="0.2" d="M482.231 324.146H458.102V327.073H482.231V324.146Z" fill="#FE0C13"/>
</svg>
