<svg width="271" height="361" viewBox="0 0 271 361" fill="none" xmlns="http://www.w3.org/2000/svg">
<path d="M232 246H236.36V247.126H232V246Z" fill="white"/>
<path d="M216 350H220.36V351.126H216V350Z" fill="white"/>
<path d="M252 0H256.36V1.12556H252V0Z" fill="white"/>
<path d="M27.3129 358H24.8098V356.947H25.2741L24.5549 355.842L23.847 356.947H24.2774V358H21.7969V356.947H22.5614L23.7451 355.321L22.6181 353.781H21.9101V352.722H24.2887V353.781H23.915L24.5549 354.8L25.2062 353.781H24.7871V352.722H27.1884V353.781H26.5031L25.3761 355.321L26.5597 356.947H27.3129V358ZM32.8007 360.112H31.9286C31.6982 360.112 31.4849 360.073 31.2886 359.993C31.096 359.918 30.9299 359.808 30.7902 359.665C30.6543 359.522 30.5467 359.354 30.4674 359.161C30.3919 358.968 30.3541 358.755 30.3541 358.521V356.108C30.3541 355.799 30.2654 355.599 30.088 355.508C29.9105 355.414 29.6462 355.367 29.2951 355.367V354.313C29.6462 354.313 29.9105 354.27 30.088 354.183C30.2654 354.092 30.3541 353.888 30.3541 353.571V351.159C30.3541 350.925 30.3919 350.711 30.4674 350.519C30.5467 350.326 30.6543 350.158 30.7902 350.015C30.9299 349.871 31.096 349.76 31.2886 349.681C31.4849 349.598 31.6982 349.556 31.9286 349.556H32.8007V350.609H31.9286C31.7284 350.609 31.5906 350.651 31.5151 350.734C31.4434 350.813 31.4075 350.955 31.4075 351.159V353.571C31.4075 353.926 31.298 354.215 31.0791 354.438C30.8638 354.657 30.6184 354.793 30.3428 354.846C30.4825 354.868 30.6147 354.913 30.7393 354.981C30.8676 355.046 30.979 355.134 31.0734 355.248C31.1716 355.357 31.2508 355.485 31.3112 355.633C31.3754 355.78 31.4075 355.939 31.4075 356.108V358.521C31.4075 358.721 31.4434 358.861 31.5151 358.94C31.5906 359.023 31.7284 359.065 31.9286 359.065H32.8007V360.112Z" fill="#2973EA"/>
<path d="M1.68293 283.227L3.40346 281.349L1.71993 279.513L2.30269 278.877L3.98623 280.714L5.70676 278.837L6.25253 279.432L4.53199 281.309L6.22478 283.156L5.64201 283.792L3.94923 281.945L2.22869 283.822L1.68293 283.227Z" fill="#2973EA"/>
<path d="M264.683 294.227L266.403 292.349L264.72 290.513L265.303 289.877L266.986 291.714L268.707 289.837L269.253 290.432L267.532 292.309L269.225 294.156L268.642 294.792L266.949 292.945L265.229 294.822L264.683 294.227Z" fill="#2973EA"/>
<path d="M245.683 54.2265L247.403 52.3495L245.72 50.5127L246.303 49.8769L247.986 51.7137L249.707 49.8366L250.253 50.432L248.532 52.3091L250.225 54.1559L249.642 54.7917L247.949 52.9449L246.229 54.822L245.683 54.2265Z" fill="#2973EA"/>
</svg>
