<svg width="691" height="810" viewBox="0 0 691 810" fill="none" xmlns="http://www.w3.org/2000/svg">
<path d="M73.6025 17H68.6387V14.9111H69.5596L68.1333 12.7212L66.7295 14.9111H67.583V17H62.6641V14.9111H64.1802L66.5273 11.688L64.2925 8.6333H62.8887V6.5332H67.6055V8.6333H66.8643L68.1333 10.6548L69.4248 8.6333H68.5938V6.5332H73.3555V8.6333H71.9966L69.7617 11.688L72.1089 14.9111H73.6025V17ZM84.4849 21.189H82.7554C82.2987 21.189 81.8757 21.1104 81.4863 20.9531C81.1045 20.8034 80.7751 20.5863 80.498 20.3018C80.2285 20.0173 80.0151 19.6841 79.8579 19.3022C79.7082 18.9204 79.6333 18.4974 79.6333 18.0332V13.249C79.6333 12.6351 79.4574 12.2383 79.1055 12.0586C78.7536 11.8714 78.2295 11.7778 77.5332 11.7778V9.68896C78.2295 9.68896 78.7536 9.60286 79.1055 9.43066C79.4574 9.25098 79.6333 8.84668 79.6333 8.21777V3.43359C79.6333 2.9694 79.7082 2.54639 79.8579 2.16455C80.0151 1.78271 80.2285 1.44954 80.498 1.16504C80.7751 0.880534 81.1045 0.659668 81.4863 0.502441C81.8757 0.337728 82.2987 0.255371 82.7554 0.255371H84.4849V2.34424H82.7554C82.3586 2.34424 82.0853 2.4266 81.9355 2.59131C81.7933 2.74854 81.7222 3.0293 81.7222 3.43359V8.21777C81.7222 8.92155 81.505 9.4943 81.0708 9.93604C80.644 10.3703 80.1574 10.6398 79.6108 10.7446C79.8879 10.7896 80.1499 10.8794 80.397 11.0142C80.6515 11.1414 80.8724 11.3174 81.0596 11.542C81.2542 11.7591 81.4115 12.0137 81.5312 12.3057C81.6585 12.5977 81.7222 12.9121 81.7222 13.249V18.0332C81.7222 18.43 81.7933 18.707 81.9355 18.8643C82.0853 19.029 82.3586 19.1113 82.7554 19.1113H84.4849V21.189Z" fill="#2973EA"/>
<path d="M673 807H682.432V809.232H673V807Z" fill="white"/>
<path d="M434 717H443.432V719.232H434V717Z" fill="white"/>
<path d="M681 219H690.432V221.232H681V219Z" fill="white"/>
<path d="M666.347 545.548L662.624 541.826L658.982 545.468L657.721 544.208L661.364 540.565L657.641 536.843L658.822 535.662L662.544 539.385L666.207 535.722L667.467 536.983L663.805 540.645L667.528 544.368L666.347 545.548Z" fill="#2973EA"/>
<path d="M590.347 51.5484L586.624 47.8261L582.982 51.4684L581.721 50.2076L585.364 46.5653L581.641 42.843L582.822 41.6623L586.544 45.3846L590.207 41.7223L591.467 42.9831L587.805 46.6454L591.528 50.3677L590.347 51.5484Z" fill="#2973EA"/>
<path d="M310.347 219.548L306.624 215.826L302.982 219.468L301.721 218.208L305.364 214.565L301.641 210.843L302.822 209.662L306.544 213.385L310.207 209.722L311.467 210.983L307.805 214.645L311.528 218.368L310.347 219.548Z" fill="#2973EA"/>
</svg>
