<svg width="1168" height="619" viewBox="0 0 1168 619" fill="none" xmlns="http://www.w3.org/2000/svg">
<path d="M1162.35 546.548L1158.62 542.826L1154.98 546.468L1153.72 545.208L1157.36 541.565L1153.64 537.843L1154.82 536.662L1158.54 540.385L1162.21 536.722L1163.47 537.983L1159.81 541.645L1163.53 545.368L1162.35 546.548Z" fill="#2973EA"/>
<path d="M1086.35 52.5484L1082.62 48.8261L1078.98 52.4684L1077.72 51.2076L1081.36 47.5653L1077.64 43.843L1078.82 42.6623L1082.54 46.3846L1086.21 42.7223L1087.47 43.9831L1083.81 47.6454L1087.53 51.3677L1086.35 52.5484Z" fill="#2973EA"/>
<path d="M806.347 220.548L802.624 216.826L798.982 220.468L797.721 219.208L801.364 215.565L797.641 211.843L798.822 210.662L802.544 214.385L806.207 210.722L807.467 211.983L803.805 215.645L807.528 219.368L806.347 220.548Z" fill="#2973EA"/>
<path d="M428.603 17H423.639V14.9111H424.56L423.133 12.7212L421.729 14.9111H422.583V17H417.664V14.9111H419.18L421.527 11.688L419.292 8.6333H417.889V6.5332H422.605V8.6333H421.864L423.133 10.6548L424.425 8.6333H423.594V6.5332H428.355V8.6333H426.997L424.762 11.688L427.109 14.9111H428.603V17ZM439.485 21.189H437.755C437.299 21.189 436.876 21.1104 436.486 20.9531C436.104 20.8034 435.775 20.5863 435.498 20.3018C435.229 20.0173 435.015 19.6841 434.858 19.3022C434.708 18.9204 434.633 18.4974 434.633 18.0332V13.249C434.633 12.6351 434.457 12.2383 434.105 12.0586C433.754 11.8714 433.229 11.7778 432.533 11.7778V9.68896C433.229 9.68896 433.754 9.60286 434.105 9.43066C434.457 9.25098 434.633 8.84668 434.633 8.21777V3.43359C434.633 2.9694 434.708 2.54639 434.858 2.16455C435.015 1.78271 435.229 1.44954 435.498 1.16504C435.775 0.880534 436.104 0.659668 436.486 0.502441C436.876 0.337728 437.299 0.255371 437.755 0.255371H439.485V2.34424H437.755C437.359 2.34424 437.085 2.4266 436.936 2.59131C436.793 2.74854 436.722 3.0293 436.722 3.43359V8.21777C436.722 8.92155 436.505 9.4943 436.071 9.93604C435.644 10.3703 435.157 10.6398 434.611 10.7446C434.888 10.7896 435.15 10.8794 435.397 11.0142C435.652 11.1414 435.872 11.3174 436.06 11.542C436.254 11.7591 436.411 12.0137 436.531 12.3057C436.659 12.5977 436.722 12.9121 436.722 13.249V18.0332C436.722 18.43 436.793 18.707 436.936 18.8643C437.085 19.029 437.359 19.1113 437.755 19.1113H439.485V21.189Z" fill="#2973EA"/>
<path d="M976 616H985.432V618.232H976V616Z" fill="white"/>
<path d="M434 526H443.432V528.232H434V526Z" fill="white"/>
<path d="M758 28H767.432V30.232H758V28Z" fill="white"/>
</svg>
