<svg width="280" height="240" viewBox="0 0 280 240" fill="none" xmlns="http://www.w3.org/2000/svg">
<g clip-path="url(#clip0)">
<path d="M263.582 77.0056H235.488C233.909 77.0056 232.646 75.7222 232.646 74.1179C232.646 72.5136 233.909 71.2302 235.488 71.2302H263.582C265.161 71.2302 266.423 72.5136 266.423 74.1179C266.423 75.7222 265.161 77.0056 263.582 77.0056Z" fill="#E22A30"/>
<path d="M267.688 121.283H244.644C243.065 121.283 241.803 120 241.803 118.396C241.803 116.791 243.065 115.508 244.644 115.508H267.688C269.266 115.508 270.529 116.791 270.529 118.396C270.529 120 269.266 121.283 267.688 121.283Z" fill="#E22A30"/>
<path d="M275.58 129.625H263.9C262.321 129.625 261.059 128.342 261.059 126.738C261.059 125.134 262.321 123.85 263.9 123.85H275.58C277.158 123.85 278.421 125.134 278.421 126.738C278.421 128.663 277.158 129.625 275.58 129.625Z" fill="#E22A30"/>
<path d="M255.691 52.6204H250.956C249.378 52.6204 248.115 51.337 248.115 49.7327C248.115 48.1284 249.378 46.845 250.956 46.845H255.691C257.27 46.845 258.532 48.1284 258.532 49.7327C258.217 51.337 256.954 52.6204 255.691 52.6204Z" fill="#E22A30"/>
<path d="M242.118 52.6204H225.388C223.81 52.6204 222.547 51.337 222.547 49.7327C222.547 48.1284 223.81 46.845 225.388 46.845H242.118C243.697 46.845 244.959 48.1284 244.959 49.7327C244.959 51.337 243.697 52.6204 242.118 52.6204Z" fill="#E22A30"/>
<path d="M21.1485 139.573H4.73362C3.15526 139.573 1.89258 138.289 1.89258 136.685C1.89258 135.081 3.15526 133.797 4.73362 133.797H21.4642C23.0425 133.797 24.3052 135.081 24.3052 136.685C23.9895 138.289 22.7269 139.573 21.1485 139.573Z" fill="#10BF34"/>
<path d="M29.9864 83.4226H13.5715C11.9932 83.4226 10.7305 82.1392 10.7305 80.5349C10.7305 78.9306 11.9932 77.6472 13.5715 77.6472H30.3021C31.8804 77.6472 33.1431 78.9306 33.1431 80.5349C32.8274 82.46 31.5647 83.4226 29.9864 83.4226Z" fill="#10BF34"/>
<path d="M56.5043 57.4331H21.7805C20.2021 57.4331 18.9395 56.1497 18.9395 54.5454C18.9395 52.9411 20.2021 51.6577 21.7805 51.6577H56.5043C58.0826 51.6577 59.3453 52.9411 59.3453 54.5454C59.3453 56.1497 58.0826 57.4331 56.5043 57.4331Z" fill="#10BF34"/>
<path d="M47.3479 192.514H29.3547C27.7764 192.514 26.5137 191.23 26.5137 189.626C26.5137 188.022 27.7764 186.738 29.3547 186.738H47.3479C48.9263 186.738 50.189 188.022 50.189 189.626C50.189 191.23 48.9263 192.514 47.3479 192.514Z" fill="#10BF34"/>
<path d="M18.6222 192.514H13.5715C11.9932 192.514 10.7305 191.23 10.7305 189.626C10.7305 188.022 11.9932 186.738 13.5715 186.738H18.9379C20.5163 186.738 21.7789 188.022 21.7789 189.626C21.4633 191.23 20.2006 192.514 18.6222 192.514Z" fill="#10BF34"/>
<path d="M265.478 181.283H233.595C232.017 181.283 230.754 180 230.754 178.396C230.754 176.791 232.017 175.508 233.595 175.508H265.478C267.056 175.508 268.319 176.791 268.319 178.396C268.319 180 267.056 181.283 265.478 181.283Z" fill="#E22A30"/>
<path d="M250.325 193.155H225.702C224.124 193.155 222.861 191.871 222.861 190.267C222.861 188.663 224.124 187.379 225.702 187.379H250.325C251.903 187.379 253.166 188.663 253.166 190.267C253.166 191.871 251.903 193.155 250.325 193.155Z" fill="#E22A30"/>
<path d="M134.476 234.225C71.0259 234.225 19.2559 181.925 19.2559 117.112C19.2559 52.6203 71.0259 0 134.476 0C197.926 0 249.696 52.6203 249.696 117.112C249.696 181.925 197.926 234.225 134.476 234.225ZM134.476 8.34224C75.4453 8.34224 27.4633 57.1123 27.4633 117.112C27.4633 177.112 75.4453 225.882 134.476 225.882C193.506 225.882 241.488 177.112 241.488 117.112C241.488 57.1123 193.506 8.34224 134.476 8.34224Z" fill="#10BF34"/>
<path d="M145.523 239.999C82.0728 239.999 30.3027 187.379 30.3027 122.887C30.3027 58.0744 82.0728 5.7749 145.523 5.7749C208.972 5.7749 260.742 58.3952 260.742 122.887C261.058 187.379 209.288 239.999 145.523 239.999ZM145.523 14.1171C86.4921 14.1171 38.5102 62.8872 38.5102 122.887C38.5102 182.887 86.4921 231.657 145.523 231.657C204.553 231.657 252.535 182.887 252.535 122.887C252.535 62.8872 204.553 14.1171 145.523 14.1171Z" fill="#E22A30"/>
<path d="M140.159 237.112C76.7095 237.112 24.9395 184.491 24.9395 119.999C24.9395 55.5075 76.7095 2.88721 140.159 2.88721C203.609 2.88721 255.379 55.5075 255.379 119.999C255.379 184.491 203.609 237.112 140.159 237.112ZM140.159 11.2295C81.1289 11.2295 33.1469 59.9995 33.1469 119.999C33.1469 179.999 81.1289 228.77 140.159 228.77C199.19 228.77 247.172 179.999 247.172 119.999C247.172 59.9995 199.19 11.2295 140.159 11.2295Z" fill="#555B55"/>
<path d="M250.011 65.7749H224.126C222.548 65.7749 221.285 64.4915 221.285 62.8872C221.285 61.2829 222.548 59.9995 224.126 59.9995H250.011C251.59 59.9995 252.852 61.2829 252.852 62.8872C252.852 64.4915 251.59 65.7749 250.011 65.7749Z" fill="#555B55"/>
<path d="M44.193 154.01H11.6789C10.1006 154.01 8.83789 152.727 8.83789 151.123C8.83789 149.518 10.1006 148.235 11.6789 148.235H44.193C45.7714 148.235 47.034 149.518 47.034 151.123C47.034 152.727 45.7714 154.01 44.193 154.01Z" fill="#555B55"/>
<path d="M83.3364 44.5991H53.6633C52.0849 44.5991 50.8223 43.3157 50.8223 41.7114C50.8223 40.1071 52.0849 38.8237 53.6633 38.8237H83.3364C84.9147 38.8237 86.1774 40.1071 86.1774 41.7114C86.1774 43.3157 84.9147 44.5991 83.3364 44.5991Z" fill="#555B55"/>
<path d="M47.9833 97.5403H15.1535C13.5752 97.5403 12.3125 96.2569 12.3125 94.6526C12.3125 93.0483 13.5752 91.7649 15.1535 91.7649H47.6676C49.246 91.7649 50.5087 93.0483 50.5087 94.6526C50.8243 96.2569 49.5617 97.5403 47.9833 97.5403Z" fill="#555B55"/>
<path d="M52.7162 35.6145H41.0363C39.458 35.6145 38.1953 34.3311 38.1953 32.7268C38.1953 31.1225 39.458 29.8391 41.0363 29.8391H52.7162C54.2945 29.8391 55.5572 31.1225 55.5572 32.7268C55.5572 34.3311 54.2945 35.6145 52.7162 35.6145Z" fill="#555B55"/>
<path d="M238.015 209.198H201.081C199.503 209.198 198.24 207.914 198.24 206.31C198.24 204.706 199.503 203.422 201.081 203.422H237.699C239.277 203.422 240.54 204.706 240.54 206.31C240.856 207.914 239.593 209.198 238.015 209.198Z" fill="#555B55"/>
<path d="M266.741 108.128H239.909C238.331 108.128 237.068 106.845 237.068 105.24C237.068 103.636 238.331 102.353 239.909 102.353H266.741C268.32 102.353 269.583 103.636 269.583 105.24C269.583 106.845 268.32 108.128 266.741 108.128Z" fill="#555B55"/>
<path d="M277.159 157.54H228.546C226.968 157.54 225.705 156.256 225.705 154.652C225.705 153.048 226.968 151.764 228.546 151.764H277.475C279.053 151.764 280.316 153.048 280.316 154.652C280 156.256 278.738 157.54 277.159 157.54Z" fill="#555B55"/>
<path d="M252.538 209.198H248.118C246.54 209.198 245.277 207.914 245.277 206.31C245.277 204.706 246.54 203.422 248.118 203.422H252.538C254.116 203.422 255.379 204.706 255.379 206.31C255.379 207.914 254.116 209.198 252.538 209.198Z" fill="#555B55"/>
<path d="M259.798 167.486H247.171C245.593 167.486 244.33 166.203 244.33 164.599C244.33 162.994 245.593 161.711 247.171 161.711H259.798C261.376 161.711 262.639 162.994 262.639 164.599C262.639 165.882 261.376 167.486 259.798 167.486Z" fill="#555B55"/>
<path d="M36.9331 108.128H18.6242C17.0459 108.128 15.7832 106.845 15.7832 105.24C15.7832 103.636 17.0459 102.353 18.6242 102.353H36.9331C38.5115 102.353 39.7742 103.636 39.7742 105.24C39.7742 106.845 38.5115 108.128 36.9331 108.128Z" fill="#555B55"/>
<path d="M44.1929 181.283H25.884C24.3057 181.283 23.043 180 23.043 178.395C23.043 176.791 24.3057 175.508 25.884 175.508H44.1929C45.7713 175.508 47.0339 176.791 47.0339 178.395C47.0339 180 45.7713 181.283 44.1929 181.283Z" fill="#555B55"/>
<path d="M227.916 29.5186H202.978C201.399 29.5186 200.137 28.2351 200.137 26.6309C200.137 25.0266 201.399 23.7432 202.978 23.7432H227.916C229.494 23.7432 230.757 25.0266 230.757 26.6309C230.757 28.2351 229.494 29.5186 227.916 29.5186Z" fill="#555B55"/>
<path d="M74.183 216.257H43.2473C41.6689 216.257 40.4062 214.973 40.4062 213.369C40.4062 211.765 41.6689 210.481 43.2473 210.481H74.183C75.7614 210.481 77.024 211.765 77.024 213.369C77.024 214.973 75.7614 216.257 74.183 216.257Z" fill="#555B55"/>
<path d="M6.62909 98.1816H2.84104C1.26268 98.1816 0 96.8982 0 95.294C0 93.6897 1.26268 92.4062 2.84104 92.4062H6.62909C8.20744 92.4062 9.47012 93.6897 9.47012 95.294C9.47012 96.5774 8.20744 98.1816 6.62909 98.1816Z" fill="#555B55"/>
<g clip-path="url(#clip1)">
<path d="M116.138 96.2124C116.138 103.124 110.411 108.779 103.411 108.779C96.4109 108.779 90.6836 103.124 90.6836 96.2124V68.5664C90.6836 61.6549 96.4109 56 103.411 56C110.411 56 116.138 61.6549 116.138 68.5664V96.2124Z" fill="#10BF34"/>
<path d="M184.548 96.2124C184.548 103.124 178.821 108.779 171.821 108.779C164.821 108.779 159.094 103.124 159.094 96.2124V68.5664C159.094 61.6549 164.821 56 171.821 56C178.821 56 184.548 61.6549 184.548 68.5664V96.2124Z" fill="#10BF34"/>
<path d="M162.91 192.346C161.319 192.346 160.046 191.717 159.092 190.775L108.819 141.138C106.592 138.938 106.592 135.483 108.819 133.284C111.046 131.084 114.546 131.084 116.773 133.284L167.046 182.921C169.273 185.12 169.273 188.576 167.046 190.775C165.773 192.031 164.501 192.346 162.91 192.346Z" fill="#10BF34"/>
<path d="M112.637 192.346C111.046 192.346 109.773 191.717 108.819 190.775C106.592 188.576 106.592 185.12 108.819 182.921L159.092 133.284C161.319 131.084 164.819 131.084 167.046 133.284C169.273 135.483 169.273 138.938 167.046 141.138L116.455 190.775C115.501 192.031 114.228 192.346 112.637 192.346Z" fill="#10BF34"/>
<path d="M127.273 101.868C127.273 108.779 121.546 114.434 114.546 114.434C107.546 114.434 101.818 108.779 101.818 101.868V73.9074C101.818 66.9959 107.546 61.3411 114.546 61.3411C121.546 61.3411 127.273 66.9959 127.273 73.9074V101.868Z" fill="#E22A30"/>
<path d="M195.999 101.868C195.999 108.779 190.272 114.434 183.272 114.434C176.272 114.434 170.545 108.779 170.545 101.868V73.9074C170.545 66.9959 176.272 61.3411 183.272 61.3411C190.272 61.3411 195.999 66.9959 195.999 73.9074V101.868Z" fill="#E22A30"/>
<path d="M174.365 198C172.774 198 171.501 197.371 170.547 196.429L119.956 146.478C117.728 144.279 117.728 140.823 119.956 138.624C122.183 136.425 125.683 136.425 127.91 138.624L178.183 188.261C180.41 190.46 180.41 193.916 178.183 196.115C177.228 197.371 175.637 198 174.365 198Z" fill="#E22A30"/>
<path d="M123.774 198C122.183 198 120.91 197.372 119.956 196.429C117.728 194.23 117.728 190.774 119.956 188.575L170.228 138.938C172.456 136.739 175.956 136.739 178.183 138.938C180.41 141.137 180.41 144.593 178.183 146.792L127.91 196.429C126.637 197.372 125.365 198 123.774 198Z" fill="#E22A30"/>
<path d="M121.865 99.0395C121.865 105.951 116.137 111.606 109.137 111.606C102.137 111.606 96.4102 105.951 96.4102 99.0395V71.0793C96.4102 64.1678 102.137 58.5129 109.137 58.5129C116.137 58.5129 121.865 64.1678 121.865 71.0793V99.0395Z" fill="#555B55"/>
<path d="M190.275 99.0395C190.275 105.951 184.548 111.606 177.548 111.606C170.548 111.606 164.82 105.951 164.82 99.0395V71.3935C164.82 64.482 170.548 58.8271 177.548 58.8271C184.548 58.8271 190.275 64.482 190.275 71.3935V99.0395Z" fill="#555B55"/>
<path d="M168.636 195.173C167.045 195.173 165.773 194.544 164.818 193.602L114.227 143.965C112 141.766 112 138.31 114.227 136.111C116.454 133.912 119.954 133.912 122.182 136.111L172.454 185.748C174.682 187.947 174.682 191.403 172.454 193.602C171.5 194.859 170.227 195.173 168.636 195.173Z" fill="#555B55"/>
<path d="M118.362 195.173C116.771 195.173 115.498 194.544 114.544 193.602C112.316 191.403 112.316 187.947 114.544 185.748L164.816 136.111C167.043 133.912 170.543 133.912 172.771 136.111C174.998 138.31 174.998 141.766 172.771 143.965L122.18 193.602C121.225 194.859 119.634 195.173 118.362 195.173Z" fill="#555B55"/>
</g>
</g>
<defs>
<clipPath id="clip0">
<rect width="280" height="240" fill="white"/>
</clipPath>
<clipPath id="clip1">
<rect width="105" height="142" fill="white" transform="translate(91 56)"/>
</clipPath>
</defs>
</svg>
