<svg width="862" height="555" viewBox="0 0 862 555" fill="none" xmlns="http://www.w3.org/2000/svg">
<path d="M339.347 550.548L335.624 546.826L331.982 550.468L330.721 549.208L334.364 545.565L330.641 541.843L331.822 540.662L335.544 544.385L339.207 540.722L340.467 541.983L336.805 545.645L340.528 549.368L339.347 550.548Z" fill="#B7BEB2"/>
<path d="M856.347 13.5484L852.624 9.82612L848.982 13.4684L847.721 12.2076L851.364 8.56533L847.641 4.84302L848.822 3.66228L852.544 7.3846L856.207 3.72232L857.467 4.9831L853.805 8.64538L857.528 12.3677L856.347 13.5484Z" fill="#B7BEB2"/>
<path d="M590.347 204.548L586.624 200.826L582.982 204.468L581.721 203.208L585.364 199.565L581.641 195.843L582.822 194.662L586.544 198.385L590.207 194.722L591.467 195.983L587.805 199.645L591.528 203.368L590.347 204.548Z" fill="#B7BEB2"/>
<path d="M54.6025 31H49.6387V28.9111H50.5596L49.1333 26.7212L47.7295 28.9111H48.583V31H43.6641V28.9111H45.1802L47.5273 25.688L45.2925 22.6333H43.8887V20.5332H48.6055V22.6333H47.8643L49.1333 24.6548L50.4248 22.6333H49.5938V20.5332H54.3555V22.6333H52.9966L50.7617 25.688L53.1089 28.9111H54.6025V31ZM65.4849 35.189H63.7554C63.2987 35.189 62.8757 35.1104 62.4863 34.9531C62.1045 34.8034 61.7751 34.5863 61.498 34.3018C61.2285 34.0173 61.0151 33.6841 60.8579 33.3022C60.7082 32.9204 60.6333 32.4974 60.6333 32.0332V27.249C60.6333 26.6351 60.4574 26.2383 60.1055 26.0586C59.7536 25.8714 59.2295 25.7778 58.5332 25.7778V23.689C59.2295 23.689 59.7536 23.6029 60.1055 23.4307C60.4574 23.251 60.6333 22.8467 60.6333 22.2178V17.4336C60.6333 16.9694 60.7082 16.5464 60.8579 16.1646C61.0151 15.7827 61.2285 15.4495 61.498 15.165C61.7751 14.8805 62.1045 14.6597 62.4863 14.5024C62.8757 14.3377 63.2987 14.2554 63.7554 14.2554H65.4849V16.3442H63.7554C63.3586 16.3442 63.0853 16.4266 62.9355 16.5913C62.7933 16.7485 62.7222 17.0293 62.7222 17.4336V22.2178C62.7222 22.9215 62.505 23.4943 62.0708 23.936C61.644 24.3703 61.1574 24.6398 60.6108 24.7446C60.8879 24.7896 61.1499 24.8794 61.397 25.0142C61.6515 25.1414 61.8724 25.3174 62.0596 25.542C62.2542 25.7591 62.4115 26.0137 62.5312 26.3057C62.6585 26.5977 62.7222 26.9121 62.7222 27.249V32.0332C62.7222 32.43 62.7933 32.707 62.9355 32.8643C63.0853 33.029 63.3586 33.1113 63.7554 33.1113H65.4849V35.189Z" fill="#B7BEB2"/>
<path d="M764 509H773.432V511.232H764V509Z" fill="#B7BEB2"/>
<path d="M0 508H9.432V510.232H0V508Z" fill="#B7BEB2"/>
<path d="M204 269H213.432V271.232H204V269Z" fill="#B7BEB2"/>
</svg>
