<svg width="127" height="103" viewBox="0 0 127 103" fill="none" xmlns="http://www.w3.org/2000/svg">
<g clip-path="url(#clip0)">
<path d="M96.5986 98.1628H20.4554C16.1936 98.1628 13.0684 94.7484 13.0684 90.765C13.0684 86.497 16.4778 83.3672 20.4554 83.3672H96.5986C100.86 83.3672 103.986 86.7816 103.986 90.765C104.27 94.7484 100.86 98.1628 96.5986 98.1628Z" fill="#10BF34"/>
<path d="M38.3564 1.42347C36.3676 -0.568241 33.2423 -0.568241 31.2535 1.42347L19.8889 12.8047L8.52421 1.42347C6.53539 -0.568241 3.41011 -0.568241 1.4213 1.42347C-0.567516 3.41518 -0.567516 6.54502 1.4213 8.53673L12.786 19.9179L1.4213 31.2992C-0.567516 33.2909 -0.567516 36.4207 1.4213 38.4124C2.55776 39.266 3.69423 39.8351 5.11481 39.8351C6.53539 39.8351 7.67186 39.266 8.52421 38.4124L19.8889 27.0312L31.2535 38.4124C32.1059 39.266 33.5264 39.8351 34.6629 39.8351C36.0835 39.8351 37.22 39.266 38.0723 38.4124C40.0611 36.4207 40.0611 33.2909 38.0723 31.2992L26.7077 19.9179L38.0723 8.53673C40.3452 6.54502 40.3452 3.41518 38.3564 1.42347Z" fill="#10BF34"/>
<path d="M104.271 19.917L115.636 8.53576C117.625 6.54404 117.625 3.41421 115.636 1.4225C113.647 -0.569217 110.522 -0.569217 108.533 1.4225L97.1682 12.8037L85.8035 1.4225C83.8147 -0.569217 80.6894 -0.569217 78.7006 1.4225C76.7118 3.41421 76.7118 6.54404 78.7006 8.53576L90.0653 19.917L78.7006 31.2982C76.7118 33.2899 76.7118 36.4197 78.7006 38.4114C79.5529 39.265 80.9735 39.8341 82.11 39.8341C83.5306 39.8341 84.667 39.265 85.5194 38.4114L96.884 27.0302L108.249 38.4114C109.101 39.265 110.522 39.8341 111.658 39.8341C113.079 39.8341 114.215 39.265 115.067 38.4114C117.056 36.4197 117.056 33.2899 115.067 31.2982L104.271 19.917Z" fill="#10BF34"/>
<path d="M106.544 103H30.4006C26.1389 103 22.7295 99.5858 22.7295 95.6024C22.7295 91.6189 26.1389 88.2046 30.1165 88.2046H106.544C110.806 88.2046 113.931 91.6189 113.931 95.6024C113.931 99.5858 110.806 103 106.544 103Z" fill="#E22A30"/>
<path d="M48.2988 6.54408C46.31 4.55236 43.1847 4.55236 41.1959 6.54408L29.8312 17.9253L18.4666 6.54408C16.4778 4.55236 13.3525 4.55236 11.3637 6.54408C9.65898 8.53579 9.65898 11.6656 11.3637 13.6573L22.7283 25.0386L11.3637 36.4198C9.37487 38.4115 9.37487 41.5413 11.3637 43.533C12.216 44.3866 13.6366 44.9557 14.7731 44.9557C16.1937 44.9557 17.3301 44.3866 18.1825 43.533L29.5471 32.1518L40.9118 43.533C41.7641 44.3866 43.1847 44.9557 44.3212 44.9557C45.7418 44.9557 46.8782 44.3866 47.7306 43.533C49.7194 41.5413 49.7194 38.4115 47.7306 36.4198L36.3659 25.0386L47.7306 13.6573C50.2876 11.6656 50.2876 8.53579 48.2988 6.54408Z" fill="#E22A30"/>
<path d="M114.214 25.0386L125.579 13.6573C127.568 11.6656 127.568 8.53579 125.579 6.54408C123.59 4.55236 120.465 4.55236 118.476 6.54408L107.112 17.9253L95.7469 6.54408C93.758 4.55236 90.6328 4.55236 88.644 6.54408C86.6551 8.53579 86.6551 11.6656 88.644 13.6573L100.009 25.0386L88.644 36.4198C86.6551 38.4115 86.6551 41.5413 88.644 43.533C89.4963 44.3866 90.9169 44.9557 92.0534 44.9557C93.4739 44.9557 94.6104 44.3866 95.4627 43.533L106.827 32.1518L118.192 43.533C119.044 44.3866 120.465 44.9557 121.601 44.9557C123.022 44.9557 124.158 44.3866 125.011 43.533C127 41.5413 127 38.4115 125.011 36.4198L114.214 25.0386Z" fill="#E22A30"/>
<path d="M101.713 100.439H25.2855C21.0237 100.439 17.8984 97.0248 17.8984 93.0413C17.8984 88.7734 21.3078 85.6436 25.2855 85.6436H101.713C105.975 85.6436 109.1 89.0579 109.1 93.0413C109.1 97.3093 105.69 100.439 101.713 100.439Z" fill="white"/>
<path d="M43.1866 3.98304C41.1978 1.99133 38.0725 1.99133 36.0837 3.98304L24.719 15.3643L13.3543 3.98304C11.6497 1.99133 8.52437 1.99133 6.53556 3.98304C4.54674 5.97475 4.54674 9.10459 6.53556 11.0963L17.9002 22.4775L6.53556 33.8587C4.54674 35.8504 4.54674 38.9803 6.53556 40.972C7.38791 41.8256 8.80849 42.3946 9.94495 42.3946C11.0814 42.3946 12.502 41.8256 13.3543 40.972L24.719 29.5908L36.0837 40.972C36.936 41.8256 38.3566 42.3946 39.4931 42.3946C40.9136 42.3946 42.0501 41.8256 42.9025 40.972C44.8913 38.9803 44.8913 35.8504 42.9025 33.8587L31.5378 22.4775L42.9025 11.0963C45.1754 9.10459 45.1754 5.97475 43.1866 3.98304Z" fill="white"/>
<path d="M109.101 22.4775L120.466 11.0963C122.455 9.10459 122.455 5.97475 120.466 3.98304C118.477 1.99133 115.352 1.99133 113.363 3.98304L101.998 15.3643L90.6336 3.98304C88.6448 1.99133 85.5195 1.99133 83.5307 3.98304C81.5419 5.97475 81.5419 9.10459 83.5307 11.0963L94.8953 22.4775L83.5307 33.8587C81.5419 35.8504 81.5419 38.9803 83.5307 40.972C84.383 41.8256 85.8036 42.3946 86.9401 42.3946C88.3607 42.3946 89.4971 41.8256 90.3495 40.972L101.714 29.5908L113.079 40.972C113.931 41.8256 115.352 42.3946 116.488 42.3946C117.625 42.3946 119.045 41.8256 119.898 40.972C121.886 38.9803 121.886 35.8504 119.898 33.8587L109.101 22.4775Z" fill="white"/>
</g>
<defs>
<clipPath id="clip0">
<rect width="127" height="103" fill="white"/>
</clipPath>
</defs>
</svg>
