<svg width="101" height="118" viewBox="0 0 101 118" fill="none" xmlns="http://www.w3.org/2000/svg">
<g clip-path="url(#clip0)">
<path d="M6.3486 0C4.3286 2.00485 2.88574 4.86893 2.88574 8.01942V33.2233C2.88574 39.5243 8.08003 44.6796 14.4286 44.6796C20.7772 44.6796 25.9715 39.5243 25.9715 33.2233V17.1845L6.3486 0Z" fill="#10BF34"/>
<path d="M84.263 0L64.9287 17.1845V33.5097C64.9287 39.8107 70.123 44.966 76.4716 44.966C82.8201 44.966 88.0144 39.8107 88.0144 33.5097V8.01942C88.0144 4.86893 86.5716 2.00485 84.263 0Z" fill="#10BF34"/>
<path d="M45.3057 68.4512C20.4886 68.4512 0 86.7813 0 109.121C0 111.126 1.73143 112.844 3.75143 112.844C5.77143 112.844 7.50286 111.126 7.50286 109.121C7.50286 90.791 24.5286 75.8978 45.3057 75.8978C66.0829 75.8978 83.1086 90.791 83.1086 109.121C83.1086 111.126 84.84 112.844 86.86 112.844C88.88 112.844 90.6114 111.126 90.6114 109.121C90.9 86.7813 70.4114 68.4512 45.3057 68.4512Z" fill="#10BF34"/>
<path d="M16.4482 5.15527C14.4282 7.16013 12.9854 10.0242 12.9854 13.1747V38.3786C12.9854 44.6795 18.1796 49.8349 24.5282 49.8349C30.8768 49.8349 36.0711 44.6795 36.0711 38.3786V22.3397L16.4482 5.15527Z" fill="#E22A30"/>
<path d="M94.6507 5.15527L75.3164 22.3397V38.665C75.3164 44.966 80.5107 50.1213 86.8593 50.1213C93.2078 50.1213 98.4021 44.966 98.4021 38.665V13.1747C98.1136 10.0242 96.6707 7.16013 94.6507 5.15527Z" fill="#E22A30"/>
<path d="M55.6934 73.6069C30.5877 73.6069 10.3877 91.937 10.3877 114.277C10.3877 116.282 12.1191 118 14.1391 118C16.1591 118 17.8906 116.282 17.8906 114.277C17.8906 95.9467 34.9163 81.0535 55.6934 81.0535C76.4705 81.0535 93.4963 95.9467 93.4963 114.277C93.4963 116.282 95.2277 118 97.2477 118C99.2677 118 100.999 116.282 100.999 114.277C100.999 91.6506 80.5106 73.6069 55.6934 73.6069Z" fill="#E22A30"/>
<path d="M11.5429 2.57715C9.23436 4.582 8.08008 7.44608 8.08008 10.5966V35.8005C8.08008 42.1014 13.2744 47.2568 19.6229 47.2568C25.9715 47.2568 31.1658 42.1014 31.1658 35.8005V19.7616L11.5429 2.57715Z" fill="white"/>
<path d="M89.4573 2.57715L70.123 19.7616V36.0869C70.123 42.3878 75.3173 47.5432 81.6659 47.5432C88.0145 47.5432 93.2088 42.3878 93.2088 36.0869V10.5966C92.9202 7.44608 91.4773 4.582 89.4573 2.57715Z" fill="white"/>
<path d="M50.4991 71.0288C25.3934 71.0288 5.19336 89.0725 5.19336 111.699C5.19336 113.704 6.92479 115.422 8.94479 115.422C10.9648 115.422 12.6962 113.704 12.6962 111.699C12.6962 93.3686 29.7219 78.4754 50.4991 78.4754C71.2762 78.4754 88.3019 93.3686 88.3019 111.699C88.3019 113.704 90.0334 115.422 92.0534 115.422C94.0734 115.422 95.8048 113.704 95.8048 111.699C95.8048 89.0725 75.6048 71.0288 50.4991 71.0288Z" fill="white"/>
</g>
<defs>
<clipPath id="clip0">
<rect width="101" height="118" fill="white"/>
</clipPath>
</defs>
</svg>
