<svg width="101" height="125" viewBox="0 0 101 125" fill="none" xmlns="http://www.w3.org/2000/svg">
<path d="M25.9715 37.5289C25.9715 43.8799 20.7772 49.0762 14.4286 49.0762C8.08003 49.0762 2.88574 43.8799 2.88574 37.5289V11.5473C2.88574 5.1963 8.08003 0 14.4286 0C20.7772 0 25.9715 5.1963 25.9715 11.5473V37.5289Z" fill="#10BF34"/>
<path d="M88.3025 37.5289C88.3025 43.8799 83.1082 49.0762 76.7597 49.0762C70.4111 49.0762 65.2168 43.8799 65.2168 37.5289V11.5473C65.2168 5.1963 70.4111 0 76.7597 0C83.1082 0 88.3025 5.1963 88.3025 11.5473V37.5289Z" fill="#10BF34"/>
<path d="M45.3057 119.804C20.4886 119.804 0 101.328 0 78.8105C0 76.7897 1.73143 75.0576 3.75143 75.0576C5.77143 75.0576 7.50286 76.7897 7.50286 78.8105C7.50286 97.2863 24.5286 112.298 45.3057 112.298C66.0829 112.298 83.1086 97.2863 83.1086 78.8105C83.1086 76.7897 84.84 75.0576 86.86 75.0576C88.88 75.0576 90.6114 76.7897 90.6114 78.8105C90.9 101.328 70.4114 119.804 45.3057 119.804Z" fill="#10BF34"/>
<path d="M35.783 42.4366C35.783 48.7876 30.5887 53.9839 24.2401 53.9839C17.8915 53.9839 12.6973 48.7876 12.6973 42.4366V16.4551C12.6973 10.104 17.8915 4.90771 24.2401 4.90771C30.5887 4.90771 35.783 10.104 35.783 16.4551V42.4366Z" fill="#E22A30"/>
<path d="M98.114 42.4366C98.114 48.7876 92.9197 53.9839 86.5712 53.9839C80.2226 53.9839 75.0283 48.7876 75.0283 42.4366V16.4551C75.0283 10.104 80.2226 4.90771 86.5712 4.90771C92.9197 4.90771 98.114 10.104 98.114 16.4551V42.4366Z" fill="#E22A30"/>
<path d="M55.6934 125C30.5877 125 10.3877 106.524 10.3877 84.0068C10.3877 81.986 12.1191 80.2539 14.1391 80.2539C16.1591 80.2539 17.8906 81.986 17.8906 84.0068C17.8906 102.483 34.9163 117.494 55.6934 117.494C76.4705 117.494 93.4963 102.483 93.4963 84.0068C93.4963 81.986 95.2277 80.2539 97.2477 80.2539C99.2677 80.2539 100.999 81.986 100.999 84.0068C100.999 106.524 80.5106 125 55.6934 125Z" fill="#E22A30"/>
<path d="M30.8777 39.838C30.8777 46.189 25.6834 51.3853 19.3348 51.3853C12.9863 51.3853 7.79199 46.189 7.79199 39.838V13.8564C7.79199 7.50539 12.9863 2.30908 19.3348 2.30908C25.6834 2.30908 30.8777 7.50539 30.8777 13.8564V39.838Z" fill="white"/>
<path d="M93.2088 39.838C93.2088 46.189 88.0145 51.3853 81.6659 51.3853C75.3173 51.3853 70.123 46.189 70.123 39.838V13.8564C70.123 7.50539 75.3173 2.30908 81.6659 2.30908C88.0145 2.30908 93.2088 7.50539 93.2088 13.8564V39.838Z" fill="white"/>
<path d="M50.4991 122.402C25.3934 122.402 5.19336 103.926 5.19336 81.4087C5.19336 79.3879 6.92479 77.6558 8.94479 77.6558C10.9648 77.6558 12.6962 79.3879 12.6962 81.4087C12.6962 99.8844 29.7219 114.896 50.4991 114.896C71.2762 114.896 88.3019 99.8844 88.3019 81.4087C88.3019 79.3879 90.0334 77.6558 92.0534 77.6558C94.0734 77.6558 95.8048 79.3879 95.8048 81.4087C95.8048 103.926 75.6048 122.402 50.4991 122.402Z" fill="white"/>
</svg>
