<svg width="135" height="103" viewBox="0 0 135 103" fill="none" xmlns="http://www.w3.org/2000/svg">
<g clip-path="url(#clip0)">
<path d="M119.809 30.9279H83.1214C81.1151 30.9279 79.3953 29.7929 78.5354 28.0904C77.6756 26.3879 77.9622 24.118 79.3953 22.6992L98.0259 1.70197C99.7456 -0.284251 103.185 -0.567998 105.191 1.13448C107.198 2.83696 107.484 6.24192 105.765 8.22815L94.5864 20.9967H120.096C122.962 20.9967 125.255 23.2667 125.255 26.1042C125.255 28.9416 122.389 30.9279 119.809 30.9279Z" fill="#10BF34"/>
<path d="M41.8471 30.9288H5.15924C2.29299 30.9288 0 28.6588 0 25.8214C0 22.9839 2.29299 20.7139 5.15924 20.7139H30.6688L19.4904 8.22909C17.4841 6.24286 17.7707 3.12165 19.7771 1.13542C21.7834 -0.567055 24.9363 -0.567055 26.9427 1.70292L45.5732 22.7002C47.0064 24.1189 47.293 26.3889 46.4331 28.0913C45.5732 29.7938 43.8535 30.9288 41.8471 30.9288Z" fill="#10BF34"/>
<path d="M98.0247 98.1762C96.5916 98.1762 95.1585 97.6087 94.2986 96.4737L80.254 80.3002L66.2094 96.4737C65.3496 97.6087 63.9164 98.1762 62.4833 98.1762C61.0502 98.1762 59.6171 97.6087 58.7572 96.4737L44.7126 80.5839L30.3814 96.4737C29.5215 97.6087 28.0884 98.1762 26.6553 98.1762C25.2222 98.1762 23.7891 97.6087 22.9292 96.4737L5.15847 76.3277C3.43873 74.3415 3.43873 71.2203 5.73172 69.2341C7.73809 67.5316 10.891 67.5316 12.8973 69.8016L26.9419 85.6914L40.9865 69.8016C41.8464 68.6666 43.2795 68.0991 44.7126 68.0991C46.1457 68.0991 47.5789 68.6666 48.4387 69.8016L62.4833 85.6914L76.5279 69.8016C77.3878 68.6666 78.8209 68.0991 80.254 68.0991C81.6871 68.0991 83.1203 68.6666 83.9801 69.8016L98.0247 85.6914L112.069 69.8016C113.789 67.8153 117.229 67.5316 119.235 69.2341C121.241 70.9365 121.528 74.3415 119.808 76.3277L101.751 96.4737C100.891 97.325 99.4579 98.1762 98.0247 98.1762Z" fill="#10BF34"/>
<path d="M129.841 36.0363H93.1527C91.1463 36.0363 89.4266 34.9013 88.5667 33.1988C87.7068 31.4963 87.9934 29.2264 89.4266 27.8076L108.057 6.81037C109.777 4.82415 113.216 4.5404 115.223 6.24288C117.229 7.94536 117.516 11.3503 115.796 13.3365L104.618 26.1051H130.127C132.993 26.1051 135.286 28.3751 135.286 31.2126C135 33.7663 132.707 36.0363 129.841 36.0363Z" fill="#E22A30"/>
<path d="M51.8784 36.0362H15.1905C12.3242 36.0362 10.0312 33.7663 10.0312 30.9288C10.0312 28.0913 12.3242 25.8214 15.1905 25.8214H40.7L29.5217 13.0528C27.802 11.3503 27.802 7.94533 30.0949 6.24285C32.1013 4.54037 35.2542 4.54037 37.2606 6.81034L55.8911 27.8076C57.3242 29.2263 57.6109 31.4963 56.751 33.1988C55.6045 34.9013 53.8848 36.0362 51.8784 36.0362Z" fill="#E22A30"/>
<path d="M108.058 103C106.625 103 105.192 102.432 104.332 101.297L90.2877 85.4076L76.2431 101.297C75.3832 102.432 73.9501 103 72.517 103C71.0839 103 69.6508 102.432 68.7909 101.297L54.7463 85.4076L40.7017 101.297C39.8418 102.432 38.4087 103 36.9756 103C35.5425 103 34.1094 102.432 33.2495 101.297L15.4788 81.1515C13.759 79.1652 13.759 76.044 16.052 74.0578C18.0584 72.3553 21.2113 72.3553 23.2176 74.6253L37.2622 90.5151L51.3068 74.6253C52.1667 73.4903 53.5998 72.9228 55.0329 72.9228C56.4661 72.9228 57.8992 73.4903 58.759 74.6253L72.8036 90.5151L86.8482 74.6253C87.7081 73.4903 89.1412 72.9228 90.5743 72.9228C92.0075 72.9228 93.4406 73.4903 94.3004 74.6253L108.345 90.5151L122.39 74.6253C124.109 72.6391 127.549 72.3553 129.555 74.0578C131.562 75.7603 131.848 79.1652 130.128 81.1515L112.358 101.297C110.925 102.432 109.778 103 108.058 103Z" fill="#E22A30"/>
<path d="M124.682 33.4816H87.9945C85.9881 33.4816 84.2684 32.3466 83.4085 30.6441C82.5486 28.9416 82.8352 26.6717 84.2684 25.2529L102.899 4.25569C104.619 2.26946 108.058 1.98571 110.065 3.68819C112.071 5.39067 112.358 8.79563 110.638 10.7819L99.4594 23.5505H124.969C127.835 23.5505 130.128 25.8204 130.128 28.6579C129.842 31.2116 127.549 33.4816 124.682 33.4816Z" fill="white"/>
<path d="M46.7202 33.4815H10.0323C7.16604 33.4815 4.87305 31.2116 4.87305 28.3741C4.87305 25.5366 7.16604 23.2667 10.0323 23.2667H35.5418L24.3635 10.7818C22.6437 8.7956 22.9304 5.67438 24.9367 3.68816C26.9431 1.98568 30.096 1.98568 32.1023 4.25565L50.7329 25.2529C52.166 26.6716 52.4527 28.9416 51.5928 30.6441C50.4463 32.3466 48.7266 33.4815 46.7202 33.4815Z" fill="white"/>
<path d="M103.185 100.447C101.752 100.447 100.319 99.8792 99.4593 98.7442L85.4147 82.8544L71.3701 98.7442C70.5102 99.8792 69.0771 100.447 67.644 100.447C66.2108 100.447 64.7777 99.8792 63.9178 98.7442L49.8733 82.8544L35.8287 98.7442C34.9688 99.8792 33.5357 100.447 32.1026 100.447C30.6694 100.447 29.2363 99.8792 28.3764 98.7442L10.6057 78.5982C8.88599 76.612 8.88599 73.4908 11.179 71.5046C13.1854 69.8021 16.3382 69.8021 18.3446 72.0721L32.3892 87.9619L46.4338 72.0721C47.2936 70.9371 48.7268 70.3696 50.1599 70.3696C51.593 70.3696 53.0261 70.9371 53.886 72.0721L67.9306 87.9619L81.9752 72.0721C82.835 70.9371 84.2682 70.3696 85.7013 70.3696C87.1344 70.3696 88.5675 70.9371 89.4274 72.0721L103.185 87.9619L117.23 72.0721C118.95 70.0858 122.389 69.8021 124.396 71.5046C126.402 73.207 126.689 76.612 124.969 78.5982L107.198 98.7442C106.052 99.8792 104.618 100.447 103.185 100.447Z" fill="white"/>
</g>
<defs>
<clipPath id="clip0">
<rect width="135" height="103" fill="white"/>
</clipPath>
</defs>
</svg>
