<svg width="95" height="130" viewBox="0 0 95 130" fill="none" xmlns="http://www.w3.org/2000/svg">
<g clip-path="url(#clip0)">
<path d="M22.7432 36.8142C22.7432 43.1416 17.5614 48.3186 11.228 48.3186C4.89471 48.3186 -0.287109 43.1416 -0.287109 36.8142V11.5044C-0.287109 5.17699 4.89471 0 11.228 0C17.5614 0 22.7432 5.17699 22.7432 11.5044V36.8142Z" fill="#10BF34"/>
<path d="M84.6367 36.8142C84.6367 43.1416 79.4549 48.3186 73.1216 48.3186C66.7883 48.3186 61.6064 43.1416 61.6064 36.8142V11.5044C61.6064 5.17699 66.7883 0 73.1216 0C79.4549 0 84.6367 5.17699 84.6367 11.5044V36.8142Z" fill="#10BF34"/>
<path d="M65.0611 124.823C63.6217 124.823 62.4702 124.248 61.6066 123.385L16.1217 77.9429C14.1066 75.9296 14.1066 72.7659 16.1217 70.7526C18.1369 68.7394 21.3035 68.7394 23.3187 70.7526L68.8035 116.195C70.8187 118.208 70.8187 121.372 68.8035 123.385C67.652 124.536 66.5005 124.823 65.0611 124.823Z" fill="#10BF34"/>
<path d="M19.5763 124.823C18.1369 124.823 16.9854 124.248 16.1217 123.385C14.1066 121.372 14.1066 118.208 16.1217 116.195L61.6066 70.7526C63.6217 68.7394 66.7884 68.7394 68.8035 70.7526C70.8187 72.7659 70.8187 75.9296 68.8035 77.9429L23.0308 123.385C22.1672 124.536 21.0157 124.823 19.5763 124.823Z" fill="#10BF34"/>
<path d="M32.8184 41.9914C32.8184 48.3189 27.6366 53.4958 21.3032 53.4958C14.9699 53.4958 9.78809 48.3189 9.78809 41.9914V16.3941C9.78809 10.0666 14.9699 4.88965 21.3032 4.88965C27.6366 4.88965 32.8184 10.0666 32.8184 16.3941V41.9914Z" fill="#E22A30"/>
<path d="M95 41.9914C95 48.3189 89.8182 53.4958 83.4849 53.4958C77.1515 53.4958 71.9697 48.3189 71.9697 41.9914V16.3941C71.9697 10.0666 77.1515 4.88965 83.4849 4.88965C89.8182 4.88965 95 10.0666 95 16.3941V41.9914Z" fill="#E22A30"/>
<path d="M75.4242 130C73.9848 130 72.8333 129.424 71.9696 128.562L26.1969 82.8316C24.1818 80.8183 24.1818 77.6546 26.1969 75.6413C28.2121 73.628 31.3787 73.628 33.3939 75.6413L78.8787 121.084C80.8939 123.097 80.8939 126.261 78.8787 128.274C78.0151 129.424 76.5757 130 75.4242 130Z" fill="#E22A30"/>
<path d="M29.6515 130C28.2121 130 27.0605 129.424 26.1969 128.562C24.1818 126.548 24.1818 123.385 26.1969 121.371L71.6818 75.9289C73.6969 73.9156 76.8636 73.9156 78.8787 75.9289C80.8939 77.9422 80.8939 81.1059 78.8787 83.1192L33.3939 128.562C32.2424 129.424 31.0908 130 29.6515 130Z" fill="#E22A30"/>
<path d="M27.9248 39.4025C27.9248 45.73 22.743 50.907 16.4097 50.907C10.0763 50.907 4.89453 45.73 4.89453 39.4025V13.8052C4.89453 7.47777 10.0763 2.30078 16.4097 2.30078C22.743 2.30078 27.9248 7.47777 27.9248 13.8052V39.4025Z" fill="white"/>
<path d="M89.8184 39.403C89.8184 45.7305 84.6366 50.9075 78.3032 50.9075C71.9699 50.9075 66.7881 45.7305 66.7881 39.403V14.0933C66.7881 7.76586 71.9699 2.58887 78.3032 2.58887C84.6366 2.58887 89.8184 7.76586 89.8184 14.0933V39.403Z" fill="white"/>
<path d="M70.2435 127.412C68.8041 127.412 67.6526 126.837 66.789 125.974L21.0162 80.5313C19.0011 78.518 19.0011 75.3543 21.0162 73.341C23.0314 71.3277 26.1981 71.3277 28.2132 73.341L73.6981 118.783C75.7132 120.797 75.7132 123.96 73.6981 125.974C72.8344 127.124 71.6829 127.412 70.2435 127.412Z" fill="white"/>
<path d="M24.7579 127.412C23.3185 127.412 22.167 126.837 21.3034 125.974C19.2882 123.96 19.2882 120.797 21.3034 118.783L66.7882 73.341C68.8034 71.3277 71.97 71.3277 73.9852 73.341C76.0003 75.3543 76.0003 78.518 73.9852 80.5313L28.2124 125.974C27.3488 127.124 25.9094 127.412 24.7579 127.412Z" fill="white"/>
</g>
<defs>
<clipPath id="clip0">
<rect width="95" height="130" fill="white"/>
</clipPath>
</defs>
</svg>
