<svg width="134" height="122" viewBox="0 0 134 122" fill="none" xmlns="http://www.w3.org/2000/svg">
<g clip-path="url(#clip0)">
<path d="M64.1255 116.808C89.1427 116.808 109.271 98.3499 109.271 75.8534C109.271 73.8345 107.546 72.104 105.533 72.104C103.52 72.104 101.795 73.8345 101.795 75.8534C101.795 94.312 84.8293 109.31 64.1255 109.31C43.4216 109.31 26.456 94.312 26.456 75.8534C26.456 73.8345 24.7306 72.104 22.7178 72.104C20.7049 72.104 18.9796 73.8345 18.9796 75.8534C18.692 98.3499 39.1083 116.808 64.1255 116.808Z" fill="#10BF34"/>
<path d="M0.00211742 15.5751C-0.285436 11.2489 0.864779 7.21104 3.45276 4.32688C5.75319 1.73114 8.91628 0.289056 12.3669 0.000639964C17.2553 -0.287776 20.4184 2.30797 22.1437 4.03847C23.8691 2.30797 27.3197 -0.287776 31.9206 0.000639964C35.3712 0.289056 38.5343 1.73114 40.8347 4.32688C43.4227 7.21104 44.5729 11.2489 44.2854 15.5751C43.7103 23.6508 32.7832 34.899 23.0064 40.6673C22.7189 40.9557 22.4313 40.9557 22.1437 40.9557C21.8562 40.9557 21.5686 40.9557 21.2811 40.6673C11.5043 35.1874 0.864778 23.6508 0.00211742 15.5751ZM123.938 15.5751C123.363 23.6508 112.436 34.899 102.659 40.6673C102.371 40.9557 102.084 40.9557 101.796 40.9557C101.509 40.9557 101.221 40.9557 100.933 40.6673C91.1566 34.899 80.2296 23.3623 79.6545 15.5751C79.3669 11.2489 80.5171 7.21104 83.1051 4.32688C85.4055 1.73114 88.5686 0.000639964 92.0193 0.000639964C96.9077 -0.287776 100.071 2.30797 101.796 4.03847C103.521 2.30797 106.685 -0.287776 111.573 0.000639964C115.024 0.289056 118.187 1.73114 120.487 4.32688C123.075 7.21104 124.225 11.2489 123.938 15.5751Z" fill="#10BF34"/>
<path d="M74.1899 122C99.207 122 119.336 103.541 119.336 81.0448C119.336 79.0259 117.61 77.2954 115.598 77.2954C113.585 77.2954 111.859 79.0259 111.859 81.0448C111.859 99.5035 94.8937 114.501 74.1899 114.501C53.486 114.501 36.5203 99.5035 36.5203 81.0448C36.5203 79.0259 34.795 77.2954 32.7821 77.2954C30.7693 77.2954 29.0439 79.0259 29.0439 81.0448C29.0439 103.541 49.1727 122 74.1899 122Z" fill="#E22A30"/>
<path d="M10.0656 20.7655C9.77804 16.4393 10.9283 12.4015 13.5162 9.51731C15.8167 6.92157 18.9798 5.19107 22.4304 5.19107C27.3188 4.90265 30.4819 7.4984 32.2072 9.2289C33.9325 7.4984 37.0956 4.90265 41.9841 5.19107C45.4347 5.47949 48.5978 6.92157 50.8982 9.51731C53.4862 12.4015 54.6364 16.4393 54.3489 20.7655C53.7737 28.8412 42.8467 40.0894 33.0699 45.8577C32.7823 46.1462 32.4948 46.1462 32.2072 46.1462C31.9197 46.1462 31.6321 46.1462 31.3446 45.8577C21.8553 40.0894 10.9283 28.5528 10.0656 20.7655ZM134.001 20.7655C133.426 28.8412 122.499 40.0894 112.722 45.8577C112.435 46.1462 112.147 46.1462 111.86 46.1462C111.572 46.1462 111.284 46.1462 110.997 45.8577C101.22 40.0894 90.2931 28.5528 89.718 20.7655C89.4304 16.4393 90.5806 12.4015 93.1686 9.51731C95.469 6.92157 98.6321 5.19107 102.083 5.19107C106.971 4.90265 110.134 7.4984 111.86 9.2289C113.585 7.4984 116.748 4.90265 121.636 5.19107C125.087 5.47949 128.25 6.92157 130.551 9.51731C133.139 12.4015 134.289 16.4393 134.001 20.7655Z" fill="#E22A30"/>
<path d="M69.0141 119.404C94.0313 119.404 114.16 100.946 114.16 78.4491C114.16 76.4302 112.435 74.6997 110.422 74.6997C108.409 74.6997 106.684 76.4302 106.684 78.4491C106.684 96.9077 89.718 111.905 69.0141 111.905C48.3102 111.905 31.3446 96.9077 31.3446 78.4491C31.3446 76.4302 29.6192 74.6997 27.6064 74.6997C25.5935 74.6997 23.8682 76.4302 23.8682 78.4491C23.8682 100.946 44.2845 119.404 69.0141 119.404Z" fill="white"/>
<path d="M5.17692 18.1698C4.88937 13.8436 6.03958 9.80577 8.62757 6.92161C10.928 4.32586 14.0911 2.59537 17.5417 2.59537C22.4301 2.30695 25.5932 4.9027 27.3186 6.63319C29.0439 4.9027 32.207 2.30695 37.0954 2.59537C40.546 2.88378 43.7091 4.32586 46.0095 6.92161C48.5975 9.80577 49.7477 13.8436 49.4602 18.1698C48.8851 26.2455 37.958 37.4937 28.1812 43.262C27.8937 43.5504 27.6061 43.5504 27.3186 43.5504C27.031 43.5504 26.7434 43.5504 26.4559 43.262C16.6791 37.4937 5.75203 26.2455 5.17692 18.1698ZM128.825 18.1698C128.25 26.2455 117.323 37.4937 107.546 43.262C107.258 43.5504 106.971 43.5504 106.683 43.5504C106.396 43.5504 106.108 43.5504 105.821 43.262C96.0439 37.4937 85.1168 25.9571 84.5417 18.1698C84.2542 13.8436 85.4044 9.80577 87.9924 6.92161C90.2928 4.32586 93.4559 2.59537 96.9066 2.59537C101.795 2.30695 104.958 4.9027 106.683 6.63319C108.409 4.9027 111.572 2.30695 116.46 2.59537C119.911 2.88378 123.074 4.32586 125.374 6.92161C127.962 9.80577 129.113 13.8436 128.825 18.1698Z" fill="white"/>
</g>
<defs>
<clipPath id="clip0">
<rect width="134" height="122" fill="white"/>
</clipPath>
</defs>
</svg>
