<svg width="254" height="214" viewBox="0 0 254 214" fill="none" xmlns="http://www.w3.org/2000/svg">
<path d="M238.168 68.6634H212.782C211.356 68.6634 210.215 67.519 210.215 66.0885C210.215 64.6581 211.356 63.5137 212.782 63.5137H238.168C239.594 63.5137 240.735 64.6581 240.735 66.0885C240.735 67.519 239.594 68.6634 238.168 68.6634Z" fill="#E22A30"/>
<path d="M241.875 108.144H221.053C219.627 108.144 218.486 107 218.486 105.57C218.486 104.139 219.627 102.995 221.053 102.995H241.875C243.301 102.995 244.442 104.139 244.442 105.57C244.442 107 243.301 108.144 241.875 108.144Z" fill="#E22A30"/>
<path d="M249.005 115.583H238.452C237.026 115.583 235.885 114.438 235.885 113.008C235.885 111.577 237.026 110.433 238.452 110.433H249.005C250.432 110.433 251.572 111.577 251.572 113.008C251.572 114.725 250.432 115.583 249.005 115.583Z" fill="#E22A30"/>
<path d="M231.037 46.9198H226.758C225.332 46.9198 224.191 45.7754 224.191 44.3449C224.191 42.9144 225.332 41.77 226.758 41.77H231.037C232.463 41.77 233.604 42.9144 233.604 44.3449C233.319 45.7754 232.178 46.9198 231.037 46.9198Z" fill="#E22A30"/>
<path d="M218.772 46.9198H203.655C202.229 46.9198 201.088 45.7754 201.088 44.3449C201.088 42.9144 202.229 41.77 203.655 41.77H218.772C220.198 41.77 221.339 42.9144 221.339 44.3449C221.339 45.7754 220.198 46.9198 218.772 46.9198Z" fill="#E22A30"/>
<path d="M19.11 124.452H4.27802C2.85186 124.452 1.71094 123.308 1.71094 121.877C1.71094 120.447 2.85186 119.302 4.27802 119.302H19.3953C20.8214 119.302 21.9623 120.447 21.9623 121.877C21.6771 123.308 20.5362 124.452 19.11 124.452Z" fill="#10BF34"/>
<path d="M27.0964 74.3851H12.2643C10.8382 74.3851 9.69727 73.2407 9.69727 71.8102C9.69727 70.3797 10.8382 69.2354 12.2643 69.2354H27.3816C28.8078 69.2354 29.9487 70.3797 29.9487 71.8102C29.6634 73.5268 28.5225 74.3851 27.0964 74.3851Z" fill="#10BF34"/>
<path d="M51.0568 51.2113H19.6813C18.2552 51.2113 17.1143 50.0669 17.1143 48.6364C17.1143 47.2059 18.2552 46.0615 19.6813 46.0615H51.0568C52.4829 46.0615 53.6238 47.2059 53.6238 48.6364C53.6238 50.0669 52.4829 51.2113 51.0568 51.2113Z" fill="#10BF34"/>
<path d="M42.7842 171.658H26.5261C25.0999 171.658 23.959 170.514 23.959 169.083C23.959 167.653 25.0999 166.508 26.5261 166.508H42.7842C44.2104 166.508 45.3513 167.653 45.3513 169.083C45.3513 170.514 44.2104 171.658 42.7842 171.658Z" fill="#10BF34"/>
<path d="M16.828 171.658H12.2643C10.8382 171.658 9.69727 170.514 9.69727 169.083C9.69727 167.653 10.8382 166.508 12.2643 166.508H17.1133C18.5394 166.508 19.6804 167.653 19.6804 169.083C19.3951 170.514 18.2542 171.658 16.828 171.658Z" fill="#10BF34"/>
<path d="M239.879 161.644H211.071C209.645 161.644 208.504 160.5 208.504 159.069C208.504 157.639 209.645 156.495 211.071 156.495H239.879C241.305 156.495 242.446 157.639 242.446 159.069C242.446 160.5 241.305 161.644 239.879 161.644Z" fill="#E22A30"/>
<path d="M226.188 172.23H203.94C202.514 172.23 201.373 171.085 201.373 169.655C201.373 168.224 202.514 167.08 203.94 167.08H226.188C227.614 167.08 228.755 168.224 228.755 169.655C228.755 171.085 227.614 172.23 226.188 172.23Z" fill="#E22A30"/>
<path d="M121.508 208.85C64.1763 208.85 17.3984 162.217 17.3984 104.425C17.3984 46.9198 64.1763 0 121.508 0C178.839 0 225.617 46.9198 225.617 104.425C225.617 162.217 178.839 208.85 121.508 208.85ZM121.508 7.4385C68.1696 7.4385 24.8144 50.9251 24.8144 104.425C24.8144 157.925 68.1696 201.412 121.508 201.412C174.846 201.412 218.201 157.925 218.201 104.425C218.201 50.9251 174.846 7.4385 121.508 7.4385Z" fill="#10BF34"/>
<path d="M131.491 214C74.1597 214 27.3818 167.08 27.3818 109.575C27.3818 51.7831 74.1597 5.14941 131.491 5.14941C188.823 5.14941 235.601 52.0692 235.601 109.575C235.886 167.08 189.108 214 131.491 214ZM131.491 12.5879C78.153 12.5879 34.7978 56.0745 34.7978 109.575C34.7978 163.075 78.153 206.561 131.491 206.561C184.829 206.561 228.185 163.075 228.185 109.575C228.185 56.0745 184.829 12.5879 131.491 12.5879Z" fill="#E22A30"/>
<path d="M126.644 211.425C69.3121 211.425 22.5342 164.505 22.5342 107C22.5342 49.4945 69.3121 2.57471 126.644 2.57471C183.975 2.57471 230.753 49.4945 230.753 107C230.753 164.505 183.975 211.425 126.644 211.425ZM126.644 10.0132C73.3053 10.0132 29.9502 53.4998 29.9502 107C29.9502 160.5 73.3053 203.986 126.644 203.986C179.982 203.986 223.337 160.5 223.337 107C223.337 53.4998 179.982 10.0132 126.644 10.0132Z" fill="white"/>
<path d="M225.902 58.6492H202.513C201.087 58.6492 199.946 57.5049 199.946 56.0744C199.946 54.6439 201.087 53.4995 202.513 53.4995H225.902C227.328 53.4995 228.469 54.6439 228.469 56.0744C228.469 57.5049 227.328 58.6492 225.902 58.6492Z" fill="white"/>
<path d="M39.9322 137.326H10.5534C9.12725 137.326 7.98633 136.181 7.98633 134.751C7.98633 133.32 9.12725 132.176 10.5534 132.176H39.9322C41.3584 132.176 42.4993 133.32 42.4993 134.751C42.4993 136.181 41.3584 137.326 39.9322 137.326Z" fill="white"/>
<path d="M75.3007 39.7674H48.489C47.0628 39.7674 45.9219 38.623 45.9219 37.1925C45.9219 35.7621 47.0628 34.6177 48.489 34.6177H75.3007C76.7268 34.6177 77.8678 35.7621 77.8678 37.1925C77.8678 38.623 76.7268 39.7674 75.3007 39.7674Z" fill="white"/>
<path d="M43.3561 86.9734H13.6921C12.2659 86.9734 11.125 85.8291 11.125 84.3986C11.125 82.9681 12.2659 81.8237 13.6921 81.8237H43.0709C44.497 81.8237 45.638 82.9681 45.638 84.3986C45.9232 85.8291 44.7823 86.9734 43.3561 86.9734Z" fill="white"/>
<path d="M47.6333 31.7562H37.0798C35.6536 31.7562 34.5127 30.6118 34.5127 29.1813C34.5127 27.7508 35.6536 26.6064 37.0798 26.6064H47.6333C49.0595 26.6064 50.2004 27.7508 50.2004 29.1813C50.2004 30.6118 49.0595 31.7562 47.6333 31.7562Z" fill="white"/>
<path d="M215.064 186.534H181.692C180.266 186.534 179.125 185.39 179.125 183.96C179.125 182.529 180.266 181.385 181.692 181.385H214.779C216.205 181.385 217.346 182.529 217.346 183.96C217.631 185.39 216.49 186.534 215.064 186.534Z" fill="white"/>
<path d="M241.02 96.4144H216.775C215.349 96.4144 214.208 95.27 214.208 93.8395C214.208 92.409 215.349 91.2646 216.775 91.2646H241.02C242.446 91.2646 243.587 92.409 243.587 93.8395C243.587 95.27 242.446 96.4144 241.02 96.4144Z" fill="white"/>
<path d="M250.433 140.473H206.508C205.081 140.473 203.94 139.329 203.94 137.898C203.94 136.468 205.081 135.323 206.508 135.323H250.718C252.144 135.323 253.285 136.468 253.285 137.898C253 139.329 251.859 140.473 250.433 140.473Z" fill="white"/>
<path d="M228.185 186.534H224.192C222.766 186.534 221.625 185.39 221.625 183.96C221.625 182.529 222.766 181.385 224.192 181.385H228.185C229.611 181.385 230.752 182.529 230.752 183.96C230.752 185.39 229.611 186.534 228.185 186.534Z" fill="white"/>
<path d="M234.746 149.342H223.337C221.91 149.342 220.77 148.198 220.77 146.767C220.77 145.337 221.91 144.192 223.337 144.192H234.746C236.172 144.192 237.313 145.337 237.313 146.767C237.313 147.912 236.172 149.342 234.746 149.342Z" fill="white"/>
<path d="M33.3722 96.4144H16.8288C15.4026 96.4144 14.2617 95.27 14.2617 93.8395C14.2617 92.409 15.4026 91.2646 16.8288 91.2646H33.3722C34.7984 91.2646 35.9393 92.409 35.9393 93.8395C35.9393 95.27 34.7984 96.4144 33.3722 96.4144Z" fill="white"/>
<path d="M39.9318 161.644H23.3884C21.9622 161.644 20.8213 160.499 20.8213 159.069C20.8213 157.639 21.9622 156.494 23.3884 156.494H39.9318C41.3579 156.494 42.4989 157.639 42.4989 159.069C42.4989 160.499 41.3579 161.644 39.9318 161.644Z" fill="white"/>
<path d="M205.937 26.3206H183.404C181.978 26.3206 180.837 25.1762 180.837 23.7458C180.837 22.3153 181.978 21.1709 183.404 21.1709H205.937C207.363 21.1709 208.504 22.3153 208.504 23.7458C208.504 25.1762 207.363 26.3206 205.937 26.3206Z" fill="white"/>
<path d="M67.0285 192.829H39.0759C37.6497 192.829 36.5088 191.685 36.5088 190.254C36.5088 188.824 37.6497 187.679 39.0759 187.679H67.0285C68.4547 187.679 69.5956 188.824 69.5956 190.254C69.5956 191.685 68.4547 192.829 67.0285 192.829Z" fill="white"/>
<path d="M5.98985 87.5452H2.56708C1.14092 87.5452 0 86.4009 0 84.9704C0 83.5399 1.14092 82.3955 2.56708 82.3955H5.98985C7.41601 82.3955 8.55693 83.5399 8.55693 84.9704C8.55693 86.1148 7.41601 87.5452 5.98985 87.5452Z" fill="white"/>
</svg>
