<svg width="490" height="195" viewBox="0 0 490 195" fill="none" xmlns="http://www.w3.org/2000/svg">
<path d="M186.202 186.999L183.73 184.527L181.31 186.946L180.473 186.109L182.892 183.689L180.42 181.217L181.204 180.433L183.677 182.905L186.109 180.472L186.947 181.31L184.514 183.743L186.987 186.215L186.202 186.999Z" fill="#2973EA"/>
<path d="M283.858 56.7317L281.386 54.2592L278.967 56.6785L278.129 55.8411L280.549 53.4218L278.076 50.9493L278.86 50.165L281.333 52.6375L283.765 50.2049L284.603 51.0423L282.17 53.4749L284.643 55.9474L283.858 56.7317Z" fill="#10BF34"/>
<path d="M8.7373 0.65918L10.4668 1.5127L1.86426 18.8301L0.134766 17.9766L8.7373 0.65918ZM18.1035 10.6094L13.7012 6.21826L15.0376 4.85938L20.7876 10.6094L15.0376 16.3594L13.7012 15.0117L18.1035 10.6094Z" fill="#FE0C13"/>
<path d="M177.041 24.189H175.311C174.854 24.189 174.431 24.1104 174.042 23.9531C173.66 23.8034 173.331 23.5863 173.054 23.3018C172.784 23.0173 172.571 22.6841 172.414 22.3022C172.264 21.9204 172.189 21.4974 172.189 21.0332V16.249C172.189 15.6351 172.013 15.2383 171.661 15.0586C171.309 14.8714 170.785 14.7778 170.089 14.7778V12.689C170.785 12.689 171.309 12.6029 171.661 12.4307C172.013 12.251 172.189 11.8467 172.189 11.2178V6.43359C172.189 5.9694 172.264 5.54639 172.414 5.16455C172.571 4.78271 172.784 4.44954 173.054 4.16504C173.331 3.88053 173.66 3.65967 174.042 3.50244C174.431 3.33773 174.854 3.25537 175.311 3.25537H177.041V5.34424H175.311C174.914 5.34424 174.641 5.4266 174.491 5.59131C174.349 5.74854 174.278 6.0293 174.278 6.43359V11.2178C174.278 11.9215 174.061 12.4943 173.626 12.936C173.2 13.3703 172.713 13.6398 172.167 13.7446C172.444 13.7896 172.706 13.8794 172.953 14.0142C173.207 14.1414 173.428 14.3174 173.615 14.542C173.81 14.7591 173.967 15.0137 174.087 15.3057C174.214 15.5977 174.278 15.9121 174.278 16.249V21.0332C174.278 21.43 174.349 21.707 174.491 21.8643C174.641 22.029 174.914 22.1113 175.311 22.1113H177.041V24.189Z" fill="#2074FB"/>
<path d="M219 92H225V94H219V92Z" fill="white"/>
<path d="M0 105H6V106H0V105Z" fill="white"/>
<path d="M485.784 16.8782L483.312 14.4057L480.892 16.825L480.055 15.9876L482.474 13.5683L480.002 11.0958L480.786 10.3115L483.259 12.784L485.691 10.3514L486.529 11.1888L484.096 13.6214L486.569 16.0939L485.784 16.8782Z" fill="#FE0C13"/>
<path d="M448.737 176.659L450.467 177.513L441.864 194.83L440.135 193.977L448.737 176.659ZM458.104 186.609L453.701 182.218L455.038 180.859L460.788 186.609L455.038 192.359L453.701 191.012L458.104 186.609Z" fill="#2074FB"/>
<path d="M392 17H398V19H392V17Z" fill="white"/>
</svg>
