<svg width="275" height="682" viewBox="0 0 275 682" fill="none" xmlns="http://www.w3.org/2000/svg">
<path d="M249.035 135.816L246.613 133.394L244.243 135.764L243.422 134.944L245.792 132.573L243.37 130.151L244.138 129.383L246.561 131.805L248.944 129.422L249.764 130.242L247.381 132.626L249.803 135.048L249.035 135.816Z" fill="#2973EA"/>
<path d="M230.035 601.816L227.613 599.394L225.243 601.764L224.422 600.944L226.792 598.573L224.37 596.151L225.138 595.383L227.561 597.805L229.944 595.422L230.764 596.242L228.381 598.626L230.803 601.048L230.035 601.816Z" fill="#10BF34"/>
<path d="M121.513 378.039L119.091 375.617L116.721 377.987L115.901 377.167L118.271 374.797L115.849 372.374L116.617 371.606L119.039 374.028L121.422 371.645L122.243 372.466L119.859 374.849L122.282 377.271L121.513 378.039Z" fill="#FE0C13"/>
<path d="M249.737 0.658997L251.467 1.51251L242.864 18.8299L241.135 17.9764L249.737 0.658997ZM259.104 10.6092L254.701 6.21808L256.038 4.85919L261.788 10.6092L256.038 16.3592L254.701 15.0115L259.104 10.6092Z" fill="#FE0C13"/>
<path d="M21.7373 587.659L23.4668 588.513L14.8643 605.83L13.1348 604.976L21.7373 587.659ZM31.1035 597.609L26.7012 593.218L28.0376 591.859L33.7876 597.609L28.0376 603.359L26.7012 602.012L31.1035 597.609Z" fill="#2074FB"/>
<path d="M9.04053 78.1888H7.31104C6.85433 78.1888 6.43132 78.1102 6.04199 77.9529C5.66016 77.8032 5.33073 77.5861 5.05371 77.3016C4.78418 77.0171 4.5708 76.6839 4.41357 76.3021C4.26383 75.9202 4.18896 75.4972 4.18896 75.033L4.18896 70.2488C4.18896 69.6349 4.01302 69.2381 3.66113 69.0584C3.30924 68.8712 2.78516 68.7776 2.08887 68.7776V66.6888C2.78516 66.6888 3.30924 66.6027 3.66113 66.4305C4.01302 66.2508 4.18896 65.8465 4.18896 65.2176L4.18896 60.4334C4.18896 59.9692 4.26383 59.5462 4.41357 59.1644C4.5708 58.7825 4.78418 58.4494 5.05371 58.1649C5.33073 57.8804 5.66016 57.6595 6.04199 57.5023C6.43132 57.3375 6.85433 57.2552 7.31104 57.2552H9.04053V59.3441H7.31104C6.91423 59.3441 6.64095 59.4264 6.49121 59.5911C6.34896 59.7484 6.27783 60.0291 6.27783 60.4334L6.27783 65.2176C6.27783 65.9214 6.06071 66.4941 5.62646 66.9359C5.19971 67.3701 4.71305 67.6396 4.1665 67.7444C4.44352 67.7894 4.70557 67.8792 4.95264 68.014C5.20719 68.1413 5.42806 68.3172 5.61523 68.5418C5.8099 68.7589 5.96712 69.0135 6.08691 69.3055C6.21419 69.5975 6.27783 69.9119 6.27783 70.2488L6.27783 75.033C6.27783 75.4298 6.34896 75.7068 6.49121 75.8641C6.64095 76.0288 6.91423 76.1111 7.31104 76.1111H9.04053V78.1888Z" fill="#2074FB"/>
<path d="M17 680H23.1376V681.452H17V680Z" fill="white"/>
<path d="M7 7.99982L13.1376 7.99982V9.45223H7V7.99982Z" fill="white"/>
<path d="M150 567H156.138V568.452H150V567Z" fill="white"/>
</svg>
