<svg width="866" height="157" viewBox="0 0 866 157" fill="none" xmlns="http://www.w3.org/2000/svg">
<path d="M411.348 150.548L407.625 146.826L403.983 150.468L402.722 149.208L406.365 145.565L402.642 141.843L403.823 140.662L407.545 144.385L411.208 140.722L412.468 141.983L408.806 145.645L412.528 149.368L411.348 150.548Z" fill="#2973EA"/>
<path d="M591.348 81.5484L587.625 77.8261L583.983 81.4684L582.722 80.2076L586.365 76.5653L582.642 72.843L583.823 71.6623L587.545 75.3846L591.208 71.7223L592.468 72.9831L588.806 76.6454L592.528 80.3677L591.348 81.5484Z" fill="#10BF34"/>
<path d="M860.348 21.5484L856.625 17.8261L852.983 21.4684L851.722 20.2076L855.365 16.5653L851.642 12.843L852.823 11.6623L856.545 15.3846L860.208 11.7223L861.468 12.9831L857.806 16.6454L861.528 20.3677L860.348 21.5484Z" fill="#FE0C13"/>
<path d="M8.7373 0.65918L10.4668 1.5127L1.86426 18.8301L0.134766 17.9766L8.7373 0.65918ZM18.1035 10.6094L13.7012 6.21826L15.0376 4.85938L20.7876 10.6094L15.0376 16.3594L13.7012 15.0117L18.1035 10.6094Z" fill="#FE0C13"/>
<path d="M771.737 135.659L773.467 136.513L764.864 153.83L763.135 152.977L771.737 135.659ZM781.104 145.609L776.701 141.218L778.038 139.859L783.788 145.609L778.038 151.359L776.701 150.012L781.104 145.609Z" fill="#2074FB"/>
<path d="M426.041 27.189H424.311C423.854 27.189 423.431 27.1104 423.042 26.9531C422.66 26.8034 422.331 26.5863 422.054 26.3018C421.784 26.0173 421.571 25.6841 421.414 25.3022C421.264 24.9204 421.189 24.4974 421.189 24.0332V19.249C421.189 18.6351 421.013 18.2383 420.661 18.0586C420.309 17.8714 419.785 17.7778 419.089 17.7778V15.689C419.785 15.689 420.309 15.6029 420.661 15.4307C421.013 15.251 421.189 14.8467 421.189 14.2178V9.43359C421.189 8.9694 421.264 8.54639 421.414 8.16455C421.571 7.78271 421.784 7.44954 422.054 7.16504C422.331 6.88053 422.66 6.65967 423.042 6.50244C423.431 6.33773 423.854 6.25537 424.311 6.25537H426.041V8.34424H424.311C423.914 8.34424 423.641 8.4266 423.491 8.59131C423.349 8.74854 423.278 9.0293 423.278 9.43359V14.2178C423.278 14.9215 423.061 15.4943 422.626 15.936C422.2 16.3703 421.713 16.6398 421.167 16.7446C421.444 16.7896 421.706 16.8794 421.953 17.0142C422.207 17.1414 422.428 17.3174 422.615 17.542C422.81 17.7591 422.967 18.0137 423.087 18.3057C423.214 18.5977 423.278 18.9121 423.278 19.249V24.0332C423.278 24.43 423.349 24.707 423.491 24.8643C423.641 25.029 423.914 25.1113 424.311 25.1113H426.041V27.189Z" fill="#2074FB"/>
<path d="M763 66H772.432V68.232H763V66Z" fill="white"/>
<path d="M522 150H531.432V152.232H522V150Z" fill="white"/>
<path d="M0 154H9.432V156.232H0V154Z" fill="white"/>
</svg>
