<svg width="737" height="157" viewBox="0 0 737 157" fill="none" xmlns="http://www.w3.org/2000/svg">
<path d="M247.347 150.548L243.624 146.826L239.982 150.468L238.721 149.208L242.364 145.565L238.641 141.843L239.822 140.662L243.544 144.385L247.207 140.722L248.467 141.983L244.805 145.645L248.528 149.368L247.347 150.548Z" fill="#2973EA"/>
<path d="M427.347 81.5484L423.624 77.8261L419.982 81.4684L418.721 80.2076L422.364 76.5653L418.641 72.843L419.822 71.6623L423.544 75.3846L427.207 71.7223L428.467 72.9831L424.805 76.6454L428.528 80.3677L427.347 81.5484Z" fill="#10BF34"/>
<path d="M8.7373 0.65918L10.4668 1.5127L1.86426 18.8301L0.134766 17.9766L8.7373 0.65918ZM18.1035 10.6094L13.7012 6.21826L15.0376 4.85938L20.7876 10.6094L15.0376 16.3594L13.7012 15.0117L18.1035 10.6094Z" fill="#FE0C13"/>
<path d="M262.041 27.189H260.311C259.854 27.189 259.431 27.1104 259.042 26.9531C258.66 26.8034 258.331 26.5863 258.054 26.3018C257.784 26.0173 257.571 25.6841 257.414 25.3022C257.264 24.9204 257.189 24.4974 257.189 24.0332V19.249C257.189 18.6351 257.013 18.2383 256.661 18.0586C256.309 17.8714 255.785 17.7778 255.089 17.7778V15.689C255.785 15.689 256.309 15.6029 256.661 15.4307C257.013 15.251 257.189 14.8467 257.189 14.2178V9.43359C257.189 8.9694 257.264 8.54639 257.414 8.16455C257.571 7.78271 257.784 7.44954 258.054 7.16504C258.331 6.88053 258.66 6.65967 259.042 6.50244C259.431 6.33773 259.854 6.25537 260.311 6.25537H262.041V8.34424H260.311C259.914 8.34424 259.641 8.4266 259.491 8.59131C259.349 8.74854 259.278 9.0293 259.278 9.43359V14.2178C259.278 14.9215 259.061 15.4943 258.626 15.936C258.2 16.3703 257.713 16.6398 257.167 16.7446C257.444 16.7896 257.706 16.8794 257.953 17.0142C258.207 17.1414 258.428 17.3174 258.615 17.542C258.81 17.7591 258.967 18.0137 259.087 18.3057C259.214 18.5977 259.278 18.9121 259.278 19.249V24.0332C259.278 24.43 259.349 24.707 259.491 24.8643C259.641 25.029 259.914 25.1113 260.311 25.1113H262.041V27.189Z" fill="#2074FB"/>
<path d="M358 150H367.432V152.232H358V150Z" fill="white"/>
<path d="M0 154H9.432V156.232H0V154Z" fill="white"/>
<path d="M731.347 21.5484L727.624 17.8261L723.982 21.4684L722.721 20.2076L726.364 16.5653L722.641 12.843L723.822 11.6623L727.544 15.3846L731.207 11.7223L732.467 12.9831L728.805 16.6454L732.528 20.3677L731.347 21.5484Z" fill="#FE0C13"/>
<path d="M642.737 135.659L644.467 136.513L635.864 153.83L634.135 152.977L642.737 135.659ZM652.104 145.609L647.701 141.218L649.038 139.859L654.788 145.609L649.038 151.359L647.701 150.012L652.104 145.609Z" fill="#2074FB"/>
<path d="M634 66H643.432V68.232H634V66Z" fill="white"/>
</svg>
