<svg width="1241" height="325" viewBox="0 0 1241 325" fill="none" xmlns="http://www.w3.org/2000/svg">
<path d="M1235.35 247.548L1231.63 243.826L1227.98 247.468L1226.72 246.208L1230.36 242.565L1226.64 238.843L1227.82 237.662L1231.55 241.385L1235.21 237.722L1236.47 238.983L1232.81 242.645L1236.53 246.368L1235.35 247.548Z" fill="#2973EA"/>
<path d="M986.348 44.5484L982.625 40.8261L978.983 44.4684L977.722 43.2076L981.365 39.5653L977.642 35.843L978.823 34.6623L982.545 38.3846L986.208 34.7223L987.468 35.9831L983.806 39.6454L987.528 43.3677L986.348 44.5484Z" fill="#2973EA"/>
<path d="M806.348 167.548L802.625 163.826L798.983 167.468L797.722 166.208L801.365 162.565L797.642 158.843L798.823 157.662L802.545 161.385L806.208 157.722L807.468 158.983L803.806 162.645L807.528 166.368L806.348 167.548Z" fill="#2973EA"/>
<path d="M453.603 17H448.639V14.9111H449.56L448.133 12.7212L446.729 14.9111H447.583V17H442.664V14.9111H444.18L446.527 11.688L444.292 8.6333H442.889V6.5332H447.605V8.6333H446.864L448.133 10.6548L449.425 8.6333H448.594V6.5332H453.355V8.6333H451.997L449.762 11.688L452.109 14.9111H453.603V17ZM464.485 21.189H462.755C462.299 21.189 461.876 21.1104 461.486 20.9531C461.104 20.8034 460.775 20.5863 460.498 20.3018C460.229 20.0173 460.015 19.6841 459.858 19.3022C459.708 18.9204 459.633 18.4974 459.633 18.0332V13.249C459.633 12.6351 459.457 12.2383 459.105 12.0586C458.754 11.8714 458.229 11.7778 457.533 11.7778V9.68896C458.229 9.68896 458.754 9.60286 459.105 9.43066C459.457 9.25098 459.633 8.84668 459.633 8.21777V3.43359C459.633 2.9694 459.708 2.54639 459.858 2.16455C460.015 1.78271 460.229 1.44954 460.498 1.16504C460.775 0.880534 461.104 0.659668 461.486 0.502441C461.876 0.337728 462.299 0.255371 462.755 0.255371H464.485V2.34424H462.755C462.359 2.34424 462.085 2.4266 461.936 2.59131C461.793 2.74854 461.722 3.0293 461.722 3.43359V8.21777C461.722 8.92155 461.505 9.4943 461.071 9.93604C460.644 10.3703 460.157 10.6398 459.611 10.7446C459.888 10.7896 460.15 10.8794 460.397 11.0142C460.652 11.1414 460.872 11.3174 461.06 11.542C461.254 11.7591 461.411 12.0137 461.531 12.3057C461.659 12.5977 461.722 12.9121 461.722 13.249V18.0332C461.722 18.43 461.793 18.707 461.936 18.8643C462.085 19.029 462.359 19.1113 462.755 19.1113H464.485V21.189Z" fill="#2973EA"/>
<path d="M1158 81H1167.43V83.232H1158V81Z" fill="white"/>
<path d="M968 322H977.432V324.232H968V322Z" fill="white"/>
<path d="M798 1H807.432V3.232H798V1Z" fill="white"/>
</svg>
