<svg viewBox="0 0 17 20" fill="none" xmlns="http://www.w3.org/2000/svg">
    <path d="M10.2626 18.4685H9.58887V20.0001H10.2626V18.4685Z" fill="#141315" />
    <path d="M9.56629 18.4685H8.89258V20.0001H9.56629V18.4685Z" fill="#141315" />
    <path d="M8.89344 18.4685H8.21973V20.0001H8.89344V18.4685Z" fill="#141315" />
    <path d="M8.21961 18.4685H7.5459V20.0001H8.21961V18.4685Z" fill="#141315" />
    <path d="M7.52332 18.4685H6.84961V20.0001H7.52332V18.4685Z" fill="#141315" />
    <path d="M6.84949 18.4685H6.17578V20.0001H6.84949V18.4685Z" fill="#141315" />
    <path d="M12.913 18.4685H12.2393V20.0001H12.913V18.4685Z" fill="#141315" />
    <path d="M12.2391 18.4685H11.5654V20.0001H12.2391V18.4685Z" fill="#141315" />
    <path d="M11.5429 18.4685H10.8691V20.0001H11.5429V18.4685Z" fill="#141315" />
    <path d="M10.869 18.4685H10.1953V20.0001H10.869V18.4685Z" fill="#141315" />
    <path d="M10.1952 18.4685H9.52148V20.0001H10.1952V18.4685Z" fill="#141315" />
    <path d="M8.8036 18.4685H8.12988V20.0001H8.8036V18.4685Z" fill="#141315" />
    <path d="M8.12977 18.4685H7.45605V20.0001H8.12977V18.4685Z" fill="#141315" />
    <path d="M7.45594 18.4685H6.78223V20.0001H7.45594V18.4685Z" fill="#141315" />
    <path d="M6.75965 18.4685H6.08594V20.0001H6.75965V18.4685Z" fill="#141315" />
    <path d="M6.08582 18.4685H5.41211V20.0001H6.08582V18.4685Z" fill="#141315" />
    <path d="M5.41199 18.4685H4.73828V20.0001H5.41199V18.4685Z" fill="#141315" />
    <path d="M13.6093 18.446H12.9355V19.9777H13.6093V18.446Z" fill="#141315" />
    <path d="M4.76063 18.446H4.08691V19.9777H4.76063V18.446Z" fill="#141315" />
    <path d="M14.9559 16.9146H14.2822V18.4462H14.9559V16.9146Z" fill="black" />
    <path d="M14.2831 16.9146H13.6094V18.4462H14.2831V16.9146Z" fill="black" />
    <path d="M13.6093 16.9146H12.9355V18.4462H13.6093V16.9146Z" fill="black" />
    <path d="M12.913 16.9146H12.2393V18.4462H12.913V16.9146Z" fill="#E85C30" />
    <path d="M12.2391 16.9146H11.5654V18.4462H12.2391V16.9146Z" fill="#E85C30" />
    <path d="M11.5653 16.9146H10.8916V18.4462H11.5653V16.9146Z" fill="#F19539" />
    <path d="M10.869 16.9146H10.1953V18.4462H10.869V16.9146Z" fill="#F29E3A" />
    <path d="M10.1952 16.9146H9.52148V18.4462H10.1952V16.9146Z" fill="#F19539" />
    <path d="M9.52137 16.9146H8.84766V18.4462H9.52137V16.9146Z" fill="#F19539" />
    <path d="M8.84852 16.9146H8.1748V18.4462H8.84852V16.9146Z" fill="#F19539" />
    <path d="M8.15223 16.9146H7.47852V18.4462H8.15223V16.9146Z" fill="#F19539" />
    <path d="M7.4784 16.9146H6.80469V18.4462H7.4784V16.9146Z" fill="#F19539" />
    <path d="M6.80457 16.9146H6.13086V18.4462H6.80457V16.9146Z" fill="#F19539" />
    <path d="M6.10828 16.9146H5.43457V18.4462H6.10828V16.9146Z" fill="#F29F3A" />
    <path d="M5.43445 16.9146H4.76074V18.4462H5.43445V16.9146Z" fill="#E85C30" />
    <path d="M4.76063 16.9146H4.08691V18.4462H4.76063V16.9146Z" fill="#E85C30" />
    <path d="M4.0868 16.9146H3.41309V18.4462H4.0868V16.9146Z" fill="#E85C30" />
    <path d="M3.39149 16.9146H2.71777V18.4462H3.39149V16.9146Z" fill="black" />
    <path d="M2.71766 16.9146H2.04395V18.4462H2.71766V16.9146Z" fill="black" />
    <path d="M16.3261 15.3828H15.6523V16.9144H16.3261V15.3828Z" fill="black" />
    <path d="M15.6522 15.3828H14.9785V16.9144H15.6522V15.3828Z" fill="#E85C30" />
    <path d="M14.9559 15.3828H14.2822V16.9144H14.9559V15.3828Z" fill="#E85C30" />
    <path d="M14.2831 15.3828H13.6094V16.9144H14.2831V15.3828Z" fill="#E85C30" />
    <path d="M13.6093 15.3828H12.9355V16.9144H13.6093V15.3828Z" fill="#FCD044" />
    <path d="M12.913 15.3828H12.2393V16.9144H12.913V15.3828Z" fill="#FCD044" />
    <path d="M12.2391 15.3828H11.5654V16.9144H12.2391V15.3828Z" fill="#FCD044" />
    <path d="M11.5653 15.3828H10.8916V16.9144H11.5653V15.3828Z" fill="#FCD044" />
    <path d="M10.869 15.3828H10.1953V16.9144H10.869V15.3828Z" fill="#FCD044" />
    <path d="M10.1952 15.3828H9.52148V16.9144H10.1952V15.3828Z" fill="#FCD044" />
    <path d="M9.52137 15.3828H8.84766V16.9144H9.52137V15.3828Z" fill="#FCD044" />
    <path d="M8.84852 15.3828H8.1748V16.9144H8.84852V15.3828Z" fill="#FCD044" />
    <path d="M8.15223 15.3828H7.47852V16.9144H8.15223V15.3828Z" fill="#FCD044" />
    <path d="M7.4784 15.3828H6.80469V16.9144H7.4784V15.3828Z" fill="#FCD044" />
    <path d="M6.80457 15.3828H6.13086V16.9144H6.80457V15.3828Z" fill="#FCD044" />
    <path d="M6.10828 15.3828H5.43457V16.9144H6.10828V15.3828Z" fill="#FCD044" />
    <path d="M5.43445 15.3828H4.76074V16.9144H5.43445V15.3828Z" fill="#FCD044" />
    <path d="M4.76063 15.3828H4.08691V16.9144H4.76063V15.3828Z" fill="#FCD044" />
    <path d="M4.0868 15.3828H3.41309V16.9144H4.0868V15.3828Z" fill="#FCD044" />
    <path d="M3.39149 15.3828H2.71777V16.9144H3.39149V15.3828Z" fill="#E85C30" />
    <path d="M2.71766 15.3828H2.04395V16.9144H2.71766V15.3828Z" fill="#E85C30" />
    <path d="M2.04383 15.3828H1.37012V16.9144H2.04383V15.3828Z" fill="#E85C30" />
    <path d="M1.34754 15.3828H0.673828V16.9144H1.34754V15.3828Z" fill="black" />
    <path d="M16.9999 13.8291H16.3262V15.3607H16.9999V13.8291Z" fill="black" />
    <path d="M16.3261 13.8291H15.6523V15.3607H16.3261V13.8291Z" fill="#E85C30" />
    <path d="M15.6522 13.8291H14.9785V15.3607H15.6522V13.8291Z" fill="#E85C30" />
    <path d="M14.9559 13.8291H14.2822V15.3607H14.9559V13.8291Z" fill="#E85C30" />
    <path d="M14.2831 13.8291H13.6094V15.3607H14.2831V13.8291Z" fill="#FCD044" />
    <path d="M13.6093 13.8291H12.9355V15.3607H13.6093V13.8291Z" fill="#FCD044" />
    <path d="M12.913 13.8291H12.2393V15.3607H12.913V13.8291Z" fill="#FCD044" />
    <path d="M12.2391 13.8291H11.5654V15.3607H12.2391V13.8291Z" fill="#FCD044" />
    <path d="M11.5653 13.8291H10.8916V15.3607H11.5653V13.8291Z" fill="#FCD044" />
    <path d="M10.869 13.8291H10.1953V15.3607H10.869V13.8291Z" fill="#FCD044" />
    <path d="M10.1952 13.8291H9.52148V15.3607H10.1952V13.8291Z" fill="#FCD044" />
    <path d="M9.52137 13.8291H8.84766V15.3607H9.52137V13.8291Z" fill="#FCD044" />
    <path d="M8.84852 13.8291H8.1748V15.3607H8.84852V13.8291Z" fill="#FCD044" />
    <path d="M8.15223 13.8291H7.47852V15.3607H8.15223V13.8291Z" fill="#FCD044" />
    <path d="M7.4784 13.8291H6.80469V15.3607H7.4784V13.8291Z" fill="#FCD044" />
    <path d="M6.80457 13.8291H6.13086V15.3607H6.80457V13.8291Z" fill="#FCD044" />
    <path d="M6.10828 13.8291H5.43457V15.3607H6.10828V13.8291Z" fill="#FCD044" />
    <path d="M5.43445 13.8291H4.76074V15.3607H5.43445V13.8291Z" fill="#FCD044" />
    <path d="M4.76063 13.8291H4.08691V15.3607H4.76063V13.8291Z" fill="#FCD044" />
    <path d="M4.0868 13.8291H3.41309V15.3607H4.0868V13.8291Z" fill="#FCD044" />
    <path d="M3.39149 13.8291H2.71777V15.3607H3.39149V13.8291Z" fill="#E85C30" />
    <path d="M2.71766 13.8291H2.04395V15.3607H2.71766V13.8291Z" fill="#E85C30" />
    <path d="M2.04383 13.8291H1.37012V15.3607H2.04383V13.8291Z" fill="#E85C30" />
    <path d="M1.34754 13.8291H0.673828V15.3607H1.34754V13.8291Z" fill="#E85C30" />
    <path d="M0.673712 13.8291H0V15.3607H0.673712V13.8291Z" fill="black" />
    <path d="M16.9999 12.2974H16.3262V13.829H16.9999V12.2974Z" fill="black" />
    <path d="M16.3261 12.2974H15.6523V13.829H16.3261V12.2974Z" fill="#E85C30" />
    <path d="M15.6522 12.2974H14.9785V13.829H15.6522V12.2974Z" fill="#E85C30" />
    <path d="M14.9559 12.2974H14.2822V13.829H14.9559V12.2974Z" fill="#E85C30" />
    <path d="M14.2831 12.2974H13.6094V13.829H14.2831V12.2974Z" fill="#FCD044" />
    <path d="M13.6093 12.2974H12.9355V13.829H13.6093V12.2974Z" fill="#FCD044" />
    <path d="M12.913 12.2974H12.2393V13.829H12.913V12.2974Z" fill="#FCD044" />
    <path d="M12.2391 12.2974H11.5654V13.829H12.2391V12.2974Z" fill="#FCD044" />
    <path d="M11.5653 12.2974H10.8916V13.829H11.5653V12.2974Z" fill="#FCD044" />
    <path d="M10.869 12.2974H10.1953V13.829H10.869V12.2974Z" fill="#FCD044" />
    <path d="M10.1952 12.2974H9.52148V13.829H10.1952V12.2974Z" fill="#FCD044" />
    <path d="M9.52137 12.2974H8.84766V13.829H9.52137V12.2974Z" fill="#FCD044" />
    <path d="M8.84852 12.2974H8.1748V13.829H8.84852V12.2974Z" fill="#FCD044" />
    <path d="M8.15223 12.2974H7.47852V13.829H8.15223V12.2974Z" fill="#FCD044" />
    <path d="M7.4784 12.2974H6.80469V13.829H7.4784V12.2974Z" fill="#FCD044" />
    <path d="M6.80457 12.2974H6.13086V13.829H6.80457V12.2974Z" fill="#FCD044" />
    <path d="M6.10828 12.2974H5.43457V13.829H6.10828V12.2974Z" fill="#FCD044" />
    <path d="M5.43445 12.2974H4.76074V13.829H5.43445V12.2974Z" fill="#FCD044" />
    <path d="M4.76063 12.2974H4.08691V13.829H4.76063V12.2974Z" fill="#FCD044" />
    <path d="M4.0868 12.2974H3.41309V13.829H4.0868V12.2974Z" fill="#FCD044" />
    <path d="M3.39149 12.2974H2.71777V13.829H3.39149V12.2974Z" fill="#E85C30" />
    <path d="M2.71766 12.2974H2.04395V13.829H2.71766V12.2974Z" fill="#E85C30" />
    <path d="M2.04383 12.2974H1.37012V13.829H2.04383V12.2974Z" fill="#E85C30" />
    <path d="M1.34754 12.2974H0.673828V13.829H1.34754V12.2974Z" fill="#E85C30" />
    <path d="M0.673712 12.2974H0V13.829H0.673712V12.2974Z" fill="black" />
    <path d="M16.9999 10.7659H16.3262V12.2975H16.9999V10.7659Z" fill="black" />
    <path d="M16.3261 10.7659H15.6523V12.2975H16.3261V10.7659Z" fill="#E85C30" />
    <path d="M15.6522 10.7659H14.9785V12.2975H15.6522V10.7659Z" fill="#E85C30" />
    <path d="M14.9559 10.7659H14.2822V12.2975H14.9559V10.7659Z" fill="#E85C30" />
    <path d="M14.2831 10.7659H13.6094V12.2975H14.2831V10.7659Z" fill="#E85C30" />
    <path d="M13.6093 10.7659H12.9355V12.2975H13.6093V10.7659Z" fill="#FCD044" />
    <path d="M12.913 10.7659H12.2393V12.2975H12.913V10.7659Z" fill="#E85C30" />
    <path d="M12.2391 10.7659H11.5654V12.2975H12.2391V10.7659Z" fill="#FCD044" />
    <path d="M11.5653 10.7659H10.8916V12.2975H11.5653V10.7659Z" fill="#FCD044" />
    <path d="M10.869 10.7659H10.1953V12.2975H10.869V10.7659Z" fill="#FCD044" />
    <path d="M10.1952 10.7659H9.52148V12.2975H10.1952V10.7659Z" fill="#FCD044" />
    <path d="M9.52137 10.7659H8.84766V12.2975H9.52137V10.7659Z" fill="#FCD044" />
    <path d="M8.84852 10.7659H8.1748V12.2975H8.84852V10.7659Z" fill="#FCD044" />
    <path d="M8.15223 10.7659H7.47852V12.2975H8.15223V10.7659Z" fill="#FCD044" />
    <path d="M7.4784 10.7659H6.80469V12.2975H7.4784V10.7659Z" fill="#FCD044" />
    <path d="M6.80457 10.7659H6.13086V12.2975H6.80457V10.7659Z" fill="#FCD044" />
    <path d="M6.10828 10.7659H5.43457V12.2975H6.10828V10.7659Z" fill="#FCD044" />
    <path d="M5.43445 10.7659H4.76074V12.2975H5.43445V10.7659Z" fill="#FCD044" />
    <path d="M4.76063 10.7659H4.08691V12.2975H4.76063V10.7659Z" fill="#FCD044" />
    <path d="M4.0868 10.7659H3.41309V12.2975H4.0868V10.7659Z" fill="#E85C30" />
    <path d="M3.39149 10.7659H2.71777V12.2975H3.39149V10.7659Z" fill="#E85C30" />
    <path d="M2.71766 10.7659H2.04395V12.2975H2.71766V10.7659Z" fill="#E85C30" />
    <path d="M2.04383 10.7659H1.37012V12.2975H2.04383V10.7659Z" fill="#E85C30" />
    <path d="M1.34754 10.7659H0.673828V12.2975H1.34754V10.7659Z" fill="black" />
    <path d="M0.673712 10.7659H0V12.2975H0.673712V10.7659Z" fill="black" />
    <path d="M16.3261 9.23413H15.6523V10.7658H16.3261V9.23413Z" fill="black" />
    <path d="M15.6522 9.23413H14.9785V10.7658H15.6522V9.23413Z" fill="#E85C30" />
    <path d="M14.9559 9.23413H14.2822V10.7658H14.9559V9.23413Z" fill="black" />
    <path d="M14.2831 9.23413H13.6094V10.7658H14.2831V9.23413Z" fill="black" />
    <path d="M13.6093 9.23413H12.9355V10.7658H13.6093V9.23413Z" fill="black" />
    <path d="M12.913 9.23413H12.2393V10.7658H12.913V9.23413Z" fill="#E85D31" />
    <path d="M12.2391 9.23413H11.5654V10.7658H12.2391V9.23413Z" fill="#E85C30" />
    <path d="M11.5653 9.23413H10.8916V10.7658H11.5653V9.23413Z" fill="#FCD044" />
    <path d="M10.869 9.23413H10.1953V10.7658H10.869V9.23413Z" fill="#FCD044" />
    <path d="M10.1952 9.23413H9.52148V10.7658H10.1952V9.23413Z" fill="#FCD044" />
    <path d="M9.52137 9.23413H8.84766V10.7658H9.52137V9.23413Z" fill="#FCD044" />
    <path d="M8.84852 9.23413H8.1748V10.7658H8.84852V9.23413Z" fill="#FCD044" />
    <path d="M8.15223 9.23413H7.47852V10.7658H8.15223V9.23413Z" fill="#FCD044" />
    <path d="M7.4784 9.23413H6.80469V10.7658H7.4784V9.23413Z" fill="#FCD044" />
    <path d="M6.80457 9.23413H6.13086V10.7658H6.80457V9.23413Z" fill="#FCD044" />
    <path d="M6.10828 9.23413H5.43457V10.7658H6.10828V9.23413Z" fill="#E85C30" />
    <path d="M5.43445 9.23413H4.76074V10.7658H5.43445V9.23413Z" fill="#F3A43A" />
    <path d="M4.76063 9.23413H4.08691V10.7658H4.76063V9.23413Z" fill="#E85C30" />
    <path d="M4.0868 9.23413H3.41309V10.7658H4.0868V9.23413Z" fill="#E85C30" />
    <path d="M3.39149 9.23413H2.71777V10.7658H3.39149V9.23413Z" fill="#E85C30" />
    <path d="M2.71766 9.23413H2.04395V10.7658H2.71766V9.23413Z" fill="#E85C30" />
    <path d="M2.04383 9.23413H1.37012V10.7658H2.04383V9.23413Z" fill="black" />
    <path d="M1.34754 9.23413H0.673828V10.7658H1.34754V9.23413Z" fill="black" />
    <path d="M15.6522 7.68042H14.9785V9.21205H15.6522V7.68042Z" fill="black" />
    <path d="M14.9559 7.68042H14.2822V9.21205H14.9559V7.68042Z" fill="black" />
    <path d="M13.6093 7.68042H12.9355V9.21205H13.6093V7.68042Z" fill="black" />
    <path d="M12.913 7.68042H12.2393V9.21205H12.913V7.68042Z" fill="#E85C30" />
    <path d="M12.2391 7.68042H11.5654V9.21205H12.2391V7.68042Z" fill="#E85C30" />
    <path d="M11.5653 7.68042H10.8916V9.21205H11.5653V7.68042Z" fill="#F5AD3C" />
    <path d="M10.869 7.68042H10.1953V9.21205H10.869V7.68042Z" fill="#FCD044" />
    <path d="M10.1952 7.68042H9.52148V9.21205H10.1952V7.68042Z" fill="#F7B83F" />
    <path d="M9.52137 7.68042H8.84766V9.21205H9.52137V7.68042Z" fill="#FCD044" />
    <path d="M8.84852 7.68042H8.1748V9.21205H8.84852V7.68042Z" fill="#FCD044" />
    <path d="M8.15223 7.68042H7.47852V9.21205H8.15223V7.68042Z" fill="#FCD044" />
    <path d="M7.4784 7.68042H6.80469V9.21205H7.4784V7.68042Z" fill="#FCD044" />
    <path d="M6.80457 7.68042H6.13086V9.21205H6.80457V7.68042Z" fill="#E85C30" />
    <path d="M6.10828 7.68042H5.43457V9.21205H6.10828V7.68042Z" fill="#E85C30" />
    <path d="M5.43445 7.68042H4.76074V9.21205H5.43445V7.68042Z" fill="#E85C30" />
    <path d="M4.76063 7.68042H4.08691V9.21205H4.76063V7.68042Z" fill="black" />
    <path d="M4.0868 7.68042H3.41309V9.21205H4.0868V7.68042Z" fill="#E85C30" />
    <path d="M3.39149 7.68042H2.71777V9.21205H3.39149V7.68042Z" fill="#E85C30" />
    <path d="M2.71766 7.68042H2.04395V9.21205H2.71766V7.68042Z" fill="black" />
    <path d="M14.9559 6.14868H14.2822V7.68031H14.9559V6.14868Z" fill="black" />
    <path d="M13.6093 6.14868H12.9355V7.68031H13.6093V6.14868Z" fill="black" />
    <path d="M12.913 6.14868H12.2393V7.68031H12.913V6.14868Z" fill="#2B1417" />
    <path d="M12.2391 6.14868H11.5654V7.68031H12.2391V6.14868Z" fill="#E85C30" />
    <path d="M11.5653 6.14868H10.8916V7.68031H11.5653V6.14868Z" fill="#E85C30" />
    <path d="M10.869 6.14868H10.1953V7.68031H10.869V6.14868Z" fill="#E85C30" />
    <path d="M10.1952 6.14868H9.52148V7.68031H10.1952V6.14868Z" fill="#E85C30" />
    <path d="M9.52137 6.14868H8.84766V7.68031H9.52137V6.14868Z" fill="#E85C30" />
    <path d="M8.84852 6.14868H8.1748V7.68031H8.84852V6.14868Z" fill="#FCD044" />
    <path d="M8.15223 6.14868H7.47852V7.68031H8.15223V6.14868Z" fill="#FCD044" />
    <path d="M7.4784 6.14868H6.80469V7.68031H7.4784V6.14868Z" fill="#E85C30" />
    <path d="M6.80457 6.14868H6.13086V7.68031H6.80457V6.14868Z" fill="#E85C30" />
    <path d="M6.10828 6.14868H5.43457V7.68031H6.10828V6.14868Z" fill="#E85C30" />
    <path d="M5.43445 6.14868H4.76074V7.68031H5.43445V6.14868Z" fill="black" />
    <path d="M4.0868 6.14868H3.41309V7.68031H4.0868V6.14868Z" fill="black" />
    <path d="M3.39149 6.14868H2.71777V7.68031H3.39149V6.14868Z" fill="black" />
    <path d="M12.913 4.61694H12.2393V6.14858H12.913V4.61694Z" fill="black" />
    <path d="M12.2391 4.61694H11.5654V6.14858H12.2391V4.61694Z" fill="#E85C30" />
    <path d="M11.5653 4.61694H10.8916V6.14858H11.5653V4.61694Z" fill="black" />
    <path d="M10.869 4.61694H10.1953V6.14858H10.869V4.61694Z" fill="black" />
    <path d="M10.1952 4.61694H9.52148V6.14858H10.1952V4.61694Z" fill="#E85C30" />
    <path d="M9.52137 4.61694H8.84766V6.14858H9.52137V4.61694Z" fill="#E85C30" />
    <path d="M8.84852 4.61694H8.1748V6.14858H8.84852V4.61694Z" fill="#E85C30" />
    <path d="M8.15223 4.61694H7.47852V6.14858H8.15223V4.61694Z" fill="#E85C30" />
    <path d="M7.4784 4.61694H6.80469V6.14858H7.4784V4.61694Z" fill="#E85C30" />
    <path d="M6.80457 4.61694H6.13086V6.14858H6.80457V4.61694Z" fill="#E85C30" />
    <path d="M6.10828 4.61694H5.43457V6.14858H6.10828V4.61694Z" fill="black" />
    <path d="M12.2391 3.08545H11.5654V4.61708H12.2391V3.08545Z" fill="black" />
    <path d="M10.1952 3.08545H9.52148V4.61708H10.1952V3.08545Z" fill="black" />
    <path d="M9.52137 3.08545H8.84766V4.61708H9.52137V3.08545Z" fill="#E85C30" />
    <path d="M8.84852 3.08545H8.1748V4.61708H8.84852V3.08545Z" fill="#E85C30" />
    <path d="M8.15223 3.08545H7.47852V4.61708H8.15223V3.08545Z" fill="#E85C30" />
    <path d="M7.4784 3.08545H6.80469V4.61708H7.4784V3.08545Z" fill="#E85C30" />
    <path d="M6.80457 3.08545H6.13086V4.61708H6.80457V3.08545Z" fill="black" />
    <path d="M8.84852 1.53149H8.1748V3.06313H8.84852V1.53149Z" fill="black" />
    <path d="M8.15223 1.53149H7.47852V3.06313H8.15223V1.53149Z" fill="#E85C30" />
    <path d="M7.4784 1.53149H6.80469V3.06313H7.4784V1.53149Z" fill="black" />
    <path d="M8.15223 0H7.47852V1.53163H8.15223V0Z" fill="black" />
  </svg>