<svg display="none">
  <symbol id="icon-facebook" viewBox="0 0 30 30" fill="inherit" xmlns="http://www.w3.org/2000/svg">
    <path d="M0 0V30H15.9768V18.4116H12.0712V13.6809H15.9768V9.70798C15.9768 6.81858 18.3191 4.47627 21.2085 4.47627H25.2916V8.73024H22.37C21.4518 8.73024 20.7075 9.47456 20.7075 10.3927V13.681H25.2182L24.5948 18.4117H20.7075V30H30V0H0Z" fill="inherit" />
  </symbol>
  <symbol id="icon-vk" viewBox="0 0 30 30" fill="inherit" xmlns="http://www.w3.org/2000/svg">
    <rect width="30" height="30" fill="inherit" />
    <path d="M25.795 19.7051C25.7332 19.6016 25.3508 18.7707 23.5107 17.0628C21.5843 15.2744 21.843 15.5648 24.1633 12.4725C25.5765 10.5893 26.1415 9.43917 25.9646 8.9475C25.7964 8.47884 24.7571 8.60248 24.7571 8.60248L21.3011 8.62261C21.3011 8.62261 21.0452 8.5881 20.854 8.70167C20.6685 8.81381 20.5492 9.07258 20.5492 9.07258C20.5492 9.07258 20.0015 10.5303 19.2712 11.7695C17.7315 14.3845 17.1147 14.5225 16.8632 14.3601C16.2781 13.982 16.4247 12.8391 16.4247 12.0283C16.4247 9.4938 16.8085 8.43715 15.6757 8.16401C15.299 8.07344 15.023 8.01306 14.0613 8.003C12.8278 7.99006 11.7827 8.00731 11.1918 8.29627C10.7979 8.48891 10.4946 8.91875 10.68 8.94319C10.9086 8.97338 11.4261 9.08264 11.7007 9.45642C12.0558 9.93802 12.0429 11.022 12.0429 11.022C12.0429 11.022 12.247 14.005 11.567 14.3759C11.0998 14.6304 10.4601 14.1114 9.08715 11.7379C8.38416 10.5231 7.85224 9.17896 7.85224 9.17896C7.85224 9.17896 7.75017 8.92882 7.5676 8.79512C7.34621 8.63267 7.03568 8.58092 7.03568 8.58092L3.74931 8.60104C3.74931 8.60104 3.25621 8.61542 3.07508 8.82962C2.91406 9.02082 3.06214 9.41473 3.06214 9.41473C3.06214 9.41473 5.63545 15.434 8.54805 18.4688C11.2206 21.2505 14.2539 21.068 14.2539 21.068H15.6283C15.6283 21.068 16.0437 21.022 16.2551 20.7934C16.4506 20.5835 16.4434 20.1896 16.4434 20.1896C16.4434 20.1896 16.4161 18.3451 17.2729 18.0734C18.1168 17.806 19.2007 19.8561 20.3494 20.6453C21.2177 21.2419 21.8775 21.1111 21.8775 21.1111L24.9497 21.068C24.9497 21.068 26.5569 20.9688 25.795 19.7051Z" fill="currentColor" />
  </symbol>
  <symbol id="icon-email" viewBox="0 0 30 30" fill="inherit" xmlns="http://www.w3.org/2000/svg">
    <rect width="30" height="30" fill="inherit" />
    <path d="M15.8448 6C17.431 6 18.8391 6.34225 20.069 7.02675C21.3103 7.69924 22.2759 8.62991 22.9655 9.81878C23.6552 11.0076 24 12.3526 24 13.8537C24 14.9105 23.8506 15.8231 23.5517 16.5917C23.2644 17.3483 22.8563 17.9247 22.3276 18.321C21.7989 18.7172 21.1782 18.9154 20.4655 18.9154C19.8793 18.9154 19.3851 18.7833 18.9828 18.5191C18.5805 18.2549 18.2874 17.8646 18.1034 17.3483C17.4828 18.393 16.5 18.9154 15.1552 18.9154C14.4195 18.9154 13.7471 18.7233 13.1379 18.339C12.5287 17.9547 12.046 17.4203 11.6897 16.7358C11.3448 16.0393 11.1724 15.2467 11.1724 14.3581C11.1724 13.4814 11.3448 12.7009 11.6897 12.0164C12.046 11.3199 12.523 10.7795 13.1207 10.3952C13.7299 10.0109 14.408 9.81878 15.1552 9.81878C16.2931 9.81878 17.1782 10.2151 17.8103 11.0076V9.94487H20.1552V15.7811C20.1552 16.5497 20.431 16.934 20.9828 16.934C21.3851 16.934 21.6954 16.6818 21.9138 16.1774C22.1437 15.673 22.2586 14.9105 22.2586 13.8897C22.2586 12.6769 21.9885 11.6081 21.4483 10.6834C20.9195 9.74672 20.1667 9.0202 19.1897 8.50382C18.2241 7.97544 17.1092 7.71124 15.8448 7.71124C14.5805 7.71124 13.4598 7.99345 12.4828 8.55786C11.5172 9.11026 10.7644 9.87882 10.2241 10.8635C9.6954 11.8483 9.43103 12.9651 9.43103 14.214C9.43103 15.4869 9.6954 16.6217 10.2241 17.6185C10.7529 18.6032 11.4943 19.3717 12.4483 19.9241C13.4138 20.4885 14.523 20.7707 15.7759 20.7707C17.0172 20.7707 18.1494 20.5066 19.1724 19.9782L19.7241 21.6354C19.2069 21.9116 18.592 22.1217 17.8793 22.2658C17.1782 22.4219 16.477 22.5 15.7759 22.5C14.1437 22.5 12.7011 22.1397 11.4483 21.4192C10.1954 20.7107 9.22414 19.726 8.53448 18.4651C7.84483 17.2041 7.5 15.7871 7.5 14.214C7.5 12.6528 7.84483 11.2478 8.53448 9.99891C9.23563 8.75 10.2184 7.77129 11.4828 7.06277C12.7471 6.35426 14.2011 6 15.8448 6ZM15.6897 16.8439C16.3218 16.8439 16.8391 16.6277 17.2414 16.1954C17.6437 15.7511 17.8448 15.1386 17.8448 14.3581C17.8448 13.5895 17.6437 12.9891 17.2414 12.5568C16.8391 12.1245 16.3218 11.9083 15.6897 11.9083C15.046 11.9083 14.5287 12.1305 14.1379 12.5748C13.7471 13.0071 13.5517 13.6015 13.5517 14.3581C13.5517 15.1266 13.7471 15.7331 14.1379 16.1774C14.5287 16.6217 15.046 16.8439 15.6897 16.8439Z" fill="currentColor" />
  </symbol>
  <g id="icon-polygon">
    <path xmlns="http://www.w3.org/2000/svg" fill="#555B55" d="M4 6L0.535898 -1.75695e-07L7.4641 4.29987e-07L4 6Z" />
  </g>
  <symbol id="icon-telegram" viewBox="0 0 35 35" xmlns="http://www.w3.org/2000/svg">
    <rect width="35" height="35" fill="inherit" />
    <path d="M13.5943 21.0786L13.1477 27.3606C13.7867 27.3606 14.0634 27.0861 14.3953 26.7565L17.3912 23.8933L23.5989 28.4395C24.7374 29.074 25.5396 28.7398 25.8467 27.3921L29.9214 8.29859L29.9226 8.29747C30.2837 6.61447 29.3139 5.95634 28.2047 6.36922L4.25345 15.5391C2.61883 16.1736 2.64358 17.0848 3.97557 17.4977L10.0989 19.4023L24.3223 10.5025C24.9917 10.0592 25.6003 10.3045 25.0997 10.7477L13.5943 21.0786Z" fill="currentColor" />
  </symbol>
  <symbol id="icon-instagram" viewBox="0 0 35 35" xmlns="http://www.w3.org/2000/svg">
    <rect width="35" height="35" fill="inherit" />
    <path d="M21.8568 8H13.1431C10.3072 8 8 10.3072 8 13.1431V21.857C8 24.6928 10.3072 27 13.1431 27H21.857C24.6928 27 27 24.6928 27 21.857V13.1431C27 10.3072 24.6928 8 21.8568 8V8ZM17.5 22.6951C14.6353 22.6951 12.3048 20.3646 12.3048 17.5C12.3048 14.6353 14.6353 12.3048 17.5 12.3048C20.3646 12.3048 22.6951 14.6353 22.6951 17.5C22.6951 20.3646 20.3646 22.6951 17.5 22.6951ZM22.8194 13.53C21.9728 13.53 21.2843 12.8415 21.2843 11.9949C21.2843 11.1483 21.9728 10.4597 22.8194 10.4597C23.6659 10.4597 24.3546 11.1483 24.3546 11.9949C24.3546 12.8415 23.6659 13.53 22.8194 13.53Z" fill="currentColor" />
    <path d="M17.4993 13.4185C15.2489 13.4185 13.418 15.2493 13.418 17.4998C13.418 19.7501 15.2489 21.5811 17.4993 21.5811C19.7497 21.5811 21.5806 19.7501 21.5806 17.4998C21.5806 15.2493 19.7497 13.4185 17.4993 13.4185Z" fill="currentColor" />
    <path d="M22.8197 11.5737C22.5875 11.5737 22.3984 11.7628 22.3984 11.995C22.3984 12.2272 22.5875 12.4162 22.8197 12.4162C23.0521 12.4162 23.2411 12.2273 23.2411 11.995C23.2411 11.7626 23.0521 11.5737 22.8197 11.5737Z" fill="currentColor" />
  </symbol>
  <symbol id="icon-close" viewBox="0 0 20 20" xmlns="http://www.w3.org/2000/svg">
    <rect x="2.12109" width="25" height="3" transform="rotate(45 2.12109 0)" fill="inherit" />
    <rect width="25" height="3" transform="matrix(-0.707107 0.707107 0.707107 0.707107 17.6777 0)" fill="inherit" />
  </symbol>
  <g id="icon-arrow">
    <path xmlns="http://www.w3.org/2000/svg" fill="white" d="M0.646447 3.60445C0.451184 3.79972 0.451184 4.1163 0.646447 4.31156L3.82843 7.49354C4.02369 7.6888 4.34027 7.6888 4.53553 7.49354C4.7308 7.29828 4.7308 6.9817 4.53553 6.78643L1.70711 3.95801L4.53553 1.12958C4.7308 0.934318 4.7308 0.617735 4.53553 0.422473C4.34027 0.227211 4.02369 0.227211 3.82843 0.422473L0.646447 3.60445ZM13 3.45801L1 3.45801L1 4.45801L13 4.45801L13 3.45801Z" />
  </g>
  <symbol viewBox="0 0 20 20" fill="inherit" stroke="inherit" xmlns="http://www.w3.org/2000/svg" id="icon-search">
    <circle xmlns="http://www.w3.org/2000/svg" cx="8.663" cy="8.5" r="5.51" stroke="inherit" transform="rotate(-45 8.663 8.5)" />
    <path xmlns="http://www.w3.org/2000/svg" stroke="inherit" d="M12.4404 12.2773L17.1627 16.9996" />
  </symbol>
</svg>