<svg display="none">
  <g id="icon-facebook">
    <path xmlns="http://www.w3.org/2000/svg" fill="#E22A30" d="M0 0V30H15.9768V18.4116H12.0712V13.6809H15.9768V9.70798C15.9768 6.81858 18.3191 4.47627 21.2085 4.47627H25.2916V8.73024H22.37C21.4518 8.73024 20.7075 9.47456 20.7075 10.3927V13.681H25.2182L24.5948 18.4117H20.7075V30H30V0H0Z"/>
  </g>
  <g id="icon-email">
    <path xmlns="http://www.w3.org/2000/svg" fill="#44A83F" fill-rule="evenodd" d="M30 0H0V30H30V0ZM20.069 7.02675C18.8391 6.34225 17.431 6 15.8448 6C14.2011 6 12.7471 6.35426 11.4828 7.06277C10.2184 7.77129 9.23563 8.75 8.53448 9.99891C7.84483 11.2478 7.5 12.6528 7.5 14.214C7.5 15.7871 7.84483 17.2041 8.53448 18.4651C9.22414 19.726 10.1954 20.7107 11.4483 21.4192C12.7011 22.1397 14.1437 22.5 15.7759 22.5C16.477 22.5 17.1782 22.4219 17.8793 22.2658C18.592 22.1217 19.2069 21.9116 19.7241 21.6354L19.1724 19.9782C18.1494 20.5065 17.0172 20.7707 15.7759 20.7707C14.523 20.7707 13.4138 20.4885 12.4483 19.9241C11.4943 19.3717 10.7529 18.6032 10.2241 17.6185C9.6954 16.6217 9.43103 15.4869 9.43103 14.214C9.43103 12.9651 9.6954 11.8483 10.2241 10.8635C10.7644 9.87882 11.5172 9.11026 12.4828 8.55786C13.4598 7.99345 14.5805 7.71125 15.8448 7.71125C17.1092 7.71125 18.2241 7.97544 19.1897 8.50382C20.1667 9.0202 20.9195 9.74673 21.4483 10.6834C21.9885 11.6081 22.2586 12.6769 22.2586 13.8897C22.2586 14.9105 22.1437 15.673 21.9138 16.1774C21.6954 16.6818 21.3851 16.934 20.9828 16.934C20.431 16.934 20.1552 16.5497 20.1552 15.7811V9.94487H17.8103V11.0076C17.1782 10.2151 16.2931 9.81878 15.1552 9.81878C14.408 9.81878 13.7299 10.0109 13.1207 10.3952C12.523 10.7795 12.046 11.3199 11.6897 12.0164C11.3448 12.7009 11.1724 13.4814 11.1724 14.3581C11.1724 15.2467 11.3448 16.0393 11.6897 16.7358C12.046 17.4203 12.5287 17.9547 13.1379 18.339C13.7471 18.7233 14.4195 18.9154 15.1552 18.9154C16.5 18.9154 17.4828 18.393 18.1034 17.3483C18.2874 17.8646 18.5805 18.2549 18.9828 18.5191C19.3851 18.7833 19.8793 18.9154 20.4655 18.9154C21.1782 18.9154 21.7989 18.7172 22.3276 18.321C22.8563 17.9247 23.2644 17.3483 23.5517 16.5917C23.8506 15.8231 24 14.9105 24 13.8537C24 12.3526 23.6552 11.0076 22.9655 9.81878C22.2759 8.62991 21.3103 7.69924 20.069 7.02675ZM17.2414 16.1954C16.8391 16.6277 16.3218 16.8439 15.6897 16.8439C15.046 16.8439 14.5287 16.6217 14.1379 16.1774C13.7471 15.7331 13.5517 15.1266 13.5517 14.3581C13.5517 13.6015 13.7471 13.0071 14.1379 12.5748C14.5287 12.1305 15.046 11.9083 15.6897 11.9083C16.3218 11.9083 16.8391 12.1245 17.2414 12.5568C17.6437 12.9891 17.8448 13.5895 17.8448 14.3581C17.8448 15.1386 17.6437 15.7511 17.2414 16.1954Z" clip-rule="evenodd"/>
  </g>
  <g id="icon-polygon">
    <path xmlns="http://www.w3.org/2000/svg" fill="#555B55" d="M4 6L0.535898 -1.75695e-07L7.4641 4.29987e-07L4 6Z"/>
  </g>
  <symbol id="icon-telegram" viewBox="0 0 35 35" xmlns="http://www.w3.org/2000/svg">
    <rect width="35" height="35" fill="inherit"/>
    <path d="M13.5943 21.0786L13.1477 27.3606C13.7867 27.3606 14.0634 27.0861 14.3953 26.7565L17.3912 23.8933L23.5989 28.4395C24.7374 29.074 25.5396 28.7398 25.8467 27.3921L29.9214 8.29859L29.9226 8.29747C30.2837 6.61447 29.3139 5.95634 28.2047 6.36922L4.25345 15.5391C2.61883 16.1736 2.64358 17.0848 3.97557 17.4977L10.0989 19.4023L24.3223 10.5025C24.9917 10.0592 25.6003 10.3045 25.0997 10.7477L13.5943 21.0786Z" fill="currentColor"/>
  </symbol>
  <symbol id="icon-instagram" viewBox="0 0 35 35" xmlns="http://www.w3.org/2000/svg">
    <rect width="35" height="35" fill="inherit"/>
    <path d="M21.8568 8H13.1431C10.3072 8 8 10.3072 8 13.1431V21.857C8 24.6928 10.3072 27 13.1431 27H21.857C24.6928 27 27 24.6928 27 21.857V13.1431C27 10.3072 24.6928 8 21.8568 8V8ZM17.5 22.6951C14.6353 22.6951 12.3048 20.3646 12.3048 17.5C12.3048 14.6353 14.6353 12.3048 17.5 12.3048C20.3646 12.3048 22.6951 14.6353 22.6951 17.5C22.6951 20.3646 20.3646 22.6951 17.5 22.6951ZM22.8194 13.53C21.9728 13.53 21.2843 12.8415 21.2843 11.9949C21.2843 11.1483 21.9728 10.4597 22.8194 10.4597C23.6659 10.4597 24.3546 11.1483 24.3546 11.9949C24.3546 12.8415 23.6659 13.53 22.8194 13.53Z" fill="currentColor"/>
    <path d="M17.4993 13.4185C15.2489 13.4185 13.418 15.2493 13.418 17.4998C13.418 19.7501 15.2489 21.5811 17.4993 21.5811C19.7497 21.5811 21.5806 19.7501 21.5806 17.4998C21.5806 15.2493 19.7497 13.4185 17.4993 13.4185Z" fill="currentColor"/>
    <path d="M22.8197 11.5737C22.5875 11.5737 22.3984 11.7628 22.3984 11.995C22.3984 12.2272 22.5875 12.4162 22.8197 12.4162C23.0521 12.4162 23.2411 12.2273 23.2411 11.995C23.2411 11.7626 23.0521 11.5737 22.8197 11.5737Z" fill="currentColor"/>
  </symbol>


  <symbol id="icon-close" viewBox="0 0 20 20" xmlns="http://www.w3.org/2000/svg">
    <rect x="2.12109" width="25" height="3" transform="rotate(45 2.12109 0)" fill="inherit"/>
    <rect width="25" height="3" transform="matrix(-0.707107 0.707107 0.707107 0.707107 17.6777 0)" fill="inherit"/>
  </symbol>

  <symbol id="icon-fire" viewBox="0 0 17 20" fill="none" xmlns="http://www.w3.org/2000/svg">
    <path d="M10.2626 18.4685H9.58887V20.0001H10.2626V18.4685Z" fill="#141315"/>
    <path d="M9.56629 18.4685H8.89258V20.0001H9.56629V18.4685Z" fill="#141315"/>
    <path d="M8.89344 18.4685H8.21973V20.0001H8.89344V18.4685Z" fill="#141315"/>
    <path d="M8.21961 18.4685H7.5459V20.0001H8.21961V18.4685Z" fill="#141315"/>
    <path d="M7.52332 18.4685H6.84961V20.0001H7.52332V18.4685Z" fill="#141315"/>
    <path d="M6.84949 18.4685H6.17578V20.0001H6.84949V18.4685Z" fill="#141315"/>
    <path d="M12.913 18.4685H12.2393V20.0001H12.913V18.4685Z" fill="#141315"/>
    <path d="M12.2391 18.4685H11.5654V20.0001H12.2391V18.4685Z" fill="#141315"/>
    <path d="M11.5429 18.4685H10.8691V20.0001H11.5429V18.4685Z" fill="#141315"/>
    <path d="M10.869 18.4685H10.1953V20.0001H10.869V18.4685Z" fill="#141315"/>
    <path d="M10.1952 18.4685H9.52148V20.0001H10.1952V18.4685Z" fill="#141315"/>
    <path d="M8.8036 18.4685H8.12988V20.0001H8.8036V18.4685Z" fill="#141315"/>
    <path d="M8.12977 18.4685H7.45605V20.0001H8.12977V18.4685Z" fill="#141315"/>
    <path d="M7.45594 18.4685H6.78223V20.0001H7.45594V18.4685Z" fill="#141315"/>
    <path d="M6.75965 18.4685H6.08594V20.0001H6.75965V18.4685Z" fill="#141315"/>
    <path d="M6.08582 18.4685H5.41211V20.0001H6.08582V18.4685Z" fill="#141315"/>
    <path d="M5.41199 18.4685H4.73828V20.0001H5.41199V18.4685Z" fill="#141315"/>
    <path d="M13.6093 18.446H12.9355V19.9777H13.6093V18.446Z" fill="#141315"/>
    <path d="M4.76063 18.446H4.08691V19.9777H4.76063V18.446Z" fill="#141315"/>
    <path d="M14.9559 16.9146H14.2822V18.4462H14.9559V16.9146Z" fill="black"/>
    <path d="M14.2831 16.9146H13.6094V18.4462H14.2831V16.9146Z" fill="black"/>
    <path d="M13.6093 16.9146H12.9355V18.4462H13.6093V16.9146Z" fill="black"/>
    <path d="M12.913 16.9146H12.2393V18.4462H12.913V16.9146Z" fill="#E85C30"/>
    <path d="M12.2391 16.9146H11.5654V18.4462H12.2391V16.9146Z" fill="#E85C30"/>
    <path d="M11.5653 16.9146H10.8916V18.4462H11.5653V16.9146Z" fill="#F19539"/>
    <path d="M10.869 16.9146H10.1953V18.4462H10.869V16.9146Z" fill="#F29E3A"/>
    <path d="M10.1952 16.9146H9.52148V18.4462H10.1952V16.9146Z" fill="#F19539"/>
    <path d="M9.52137 16.9146H8.84766V18.4462H9.52137V16.9146Z" fill="#F19539"/>
    <path d="M8.84852 16.9146H8.1748V18.4462H8.84852V16.9146Z" fill="#F19539"/>
    <path d="M8.15223 16.9146H7.47852V18.4462H8.15223V16.9146Z" fill="#F19539"/>
    <path d="M7.4784 16.9146H6.80469V18.4462H7.4784V16.9146Z" fill="#F19539"/>
    <path d="M6.80457 16.9146H6.13086V18.4462H6.80457V16.9146Z" fill="#F19539"/>
    <path d="M6.10828 16.9146H5.43457V18.4462H6.10828V16.9146Z" fill="#F29F3A"/>
    <path d="M5.43445 16.9146H4.76074V18.4462H5.43445V16.9146Z" fill="#E85C30"/>
    <path d="M4.76063 16.9146H4.08691V18.4462H4.76063V16.9146Z" fill="#E85C30"/>
    <path d="M4.0868 16.9146H3.41309V18.4462H4.0868V16.9146Z" fill="#E85C30"/>
    <path d="M3.39149 16.9146H2.71777V18.4462H3.39149V16.9146Z" fill="black"/>
    <path d="M2.71766 16.9146H2.04395V18.4462H2.71766V16.9146Z" fill="black"/>
    <path d="M16.3261 15.3828H15.6523V16.9144H16.3261V15.3828Z" fill="black"/>
    <path d="M15.6522 15.3828H14.9785V16.9144H15.6522V15.3828Z" fill="#E85C30"/>
    <path d="M14.9559 15.3828H14.2822V16.9144H14.9559V15.3828Z" fill="#E85C30"/>
    <path d="M14.2831 15.3828H13.6094V16.9144H14.2831V15.3828Z" fill="#E85C30"/>
    <path d="M13.6093 15.3828H12.9355V16.9144H13.6093V15.3828Z" fill="#FCD044"/>
    <path d="M12.913 15.3828H12.2393V16.9144H12.913V15.3828Z" fill="#FCD044"/>
    <path d="M12.2391 15.3828H11.5654V16.9144H12.2391V15.3828Z" fill="#FCD044"/>
    <path d="M11.5653 15.3828H10.8916V16.9144H11.5653V15.3828Z" fill="#FCD044"/>
    <path d="M10.869 15.3828H10.1953V16.9144H10.869V15.3828Z" fill="#FCD044"/>
    <path d="M10.1952 15.3828H9.52148V16.9144H10.1952V15.3828Z" fill="#FCD044"/>
    <path d="M9.52137 15.3828H8.84766V16.9144H9.52137V15.3828Z" fill="#FCD044"/>
    <path d="M8.84852 15.3828H8.1748V16.9144H8.84852V15.3828Z" fill="#FCD044"/>
    <path d="M8.15223 15.3828H7.47852V16.9144H8.15223V15.3828Z" fill="#FCD044"/>
    <path d="M7.4784 15.3828H6.80469V16.9144H7.4784V15.3828Z" fill="#FCD044"/>
    <path d="M6.80457 15.3828H6.13086V16.9144H6.80457V15.3828Z" fill="#FCD044"/>
    <path d="M6.10828 15.3828H5.43457V16.9144H6.10828V15.3828Z" fill="#FCD044"/>
    <path d="M5.43445 15.3828H4.76074V16.9144H5.43445V15.3828Z" fill="#FCD044"/>
    <path d="M4.76063 15.3828H4.08691V16.9144H4.76063V15.3828Z" fill="#FCD044"/>
    <path d="M4.0868 15.3828H3.41309V16.9144H4.0868V15.3828Z" fill="#FCD044"/>
    <path d="M3.39149 15.3828H2.71777V16.9144H3.39149V15.3828Z" fill="#E85C30"/>
    <path d="M2.71766 15.3828H2.04395V16.9144H2.71766V15.3828Z" fill="#E85C30"/>
    <path d="M2.04383 15.3828H1.37012V16.9144H2.04383V15.3828Z" fill="#E85C30"/>
    <path d="M1.34754 15.3828H0.673828V16.9144H1.34754V15.3828Z" fill="black"/>
    <path d="M16.9999 13.8291H16.3262V15.3607H16.9999V13.8291Z" fill="black"/>
    <path d="M16.3261 13.8291H15.6523V15.3607H16.3261V13.8291Z" fill="#E85C30"/>
    <path d="M15.6522 13.8291H14.9785V15.3607H15.6522V13.8291Z" fill="#E85C30"/>
    <path d="M14.9559 13.8291H14.2822V15.3607H14.9559V13.8291Z" fill="#E85C30"/>
    <path d="M14.2831 13.8291H13.6094V15.3607H14.2831V13.8291Z" fill="#FCD044"/>
    <path d="M13.6093 13.8291H12.9355V15.3607H13.6093V13.8291Z" fill="#FCD044"/>
    <path d="M12.913 13.8291H12.2393V15.3607H12.913V13.8291Z" fill="#FCD044"/>
    <path d="M12.2391 13.8291H11.5654V15.3607H12.2391V13.8291Z" fill="#FCD044"/>
    <path d="M11.5653 13.8291H10.8916V15.3607H11.5653V13.8291Z" fill="#FCD044"/>
    <path d="M10.869 13.8291H10.1953V15.3607H10.869V13.8291Z" fill="#FCD044"/>
    <path d="M10.1952 13.8291H9.52148V15.3607H10.1952V13.8291Z" fill="#FCD044"/>
    <path d="M9.52137 13.8291H8.84766V15.3607H9.52137V13.8291Z" fill="#FCD044"/>
    <path d="M8.84852 13.8291H8.1748V15.3607H8.84852V13.8291Z" fill="#FCD044"/>
    <path d="M8.15223 13.8291H7.47852V15.3607H8.15223V13.8291Z" fill="#FCD044"/>
    <path d="M7.4784 13.8291H6.80469V15.3607H7.4784V13.8291Z" fill="#FCD044"/>
    <path d="M6.80457 13.8291H6.13086V15.3607H6.80457V13.8291Z" fill="#FCD044"/>
    <path d="M6.10828 13.8291H5.43457V15.3607H6.10828V13.8291Z" fill="#FCD044"/>
    <path d="M5.43445 13.8291H4.76074V15.3607H5.43445V13.8291Z" fill="#FCD044"/>
    <path d="M4.76063 13.8291H4.08691V15.3607H4.76063V13.8291Z" fill="#FCD044"/>
    <path d="M4.0868 13.8291H3.41309V15.3607H4.0868V13.8291Z" fill="#FCD044"/>
    <path d="M3.39149 13.8291H2.71777V15.3607H3.39149V13.8291Z" fill="#E85C30"/>
    <path d="M2.71766 13.8291H2.04395V15.3607H2.71766V13.8291Z" fill="#E85C30"/>
    <path d="M2.04383 13.8291H1.37012V15.3607H2.04383V13.8291Z" fill="#E85C30"/>
    <path d="M1.34754 13.8291H0.673828V15.3607H1.34754V13.8291Z" fill="#E85C30"/>
    <path d="M0.673712 13.8291H0V15.3607H0.673712V13.8291Z" fill="black"/>
    <path d="M16.9999 12.2974H16.3262V13.829H16.9999V12.2974Z" fill="black"/>
    <path d="M16.3261 12.2974H15.6523V13.829H16.3261V12.2974Z" fill="#E85C30"/>
    <path d="M15.6522 12.2974H14.9785V13.829H15.6522V12.2974Z" fill="#E85C30"/>
    <path d="M14.9559 12.2974H14.2822V13.829H14.9559V12.2974Z" fill="#E85C30"/>
    <path d="M14.2831 12.2974H13.6094V13.829H14.2831V12.2974Z" fill="#FCD044"/>
    <path d="M13.6093 12.2974H12.9355V13.829H13.6093V12.2974Z" fill="#FCD044"/>
    <path d="M12.913 12.2974H12.2393V13.829H12.913V12.2974Z" fill="#FCD044"/>
    <path d="M12.2391 12.2974H11.5654V13.829H12.2391V12.2974Z" fill="#FCD044"/>
    <path d="M11.5653 12.2974H10.8916V13.829H11.5653V12.2974Z" fill="#FCD044"/>
    <path d="M10.869 12.2974H10.1953V13.829H10.869V12.2974Z" fill="#FCD044"/>
    <path d="M10.1952 12.2974H9.52148V13.829H10.1952V12.2974Z" fill="#FCD044"/>
    <path d="M9.52137 12.2974H8.84766V13.829H9.52137V12.2974Z" fill="#FCD044"/>
    <path d="M8.84852 12.2974H8.1748V13.829H8.84852V12.2974Z" fill="#FCD044"/>
    <path d="M8.15223 12.2974H7.47852V13.829H8.15223V12.2974Z" fill="#FCD044"/>
    <path d="M7.4784 12.2974H6.80469V13.829H7.4784V12.2974Z" fill="#FCD044"/>
    <path d="M6.80457 12.2974H6.13086V13.829H6.80457V12.2974Z" fill="#FCD044"/>
    <path d="M6.10828 12.2974H5.43457V13.829H6.10828V12.2974Z" fill="#FCD044"/>
    <path d="M5.43445 12.2974H4.76074V13.829H5.43445V12.2974Z" fill="#FCD044"/>
    <path d="M4.76063 12.2974H4.08691V13.829H4.76063V12.2974Z" fill="#FCD044"/>
    <path d="M4.0868 12.2974H3.41309V13.829H4.0868V12.2974Z" fill="#FCD044"/>
    <path d="M3.39149 12.2974H2.71777V13.829H3.39149V12.2974Z" fill="#E85C30"/>
    <path d="M2.71766 12.2974H2.04395V13.829H2.71766V12.2974Z" fill="#E85C30"/>
    <path d="M2.04383 12.2974H1.37012V13.829H2.04383V12.2974Z" fill="#E85C30"/>
    <path d="M1.34754 12.2974H0.673828V13.829H1.34754V12.2974Z" fill="#E85C30"/>
    <path d="M0.673712 12.2974H0V13.829H0.673712V12.2974Z" fill="black"/>
    <path d="M16.9999 10.7659H16.3262V12.2975H16.9999V10.7659Z" fill="black"/>
    <path d="M16.3261 10.7659H15.6523V12.2975H16.3261V10.7659Z" fill="#E85C30"/>
    <path d="M15.6522 10.7659H14.9785V12.2975H15.6522V10.7659Z" fill="#E85C30"/>
    <path d="M14.9559 10.7659H14.2822V12.2975H14.9559V10.7659Z" fill="#E85C30"/>
    <path d="M14.2831 10.7659H13.6094V12.2975H14.2831V10.7659Z" fill="#E85C30"/>
    <path d="M13.6093 10.7659H12.9355V12.2975H13.6093V10.7659Z" fill="#FCD044"/>
    <path d="M12.913 10.7659H12.2393V12.2975H12.913V10.7659Z" fill="#E85C30"/>
    <path d="M12.2391 10.7659H11.5654V12.2975H12.2391V10.7659Z" fill="#FCD044"/>
    <path d="M11.5653 10.7659H10.8916V12.2975H11.5653V10.7659Z" fill="#FCD044"/>
    <path d="M10.869 10.7659H10.1953V12.2975H10.869V10.7659Z" fill="#FCD044"/>
    <path d="M10.1952 10.7659H9.52148V12.2975H10.1952V10.7659Z" fill="#FCD044"/>
    <path d="M9.52137 10.7659H8.84766V12.2975H9.52137V10.7659Z" fill="#FCD044"/>
    <path d="M8.84852 10.7659H8.1748V12.2975H8.84852V10.7659Z" fill="#FCD044"/>
    <path d="M8.15223 10.7659H7.47852V12.2975H8.15223V10.7659Z" fill="#FCD044"/>
    <path d="M7.4784 10.7659H6.80469V12.2975H7.4784V10.7659Z" fill="#FCD044"/>
    <path d="M6.80457 10.7659H6.13086V12.2975H6.80457V10.7659Z" fill="#FCD044"/>
    <path d="M6.10828 10.7659H5.43457V12.2975H6.10828V10.7659Z" fill="#FCD044"/>
    <path d="M5.43445 10.7659H4.76074V12.2975H5.43445V10.7659Z" fill="#FCD044"/>
    <path d="M4.76063 10.7659H4.08691V12.2975H4.76063V10.7659Z" fill="#FCD044"/>
    <path d="M4.0868 10.7659H3.41309V12.2975H4.0868V10.7659Z" fill="#E85C30"/>
    <path d="M3.39149 10.7659H2.71777V12.2975H3.39149V10.7659Z" fill="#E85C30"/>
    <path d="M2.71766 10.7659H2.04395V12.2975H2.71766V10.7659Z" fill="#E85C30"/>
    <path d="M2.04383 10.7659H1.37012V12.2975H2.04383V10.7659Z" fill="#E85C30"/>
    <path d="M1.34754 10.7659H0.673828V12.2975H1.34754V10.7659Z" fill="black"/>
    <path d="M0.673712 10.7659H0V12.2975H0.673712V10.7659Z" fill="black"/>
    <path d="M16.3261 9.23413H15.6523V10.7658H16.3261V9.23413Z" fill="black"/>
    <path d="M15.6522 9.23413H14.9785V10.7658H15.6522V9.23413Z" fill="#E85C30"/>
    <path d="M14.9559 9.23413H14.2822V10.7658H14.9559V9.23413Z" fill="black"/>
    <path d="M14.2831 9.23413H13.6094V10.7658H14.2831V9.23413Z" fill="black"/>
    <path d="M13.6093 9.23413H12.9355V10.7658H13.6093V9.23413Z" fill="black"/>
    <path d="M12.913 9.23413H12.2393V10.7658H12.913V9.23413Z" fill="#E85D31"/>
    <path d="M12.2391 9.23413H11.5654V10.7658H12.2391V9.23413Z" fill="#E85C30"/>
    <path d="M11.5653 9.23413H10.8916V10.7658H11.5653V9.23413Z" fill="#FCD044"/>
    <path d="M10.869 9.23413H10.1953V10.7658H10.869V9.23413Z" fill="#FCD044"/>
    <path d="M10.1952 9.23413H9.52148V10.7658H10.1952V9.23413Z" fill="#FCD044"/>
    <path d="M9.52137 9.23413H8.84766V10.7658H9.52137V9.23413Z" fill="#FCD044"/>
    <path d="M8.84852 9.23413H8.1748V10.7658H8.84852V9.23413Z" fill="#FCD044"/>
    <path d="M8.15223 9.23413H7.47852V10.7658H8.15223V9.23413Z" fill="#FCD044"/>
    <path d="M7.4784 9.23413H6.80469V10.7658H7.4784V9.23413Z" fill="#FCD044"/>
    <path d="M6.80457 9.23413H6.13086V10.7658H6.80457V9.23413Z" fill="#FCD044"/>
    <path d="M6.10828 9.23413H5.43457V10.7658H6.10828V9.23413Z" fill="#E85C30"/>
    <path d="M5.43445 9.23413H4.76074V10.7658H5.43445V9.23413Z" fill="#F3A43A"/>
    <path d="M4.76063 9.23413H4.08691V10.7658H4.76063V9.23413Z" fill="#E85C30"/>
    <path d="M4.0868 9.23413H3.41309V10.7658H4.0868V9.23413Z" fill="#E85C30"/>
    <path d="M3.39149 9.23413H2.71777V10.7658H3.39149V9.23413Z" fill="#E85C30"/>
    <path d="M2.71766 9.23413H2.04395V10.7658H2.71766V9.23413Z" fill="#E85C30"/>
    <path d="M2.04383 9.23413H1.37012V10.7658H2.04383V9.23413Z" fill="black"/>
    <path d="M1.34754 9.23413H0.673828V10.7658H1.34754V9.23413Z" fill="black"/>
    <path d="M15.6522 7.68042H14.9785V9.21205H15.6522V7.68042Z" fill="black"/>
    <path d="M14.9559 7.68042H14.2822V9.21205H14.9559V7.68042Z" fill="black"/>
    <path d="M13.6093 7.68042H12.9355V9.21205H13.6093V7.68042Z" fill="black"/>
    <path d="M12.913 7.68042H12.2393V9.21205H12.913V7.68042Z" fill="#E85C30"/>
    <path d="M12.2391 7.68042H11.5654V9.21205H12.2391V7.68042Z" fill="#E85C30"/>
    <path d="M11.5653 7.68042H10.8916V9.21205H11.5653V7.68042Z" fill="#F5AD3C"/>
    <path d="M10.869 7.68042H10.1953V9.21205H10.869V7.68042Z" fill="#FCD044"/>
    <path d="M10.1952 7.68042H9.52148V9.21205H10.1952V7.68042Z" fill="#F7B83F"/>
    <path d="M9.52137 7.68042H8.84766V9.21205H9.52137V7.68042Z" fill="#FCD044"/>
    <path d="M8.84852 7.68042H8.1748V9.21205H8.84852V7.68042Z" fill="#FCD044"/>
    <path d="M8.15223 7.68042H7.47852V9.21205H8.15223V7.68042Z" fill="#FCD044"/>
    <path d="M7.4784 7.68042H6.80469V9.21205H7.4784V7.68042Z" fill="#FCD044"/>
    <path d="M6.80457 7.68042H6.13086V9.21205H6.80457V7.68042Z" fill="#E85C30"/>
    <path d="M6.10828 7.68042H5.43457V9.21205H6.10828V7.68042Z" fill="#E85C30"/>
    <path d="M5.43445 7.68042H4.76074V9.21205H5.43445V7.68042Z" fill="#E85C30"/>
    <path d="M4.76063 7.68042H4.08691V9.21205H4.76063V7.68042Z" fill="black"/>
    <path d="M4.0868 7.68042H3.41309V9.21205H4.0868V7.68042Z" fill="#E85C30"/>
    <path d="M3.39149 7.68042H2.71777V9.21205H3.39149V7.68042Z" fill="#E85C30"/>
    <path d="M2.71766 7.68042H2.04395V9.21205H2.71766V7.68042Z" fill="black"/>
    <path d="M14.9559 6.14868H14.2822V7.68031H14.9559V6.14868Z" fill="black"/>
    <path d="M13.6093 6.14868H12.9355V7.68031H13.6093V6.14868Z" fill="black"/>
    <path d="M12.913 6.14868H12.2393V7.68031H12.913V6.14868Z" fill="#2B1417"/>
    <path d="M12.2391 6.14868H11.5654V7.68031H12.2391V6.14868Z" fill="#E85C30"/>
    <path d="M11.5653 6.14868H10.8916V7.68031H11.5653V6.14868Z" fill="#E85C30"/>
    <path d="M10.869 6.14868H10.1953V7.68031H10.869V6.14868Z" fill="#E85C30"/>
    <path d="M10.1952 6.14868H9.52148V7.68031H10.1952V6.14868Z" fill="#E85C30"/>
    <path d="M9.52137 6.14868H8.84766V7.68031H9.52137V6.14868Z" fill="#E85C30"/>
    <path d="M8.84852 6.14868H8.1748V7.68031H8.84852V6.14868Z" fill="#FCD044"/>
    <path d="M8.15223 6.14868H7.47852V7.68031H8.15223V6.14868Z" fill="#FCD044"/>
    <path d="M7.4784 6.14868H6.80469V7.68031H7.4784V6.14868Z" fill="#E85C30"/>
    <path d="M6.80457 6.14868H6.13086V7.68031H6.80457V6.14868Z" fill="#E85C30"/>
    <path d="M6.10828 6.14868H5.43457V7.68031H6.10828V6.14868Z" fill="#E85C30"/>
    <path d="M5.43445 6.14868H4.76074V7.68031H5.43445V6.14868Z" fill="black"/>
    <path d="M4.0868 6.14868H3.41309V7.68031H4.0868V6.14868Z" fill="black"/>
    <path d="M3.39149 6.14868H2.71777V7.68031H3.39149V6.14868Z" fill="black"/>
    <path d="M12.913 4.61694H12.2393V6.14858H12.913V4.61694Z" fill="black"/>
    <path d="M12.2391 4.61694H11.5654V6.14858H12.2391V4.61694Z" fill="#E85C30"/>
    <path d="M11.5653 4.61694H10.8916V6.14858H11.5653V4.61694Z" fill="black"/>
    <path d="M10.869 4.61694H10.1953V6.14858H10.869V4.61694Z" fill="black"/>
    <path d="M10.1952 4.61694H9.52148V6.14858H10.1952V4.61694Z" fill="#E85C30"/>
    <path d="M9.52137 4.61694H8.84766V6.14858H9.52137V4.61694Z" fill="#E85C30"/>
    <path d="M8.84852 4.61694H8.1748V6.14858H8.84852V4.61694Z" fill="#E85C30"/>
    <path d="M8.15223 4.61694H7.47852V6.14858H8.15223V4.61694Z" fill="#E85C30"/>
    <path d="M7.4784 4.61694H6.80469V6.14858H7.4784V4.61694Z" fill="#E85C30"/>
    <path d="M6.80457 4.61694H6.13086V6.14858H6.80457V4.61694Z" fill="#E85C30"/>
    <path d="M6.10828 4.61694H5.43457V6.14858H6.10828V4.61694Z" fill="black"/>
    <path d="M12.2391 3.08545H11.5654V4.61708H12.2391V3.08545Z" fill="black"/>
    <path d="M10.1952 3.08545H9.52148V4.61708H10.1952V3.08545Z" fill="black"/>
    <path d="M9.52137 3.08545H8.84766V4.61708H9.52137V3.08545Z" fill="#E85C30"/>
    <path d="M8.84852 3.08545H8.1748V4.61708H8.84852V3.08545Z" fill="#E85C30"/>
    <path d="M8.15223 3.08545H7.47852V4.61708H8.15223V3.08545Z" fill="#E85C30"/>
    <path d="M7.4784 3.08545H6.80469V4.61708H7.4784V3.08545Z" fill="#E85C30"/>
    <path d="M6.80457 3.08545H6.13086V4.61708H6.80457V3.08545Z" fill="black"/>
    <path d="M8.84852 1.53149H8.1748V3.06313H8.84852V1.53149Z" fill="black"/>
    <path d="M8.15223 1.53149H7.47852V3.06313H8.15223V1.53149Z" fill="#E85C30"/>
    <path d="M7.4784 1.53149H6.80469V3.06313H7.4784V1.53149Z" fill="black"/>
    <path d="M8.15223 0H7.47852V1.53163H8.15223V0Z" fill="black"/>
  </symbol>
  <g id="icon-arrow">
    <path xmlns="http://www.w3.org/2000/svg" fill="white" d="M0.646447 3.60445C0.451184 3.79972 0.451184 4.1163 0.646447 4.31156L3.82843 7.49354C4.02369 7.6888 4.34027 7.6888 4.53553 7.49354C4.7308 7.29828 4.7308 6.9817 4.53553 6.78643L1.70711 3.95801L4.53553 1.12958C4.7308 0.934318 4.7308 0.617735 4.53553 0.422473C4.34027 0.227211 4.02369 0.227211 3.82843 0.422473L0.646447 3.60445ZM13 3.45801L1 3.45801L1 4.45801L13 4.45801L13 3.45801Z"/>
  </g>
  <symbol viewBox="0 0 20 20" fill="inherit" stroke="inherit" xmlns="http://www.w3.org/2000/svg" id="icon-search">
    <circle xmlns="http://www.w3.org/2000/svg" cx="8.663" cy="8.5" r="5.51" stroke="inherit" transform="rotate(-45 8.663 8.5)"/><path xmlns="http://www.w3.org/2000/svg" stroke="inherit" d="M12.4404 12.2773L17.1627 16.9996"/>
  </symbol>
</svg>
