<svg width="575" height="640" viewBox="0 0 575 640" fill="none" xmlns="http://www.w3.org/2000/svg">
<path opacity="0.1" d="M0 107H575" stroke="#F2F5F4"/>
<path opacity="0.1" d="M0 320H575" stroke="#F2F5F4"/>
<path opacity="0.1" d="M0 213H575" stroke="#F2F5F4"/>
<path opacity="0.1" d="M39.833 0L39.833 640" stroke="#F2F5F4"/>
<path opacity="0.1" d="M79.8887 0L79.8887 640" stroke="#F2F5F4"/>
<path opacity="0.1" d="M119.944 0L119.944 640" stroke="#F2F5F4"/>
<path opacity="0.1" d="M160 0L160 640" stroke="#F2F5F4"/>
<path opacity="0.1" d="M200.056 0L200.056 640" stroke="#F2F5F4"/>
<path opacity="0.1" d="M240.111 0L240.111 640" stroke="#F2F5F4"/>
<path opacity="0.1" d="M280.167 0L280.167 640" stroke="#F2F5F4"/>
<path opacity="0.1" d="M320 0L320 640" stroke="#F2F5F4"/>
<path opacity="0.1" d="M360.056 0L360.056 640" stroke="#F2F5F4"/>
<path opacity="0.1" d="M400.111 0L400.111 640" stroke="#F2F5F4"/>
<path opacity="0.1" d="M480.223 0L480.223 640" stroke="#F2F5F4"/>
<path opacity="0.1" d="M520.278 0L520.278 640" stroke="#F2F5F4"/>
<path opacity="0.1" d="M560.334 0L560.334 640" stroke="#F2F5F4"/>
<path opacity="0.1" d="M440.334 0L440.334 640" stroke="#F2F5F4"/>
<path opacity="0.1" d="M0 427H575" stroke="#F2F5F4"/>
<path opacity="0.1" d="M0 533H575" stroke="#F2F5F4"/>
<path d="M272.035 144.153L269.613 141.952L267.243 144.106L266.422 143.36L268.792 141.206L266.37 139.005L267.138 138.307L269.561 140.508L271.944 138.342L272.764 139.088L270.381 141.254L272.803 143.455L272.035 144.153Z" fill="#2973EA"/>
<path d="M253.035 443.132L250.613 440.931L248.243 443.085L247.422 442.339L249.792 440.185L247.37 437.984L248.138 437.286L250.561 439.487L252.944 437.321L253.764 438.067L251.381 440.233L253.803 442.434L253.035 443.132Z" fill="#10BF34"/>
<path d="M131.035 364.274L128.613 362.072L126.243 364.226L125.422 363.481L127.792 361.327L125.37 359.126L126.138 358.427L128.561 360.629L130.944 358.463L131.764 359.208L129.381 361.374L131.803 363.575L131.035 364.274Z" fill="#FE0C13"/>
<path d="M188.737 508.932L190.467 509.785L181.864 527.103L180.135 526.249L188.737 508.932ZM198.104 518.882L193.701 514.491L195.038 513.132L200.788 518.882L195.038 524.632L193.701 523.284L198.104 518.882Z" fill="#2074FB"/>
<path d="M176.041 245.84H174.311C173.854 245.84 173.431 245.762 173.042 245.604C172.66 245.455 172.331 245.238 172.054 244.953C171.784 244.669 171.571 244.335 171.414 243.954C171.264 243.572 171.189 243.149 171.189 242.685V237.9C171.189 237.286 171.013 236.89 170.661 236.71C170.309 236.523 169.785 236.429 169.089 236.429V234.34C169.785 234.34 170.309 234.254 170.661 234.082C171.013 233.902 171.189 233.498 171.189 232.869V228.085C171.189 227.621 171.264 227.198 171.414 226.816C171.571 226.434 171.784 226.101 172.054 225.816C172.331 225.532 172.66 225.311 173.042 225.154C173.431 224.989 173.854 224.907 174.311 224.907H176.041V226.996H174.311C173.914 226.996 173.641 227.078 173.491 227.243C173.349 227.4 173.278 227.681 173.278 228.085V232.869C173.278 233.573 173.061 234.146 172.626 234.587C172.2 235.022 171.713 235.291 171.167 235.396C171.444 235.441 171.706 235.531 171.953 235.666C172.207 235.793 172.428 235.969 172.615 236.193C172.81 236.41 172.967 236.665 173.087 236.957C173.214 237.249 173.278 237.563 173.278 237.9V242.685C173.278 243.081 173.349 243.358 173.491 243.516C173.641 243.68 173.914 243.763 174.311 243.763H176.041V245.84Z" fill="#2074FB"/>
<path d="M40 638.68H46.1376V640H40V638.68Z" fill="white"/>
<path d="M174 28H180.138V29.3199H174V28Z" fill="white"/>
<path d="M257 541.444H263.138V542.764H257V541.444Z" fill="white"/>
</svg>
