<svg width="1221" height="735" viewBox="0 0 1221 735" fill="none" xmlns="http://www.w3.org/2000/svg">
<path d="M1215.42 243.571L1211.76 239.908L1208.18 243.492L1206.94 242.251L1210.52 238.668L1206.86 235.006L1208.02 233.844L1211.68 237.506L1215.29 233.903L1216.53 235.143L1212.92 238.747L1216.59 242.409L1215.42 243.571Z" fill="#2973EA"/>
<path d="M970.44 43.8417L966.777 40.1794L963.194 43.7629L961.953 42.5224L965.537 38.9389L961.875 35.2766L963.036 34.1149L966.699 37.7772L970.302 34.174L971.542 35.4145L967.939 39.0177L971.601 42.68L970.44 43.8417Z" fill="#2973EA"/>
<path d="M793.34 164.86L789.678 161.197L786.094 164.781L784.854 163.541L788.437 159.957L784.775 156.295L785.937 155.133L789.599 158.795L793.202 155.192L794.443 156.433L790.84 160.036L794.502 163.698L793.34 164.86Z" fill="#2973EA"/>
<path d="M446.056 16.9707H441.093V14.8818H442.013L440.587 12.6919L439.183 14.8818H440.037V16.9707H435.118V14.8818H436.634L438.981 11.6587L436.746 8.604H435.343V6.50391H440.059V8.604H439.318L440.587 10.6255L441.879 8.604H441.048V6.50391H445.809V8.604H444.45L442.216 11.6587L444.563 14.8818H446.056V16.9707ZM456.939 21.1597H455.209C454.753 21.1597 454.33 21.0811 453.94 20.9238C453.558 20.7741 453.229 20.557 452.952 20.2725C452.682 19.988 452.469 19.6548 452.312 19.2729C452.162 18.8911 452.087 18.4681 452.087 18.0039V13.2197C452.087 12.6058 451.911 12.209 451.559 12.0293C451.207 11.8421 450.683 11.7485 449.987 11.7485V9.65967C450.683 9.65967 451.207 9.57357 451.559 9.40137C451.911 9.22168 452.087 8.81738 452.087 8.18848V3.4043C452.087 2.9401 452.162 2.51709 452.312 2.13525C452.469 1.75342 452.682 1.42025 452.952 1.13574C453.229 0.851237 453.558 0.630371 453.94 0.473145C454.33 0.308431 454.753 0.226074 455.209 0.226074H456.939V2.31494H455.209C454.812 2.31494 454.539 2.3973 454.389 2.56201C454.247 2.71924 454.176 3 454.176 3.4043V8.18848C454.176 8.89225 453.959 9.46501 453.525 9.90674C453.098 10.341 452.611 10.6105 452.065 10.7153C452.342 10.7603 452.604 10.8501 452.851 10.9849C453.105 11.1121 453.326 11.2881 453.513 11.5127C453.708 11.7298 453.865 11.9844 453.985 12.2764C454.112 12.5684 454.176 12.8828 454.176 13.2197V18.0039C454.176 18.4007 454.247 18.6777 454.389 18.835C454.539 18.9997 454.812 19.082 455.209 19.082H456.939V21.1597Z" fill="#2973EA"/>
<path d="M1139.32 79.7109H1148.6V81.9069H1139.32V79.7109Z" fill="white"/>
<path d="M952.388 316.823H961.668V319.019H952.388V316.823Z" fill="white"/>
<path d="M785.13 1H794.41V3.19601H785.13V1Z" fill="white"/>
<path d="M4.76434 656.799L8.42663 653.137L12.0102 656.72L13.2506 655.48L9.66708 651.896L13.3294 648.234L12.1677 647.072L8.50539 650.735L4.90217 647.132L3.66171 648.372L7.26493 651.975L3.60265 655.637L4.76434 656.799Z" fill="#2973EA"/>
<path d="M249.747 457.072L253.409 453.41L256.993 456.993L258.233 455.753L254.65 452.169L258.312 448.507L257.15 447.345L253.488 451.008L249.885 447.404L248.644 448.645L252.247 452.248L248.585 455.91L249.747 457.072Z" fill="#2973EA"/>
<path d="M426.848 578.089L430.511 574.427L434.094 578.01L435.335 576.77L431.751 573.186L435.413 569.524L434.252 568.362L430.589 572.025L426.986 568.422L425.746 569.662L429.349 573.265L425.687 576.928L426.848 578.089Z" fill="#2973EA"/>
<path d="M774.131 430.194H779.095V428.105H778.174L779.6 425.915L781.004 428.105H780.151V430.194H785.07V428.105H783.553L781.206 424.882L783.441 421.827H784.845V419.727H780.128V421.827H780.869L779.6 423.849L778.309 421.827H779.14V419.727H774.378V421.827H775.737L777.972 424.882L775.625 428.105H774.131V430.194ZM763.249 434.383H764.978C765.435 434.383 765.858 434.304 766.247 434.147C766.629 433.997 766.959 433.78 767.236 433.496C767.505 433.211 767.718 432.878 767.876 432.496C768.025 432.114 768.1 431.691 768.1 431.227V426.443C768.1 425.829 768.276 425.432 768.628 425.252C768.98 425.065 769.504 424.972 770.2 424.972V422.883C769.504 422.883 768.98 422.797 768.628 422.625C768.276 422.445 768.1 422.041 768.1 421.412V416.627C768.1 416.163 768.025 415.74 767.876 415.358C767.718 414.977 767.505 414.643 767.236 414.359C766.959 414.074 766.629 413.854 766.247 413.696C765.858 413.532 765.435 413.449 764.978 413.449H763.249V415.538H764.978C765.375 415.538 765.648 415.62 765.798 415.785C765.94 415.942 766.011 416.223 766.011 416.627V421.412C766.011 422.115 766.229 422.688 766.663 423.13C767.09 423.564 767.576 423.834 768.123 423.938C767.846 423.983 767.584 424.073 767.337 424.208C767.082 424.335 766.861 424.511 766.674 424.736C766.479 424.953 766.322 425.208 766.202 425.5C766.075 425.792 766.011 426.106 766.011 426.443V431.227C766.011 431.624 765.94 431.901 765.798 432.058C765.648 432.223 765.375 432.305 764.978 432.305H763.249V434.383Z" fill="#2973EA"/>
<path d="M80.8643 492.936H71.5844V495.132H80.8643V492.936Z" fill="white"/>
<path d="M267.798 730.048H258.518V732.244H267.798V730.048Z" fill="white"/>
<path d="M435.061 414.227H425.781V416.423H435.061V414.227Z" fill="white"/>
<path d="M249.262 216.025L245.6 212.362L242.016 215.946L240.776 214.706L244.359 211.122L240.697 207.46L241.859 206.298L245.521 209.96L249.124 206.357L250.365 207.598L246.761 211.201L250.424 214.863L249.262 216.025Z" fill="#2973EA"/>
<path d="M700.859 640.073L697.196 636.411L693.613 639.994L692.372 638.754L695.956 635.17L692.294 631.508L693.455 630.346L697.118 634.009L700.721 630.405L701.961 631.646L698.358 635.249L702.02 638.911L700.859 640.073Z" fill="#10BF34"/>
<path d="M343.715 306.542L340.053 302.88L336.469 306.464L335.229 305.223L338.812 301.64L335.15 297.977L336.312 296.816L339.974 300.478L343.577 296.875L344.818 298.115L341.215 301.718L344.877 305.381L343.715 306.542Z" fill="#10BF34"/>
<path d="M608.375 164.86L604.713 161.197L601.129 164.781L599.889 163.541L603.473 159.957L599.81 156.295L600.972 155.133L604.634 158.795L608.237 155.192L609.478 156.433L605.875 160.036L609.537 163.698L608.375 164.86Z" fill="#10BF34"/>
<path d="M821.877 281.944L818.215 278.282L814.631 281.865L813.391 280.625L816.975 277.041L813.312 273.379L814.474 272.217L818.136 275.88L821.739 272.277L822.98 273.517L819.377 277.12L823.039 280.783L821.877 281.944Z" fill="#FE0C13"/>
<path d="M89.4131 45.8975L91.1426 46.751L82.54 64.0684L80.8105 63.2148L89.4131 45.8975ZM98.7793 55.8477L94.377 51.4565L95.7134 50.0977L101.463 55.8477L95.7134 61.5977L94.377 60.25L98.7793 55.8477Z" fill="#FE0C13"/>
<path d="M1106.74 688.369L1108.47 689.223L1099.87 706.54L1098.14 705.687L1106.74 688.369ZM1116.11 698.319L1111.7 693.928L1113.04 692.569L1118.79 698.319L1113.04 704.069L1111.7 702.722L1116.11 698.319Z" fill="#2074FB"/>
<path d="M622.977 734.466H621.248C620.791 734.466 620.368 734.387 619.979 734.23C619.597 734.08 619.267 733.863 618.99 733.579C618.721 733.294 618.507 732.961 618.35 732.579C618.2 732.197 618.125 731.774 618.125 731.31V726.526C618.125 725.912 617.95 725.515 617.598 725.335C617.246 725.148 616.722 725.055 616.025 725.055V722.966C616.722 722.966 617.246 722.88 617.598 722.708C617.95 722.528 618.125 722.124 618.125 721.495V716.71C618.125 716.246 618.2 715.823 618.35 715.441C618.507 715.06 618.721 714.726 618.99 714.442C619.267 714.157 619.597 713.937 619.979 713.779C620.368 713.615 620.791 713.532 621.248 713.532H622.977V715.621H621.248C620.851 715.621 620.577 715.703 620.428 715.868C620.285 716.025 620.214 716.306 620.214 716.71V721.495C620.214 722.198 619.997 722.771 619.563 723.213C619.136 723.647 618.65 723.917 618.103 724.021C618.38 724.066 618.642 724.156 618.889 724.291C619.144 724.418 619.365 724.594 619.552 724.819C619.746 725.036 619.904 725.291 620.023 725.583C620.151 725.875 620.214 726.189 620.214 726.526V731.31C620.214 731.707 620.285 731.984 620.428 732.141C620.577 732.306 620.851 732.388 621.248 732.388H622.977V734.466Z" fill="#2074FB"/>
<path d="M966.161 606.082H975.441V608.278H966.161V606.082Z" fill="white"/>
<path d="M343.373 127.92H352.653V130.116H343.373V127.92Z" fill="white"/>
<path d="M16.7246 293.212H26.0045V295.408H16.7246V293.212Z" fill="white"/>
</svg>
