<svg width="203" height="689" viewBox="0 0 203 689" fill="none" xmlns="http://www.w3.org/2000/svg">
<path d="M196.348 14.3901L192.625 10.6793L188.983 14.3103L187.722 13.0534L191.365 9.42234L187.642 5.71145L188.823 4.53434L192.545 8.24523L196.208 4.59419L197.468 5.85111L193.806 9.50214L197.528 13.213L196.348 14.3901Z" fill="#2973EA"/>
<path d="M12.3478 232.718L8.62544 229.007L4.98317 232.638L3.72239 231.381L7.36465 227.75L3.64234 224.039L4.82307 222.862L8.54539 226.573L12.2077 222.922L13.4685 224.179L9.80617 227.83L13.5285 231.541L12.3478 232.718Z" fill="#2973EA"/>
<path d="M62 631.94H71.432V634.166H62V631.94Z" fill="white"/>
<path d="M114 678.796H123.432V681.021H114V678.796Z" fill="white"/>
<path d="M0 7.86182H9.432V10.087H0V7.86182Z" fill="white"/>
<path d="M197.348 685.324L193.625 681.613L189.983 685.244L188.722 683.988L192.365 680.356L188.642 676.646L189.823 675.468L193.545 679.179L197.208 675.528L198.468 676.785L194.806 680.436L198.528 684.147L197.348 685.324Z" fill="#E22A30"/>
</svg>
