<svg width="305" height="271" viewBox="0 0 305 271" fill="none" xmlns="http://www.w3.org/2000/svg">
<g clip-path="url(#clip0)">
<path d="M275.13 170.369L295.211 170.62C296.466 170.62 297.47 169.616 297.47 168.11C297.47 166.605 296.466 165.601 295.211 165.601L275.13 165.35C273.875 165.35 272.871 166.354 272.871 167.859C272.871 169.114 273.875 170.369 275.13 170.369Z" fill="#E22A30"/>
<path d="M167.7 215.54L141.595 215.791C140.34 215.791 139.336 214.787 139.336 213.532C139.336 212.278 140.34 211.274 141.595 211.274L167.7 210.772C168.955 210.772 169.959 211.776 169.959 213.03C169.959 214.536 168.955 215.54 167.7 215.54Z" fill="#10BF34"/>
<path d="M209.366 164.597L185.772 164.848C184.517 164.848 183.513 163.844 183.513 162.589C183.513 161.335 184.517 160.331 185.772 160.331L209.366 160.08C210.621 160.08 211.625 161.084 211.625 162.338C211.625 163.593 210.621 164.597 209.366 164.597Z" fill="#10BF34"/>
<path d="M146.364 192.954L120.259 193.205C119.004 193.205 118 192.202 118 190.947C118 189.692 119.004 188.688 120.259 188.688L146.113 188.186C147.368 188.186 148.372 189.19 148.372 190.445C148.623 191.7 147.619 192.703 146.364 192.954Z" fill="#10BF34"/>
<path d="M248.775 149.54L239.488 149.791C238.233 149.791 237.229 148.787 237.229 147.532C237.229 146.278 238.233 145.274 239.488 145.274L248.775 145.023C250.03 145.023 251.034 146.027 251.034 147.281C251.034 148.536 250.03 149.54 248.775 149.54Z" fill="#10BF34"/>
<path d="M263.081 237.122L292.198 237.624C293.453 237.624 294.457 236.62 294.457 235.365C294.457 234.11 293.453 233.106 292.198 233.106L263.081 232.605C261.826 232.605 260.822 233.608 260.822 234.863C260.822 236.118 261.826 237.122 263.081 237.122Z" fill="#E22A30"/>
<path d="M272.117 179.403L285.923 179.654C286.676 179.654 287.429 178.65 287.429 177.144C287.429 175.89 286.927 174.635 285.923 174.635L272.117 174.384C271.364 174.384 270.611 175.388 270.611 176.894C270.611 178.148 271.364 179.403 272.117 179.403Z" fill="#E22A30"/>
<path d="M268.354 207.509L296.969 208.011C297.973 208.011 298.726 206.757 298.726 205.251C298.726 203.745 297.973 202.49 296.969 202.49L268.354 201.989C267.35 201.989 266.597 203.243 266.597 204.749C266.597 206.255 267.35 207.509 268.354 207.509Z" fill="#E22A30"/>
<path d="M263.081 244.399H266.595C267.85 244.399 268.854 243.395 268.854 242.141C268.854 240.886 267.85 239.882 266.595 239.882H263.081C261.826 239.882 260.822 240.886 260.822 242.141C260.822 243.395 261.826 244.399 263.081 244.399Z" fill="#E22A30"/>
<path d="M267.851 143.517L253.292 143.768C252.037 143.768 251.033 142.764 251.033 141.51C251.033 140.255 252.037 139.251 253.292 139.251L267.6 139C268.855 139 269.859 140.004 269.859 141.259C270.11 142.513 269.106 143.517 267.851 143.517Z" fill="#10BF34"/>
<path d="M176.986 235.616L162.428 235.867C161.173 235.867 160.169 234.863 160.169 233.608C160.169 232.354 161.173 231.35 162.428 231.35L176.986 231.099C178.241 231.099 179.245 232.103 179.245 233.357C179.496 234.361 178.492 235.365 176.986 235.616Z" fill="#10BF34"/>
<path d="M182.257 246.407L157.658 246.658C156.403 246.658 155.399 245.654 155.399 244.399C155.399 243.145 156.403 242.141 157.658 242.141L182.257 241.89C183.512 241.89 184.516 242.894 184.516 244.148C184.516 245.403 183.512 246.407 182.257 246.407Z" fill="#10BF34"/>
<path d="M177.238 168.361H174.226C172.971 168.361 171.967 167.357 171.967 166.103C171.967 164.848 172.971 163.844 174.226 163.844H177.238C178.493 163.844 179.497 164.848 179.497 166.103C179.497 167.357 178.493 168.361 177.238 168.361Z" fill="#10BF34"/>
<path d="M273.374 141.76C270.864 139.502 267.099 139 263.334 140.506L139.336 187.935C132.308 190.696 130.802 194.209 131.053 196.719C131.053 198.475 132.057 201.738 138.081 203.745L166.445 212.528L184.015 249.669C184.266 251.175 185.019 252.681 186.525 253.684C188.032 254.688 190.291 254.688 191.797 253.935C193.303 253.182 194.307 252.179 195.06 251.175L208.865 238.125L238.986 260.209L239.237 260.46C241.496 261.715 243.755 262.468 245.763 262.468C247.018 262.468 248.022 262.217 249.277 261.715C252.289 260.46 254.046 257.449 255.05 253.182L275.884 155.312L276.135 153.806C277.641 146.779 275.131 143.266 273.374 141.76ZM184.517 237.624L172.72 212.779L235.472 173.631L185.772 218.049L184.517 237.624ZM270.613 152.049L249.528 251.426C249.026 253.935 248.022 255.441 247.018 255.943C246.014 256.445 244.257 255.943 242.249 254.939L208.363 230.095L190.793 246.658C190.291 247.16 190.04 247.411 189.538 247.913L191.546 220.81L250.281 168.11C252.791 165.852 252.54 163.593 251.536 162.087C249.779 159.829 246.265 159.829 243.002 162.087L170.21 207.509L139.838 197.973C137.579 197.22 136.826 196.468 136.826 196.468C136.826 196.217 137.83 194.711 141.344 193.456L265.342 145.776C267.099 145.023 268.605 145.274 269.609 146.027C270.613 147.03 271.115 149.289 270.613 152.049Z" fill="#10BF34"/>
<path d="M277.891 150.795C275.381 148.536 271.616 148.034 267.851 149.54L143.854 196.97C136.826 199.73 135.32 203.243 135.571 205.502C135.571 207.259 136.575 210.521 142.599 212.528L170.963 221.312L188.533 258.452C188.784 259.958 189.537 261.464 191.043 262.468C192.549 263.471 194.808 263.471 196.314 262.719C197.82 261.966 198.824 260.962 199.577 259.958L213.383 246.909L243.503 268.992L243.754 269.243C246.014 270.498 248.273 271.251 250.281 271.251C251.536 271.251 252.54 271 253.795 270.498C256.807 269.243 258.564 266.232 259.568 261.966L280.401 164.095L280.652 163.091C282.159 155.814 279.648 152.3 277.891 150.795ZM189.035 246.658L177.238 221.814L239.989 182.665L190.541 227.084L189.035 246.658ZM275.13 161.084L254.046 260.46C253.544 262.97 252.54 264.475 251.536 264.977C250.532 265.479 248.775 264.977 246.767 263.973L212.881 239.129L195.561 255.692C195.059 256.194 194.808 256.445 194.306 256.947L196.314 229.844L255.05 177.144C257.56 174.886 257.309 172.627 256.305 171.122C254.548 168.863 251.034 168.863 247.771 171.122L174.728 216.544L144.356 207.008C142.097 206.255 141.344 205.502 141.344 205.502C141.344 205.251 142.348 203.745 145.862 202.49L269.859 154.81C271.616 154.057 273.122 154.308 274.126 155.061C275.381 156.065 275.632 158.323 275.13 161.084Z" fill="#E22A30"/>
<path d="M296.718 160.582L276.135 160.833C274.88 160.833 273.876 159.829 273.876 158.574C273.876 157.319 274.88 156.316 276.135 156.316L296.718 156.065C297.973 156.065 298.977 157.068 298.977 158.323C298.977 159.578 297.973 160.582 296.718 160.582Z" fill="white"/>
<path d="M170.962 224.323L144.858 224.825C143.603 224.825 142.599 223.821 142.599 222.567C142.599 221.312 143.603 220.308 144.858 220.308L170.962 219.806C172.217 219.806 173.221 220.81 173.221 222.065C173.221 223.068 172.217 224.323 170.962 224.323Z" fill="white"/>
<path d="M240.994 160.331L217.4 160.582C216.145 160.582 215.141 159.578 215.141 158.323C215.141 157.068 216.145 156.065 217.4 156.065L240.994 155.814C242.249 155.814 243.253 156.818 243.253 158.072C243.253 159.327 242.249 160.331 240.994 160.331Z" fill="white"/>
<path d="M173.975 180.407L148.121 180.909C146.866 180.909 145.862 179.905 145.862 178.65C145.862 177.395 146.866 176.392 148.121 176.392L173.975 175.89C175.23 175.89 176.234 176.894 176.234 178.148C176.234 179.403 175.23 180.407 173.975 180.407Z" fill="white"/>
<path d="M216.395 153.806L207.108 154.057C205.853 154.057 204.849 153.053 204.849 151.798C204.849 150.544 205.853 149.54 207.108 149.54L216.395 149.038C217.65 149.038 218.654 150.042 218.654 151.297C218.654 152.802 217.65 153.806 216.395 153.806Z" fill="white"/>
<path d="M285.422 254.186L256.305 254.688C255.05 254.688 254.046 253.684 254.046 252.43C254.046 251.175 255.05 250.171 256.305 250.171L285.422 249.418C286.677 249.418 287.681 250.422 287.681 251.677C287.681 253.183 286.677 254.186 285.422 254.186Z" fill="white"/>
<path d="M292.199 188.186L270.864 188.437C269.609 188.437 268.604 187.434 268.604 186.179C268.604 184.924 269.609 183.92 270.864 183.92L292.199 183.669C293.454 183.669 294.458 184.673 294.458 185.928C294.458 186.932 293.454 188.186 292.199 188.186Z" fill="white"/>
<path d="M302.741 217.046L263.835 217.548C262.58 217.548 261.576 216.544 261.576 215.289C261.576 214.034 262.58 213.03 263.835 213.03L302.741 212.529C303.996 212.529 305 213.532 305 214.787C305 216.042 303.996 217.046 302.741 217.046Z" fill="white"/>
<path d="M297.219 253.935H293.705C292.45 253.935 291.446 252.932 291.446 251.677C291.446 250.422 292.45 249.418 293.705 249.418H297.219C298.474 249.418 299.479 250.422 299.479 251.677C299.479 252.932 298.474 253.935 297.219 253.935Z" fill="white"/>
<path d="M288.936 224.825L278.896 225.076C277.641 225.076 276.637 224.072 276.637 222.818C276.637 221.563 277.641 220.559 278.896 220.559L288.936 220.308C290.191 220.308 291.195 221.312 291.195 222.567C291.195 223.821 290.191 224.825 288.936 224.825Z" fill="white"/>
<path d="M165.44 188.688L150.882 188.939C149.627 188.939 148.623 187.935 148.623 186.681C148.623 185.426 149.627 184.422 150.882 184.422L165.44 184.171C166.696 184.171 167.7 185.175 167.7 186.43C167.7 187.684 166.696 188.688 165.44 188.688Z" fill="white"/>
<path d="M180.501 244.148L165.943 244.399C164.688 244.399 163.684 243.395 163.684 242.141C163.684 240.886 164.688 239.882 165.943 239.882L180.501 239.631C181.756 239.631 182.76 240.635 182.76 241.89C182.76 243.144 181.756 244.148 180.501 244.148Z" fill="white"/>
<path d="M286.426 151.297L274.378 151.548C273.625 151.548 272.872 150.544 272.872 149.289C272.872 148.034 273.374 147.03 274.127 147.03L286.175 146.779C286.928 146.779 287.681 147.783 287.681 149.038C287.932 150.293 287.179 151.297 286.426 151.297Z" fill="white"/>
<path d="M185.522 255.19L160.923 255.441C159.668 255.441 158.664 254.437 158.664 253.183C158.664 251.928 159.668 250.924 160.923 250.924L185.522 250.673C186.777 250.673 187.781 251.677 187.781 252.932C187.781 253.935 186.777 255.19 185.522 255.19Z" fill="white"/>
<path d="M141.344 181.16H138.332C137.077 181.16 136.073 180.156 136.073 178.901C135.822 177.646 136.826 176.643 138.081 176.643H141.093C142.348 176.643 143.352 177.646 143.352 178.901C143.603 180.156 142.599 181.16 141.344 181.16Z" fill="white"/>
<path d="M275.632 146.278C273.122 144.019 269.357 143.517 265.592 145.023L141.595 192.452C134.316 195.213 133.061 198.475 133.061 200.985C133.061 202.741 134.065 206.004 140.089 208.011L168.452 216.795L186.023 253.935C186.274 255.441 187.027 256.947 188.533 257.951C190.039 258.954 192.298 258.954 193.804 258.202C195.31 257.449 196.314 256.445 197.067 255.441L210.873 242.392L240.993 264.475L241.244 264.726C243.504 265.981 245.763 266.734 247.771 266.734C249.026 266.734 250.03 266.483 251.285 265.981C254.297 264.726 256.054 261.715 257.058 257.449L277.891 159.578L278.142 158.574C279.899 151.046 277.138 147.532 275.632 146.278ZM186.776 241.89L174.979 217.046L237.73 177.897L188.031 222.316L186.776 241.89ZM272.62 156.567L251.536 255.943C251.034 258.452 250.03 259.958 249.026 260.46C248.022 260.962 246.265 260.46 244.257 259.456L210.371 234.612L193.051 251.175C192.549 251.677 192.298 251.928 191.796 252.43L193.804 225.327L252.54 172.627C255.05 170.369 254.799 168.11 253.795 166.605C252.038 164.346 248.524 164.346 245.261 166.605L172.469 212.027L141.846 202.491C139.587 201.738 138.834 200.985 138.834 200.985C138.834 200.734 139.838 199.228 143.352 197.973L267.6 150.293C269.357 149.54 270.863 149.791 271.867 150.544C272.871 151.548 273.373 153.806 272.62 156.567Z" fill="white"/>
</g>
<g clip-path="url(#clip1)">
<path d="M17.0912 103.061L5.60124 103.205C4.88312 103.205 4.30862 102.627 4.30862 101.76C4.30862 100.894 4.88312 100.316 5.60124 100.316L17.0912 100.171C17.8093 100.171 18.3838 100.749 18.3838 101.616C18.3838 102.338 17.8093 103.061 17.0912 103.061Z" fill="#E22A30"/>
<path d="M78.5625 129.068L93.4994 129.213C94.2175 129.213 94.792 128.635 94.792 127.913C94.792 127.19 94.2175 126.612 93.4994 126.612L78.5625 126.323C77.8443 126.323 77.2698 126.901 77.2698 127.624C77.2698 128.49 77.8443 129.068 78.5625 129.068Z" fill="#10BF34"/>
<path d="M54.7204 99.7376L68.2211 99.8821C68.9392 99.8821 69.5137 99.3042 69.5137 98.5817C69.5137 97.8593 68.9392 97.2814 68.2211 97.2814L54.7204 97.1369C54.0023 97.1369 53.4278 97.7148 53.4278 98.4373C53.4278 99.1597 54.0023 99.7376 54.7204 99.7376Z" fill="#10BF34"/>
<path d="M90.7705 116.065L105.707 116.209C106.426 116.209 107 115.631 107 114.909C107 114.186 106.426 113.608 105.707 113.608L90.9141 113.319C90.196 113.319 89.6215 113.897 89.6215 114.62C89.4779 115.342 90.0523 115.92 90.7705 116.065Z" fill="#10BF34"/>
<path d="M32.1716 91.0684L37.4857 91.2129C38.2038 91.2129 38.7783 90.635 38.7783 89.9125C38.7783 89.1901 38.2038 88.6122 37.4857 88.6122L32.1716 88.4677C31.4535 88.4677 30.879 89.0456 30.879 89.7681C30.879 90.4905 31.4535 91.0684 32.1716 91.0684Z" fill="#10BF34"/>
<path d="M23.9857 141.494L7.3253 141.783C6.60718 141.783 6.03268 141.205 6.03268 140.483C6.03268 139.76 6.60718 139.182 7.3253 139.182L23.9857 138.894C24.7038 138.894 25.2783 139.471 25.2783 140.194C25.2783 140.916 24.7038 141.494 23.9857 141.494Z" fill="#E22A30"/>
<path d="M18.815 108.262L10.9157 108.407C10.4848 108.407 10.0539 107.829 10.0539 106.962C10.0539 106.24 10.3412 105.517 10.9157 105.517L18.815 105.373C19.2459 105.373 19.6768 105.951 19.6768 106.817C19.6768 107.54 19.2459 108.262 18.815 108.262Z" fill="#E22A30"/>
<path d="M20.9692 124.445L4.59608 124.734C4.02158 124.734 3.59071 124.011 3.59071 123.144C3.59071 122.278 4.02158 121.555 4.59608 121.555L20.9692 121.266C21.5437 121.266 21.9746 121.989 21.9746 122.856C21.9746 123.722 21.5437 124.445 20.9692 124.445Z" fill="#E22A30"/>
<path d="M23.9857 145.684H21.975C21.2569 145.684 20.6824 145.106 20.6824 144.384C20.6824 143.662 21.2569 143.084 21.975 143.084H23.9857C24.7038 143.084 25.2783 143.662 25.2783 144.384C25.2783 145.106 24.7038 145.684 23.9857 145.684Z" fill="#E22A30"/>
<path d="M21.2561 87.6008L29.5863 87.7452C30.3044 87.7452 30.8789 87.1673 30.8789 86.4449C30.8789 85.7224 30.3044 85.1445 29.5863 85.1445L21.3997 85C20.6816 85 20.1071 85.5779 20.1071 86.3004C19.9635 87.0228 20.538 87.6008 21.2561 87.6008Z" fill="#10BF34"/>
<path d="M73.2483 140.627L81.5785 140.772C82.2966 140.772 82.8711 140.194 82.8711 139.471C82.8711 138.749 82.2966 138.171 81.5785 138.171L73.2483 138.027C72.5302 138.027 71.9557 138.605 71.9557 139.327C71.812 139.905 72.3865 140.483 73.2483 140.627Z" fill="#10BF34"/>
<path d="M70.2328 146.84L84.308 146.985C85.0261 146.985 85.6006 146.407 85.6006 145.684C85.6006 144.962 85.0261 144.384 84.308 144.384L70.2328 144.24C69.5147 144.24 68.9402 144.817 68.9402 145.54C68.9402 146.262 69.5147 146.84 70.2328 146.84Z" fill="#10BF34"/>
<path d="M73.105 101.905H74.8285C75.5466 101.905 76.1211 101.327 76.1211 100.605C76.1211 99.8821 75.5466 99.3042 74.8285 99.3042H73.105C72.3869 99.3042 71.8124 99.8821 71.8124 100.605C71.8124 101.327 72.3869 101.905 73.105 101.905Z" fill="#10BF34"/>
<path d="M18.0963 86.5893C19.5325 85.289 21.6869 85 23.8413 85.8669L94.7916 113.175C98.8131 114.764 99.6748 116.787 99.5312 118.232C99.5312 119.243 98.9567 121.122 95.5097 122.278L79.2802 127.335L69.2265 148.719C69.0829 149.586 68.652 150.452 67.7903 151.03C66.9285 151.608 65.6359 151.608 64.7742 151.175C63.9124 150.741 63.3379 150.164 62.9071 149.586L55.0077 142.072L37.7728 154.787L37.6292 154.932C36.3366 155.654 35.044 156.087 33.895 156.087C33.1768 156.087 32.6023 155.943 31.8842 155.654C30.1607 154.932 29.1554 153.198 28.5809 150.741L16.6601 94.3916L16.5164 93.5247C15.6547 89.4791 17.0909 87.4563 18.0963 86.5893ZM68.9393 141.783L75.6896 127.479L39.7836 104.939L68.2211 130.513L68.9393 141.783ZM19.6762 92.5133L31.7406 149.73C32.0279 151.175 32.6023 152.042 33.1768 152.331C33.7513 152.62 34.7567 152.331 35.9057 151.753L55.295 137.449L65.3487 146.985C65.6359 147.274 65.7795 147.418 66.0668 147.707L64.9178 132.103L31.3097 101.76C29.8735 100.46 30.0171 99.1597 30.5916 98.2928C31.597 96.9924 33.6077 96.9924 35.4748 98.2928L77.1258 124.445L94.5044 118.954C95.797 118.521 96.2279 118.087 96.2279 118.087C96.2279 117.943 95.6534 117.076 93.6426 116.354L22.6923 88.9011C21.6869 88.4677 20.8252 88.6122 20.2507 89.0456C19.6762 89.6236 19.3889 90.9239 19.6762 92.5133Z" fill="#10BF34"/>
<path d="M15.5114 91.7909C16.9476 90.4905 19.102 90.2015 21.2563 91.0684L92.2067 118.376C96.2281 119.966 97.0899 121.989 96.9463 123.289C96.9463 124.3 96.3718 126.179 92.9248 127.335L76.6952 132.392L66.6416 153.776C66.4979 154.643 66.0671 155.51 65.2053 156.087C64.3436 156.665 63.051 156.665 62.1892 156.232C61.3275 155.798 60.753 155.221 60.3221 154.643L52.4228 147.129L35.1879 159.844L35.0442 159.989C33.7516 160.711 32.459 161.145 31.31 161.145C30.5919 161.145 30.0174 161 29.2993 160.711C27.5758 159.989 26.5704 158.255 25.9959 155.798L14.0751 99.4487L13.9315 98.8707C13.0697 94.6806 14.506 92.6578 15.5114 91.7909ZM66.3543 146.985L73.1046 132.681L37.1986 110.141L65.4926 135.715L66.3543 146.985ZM17.0912 97.7148L29.1557 154.932C29.4429 156.376 30.0174 157.243 30.5919 157.532C31.1664 157.821 32.1718 157.532 33.3208 156.954L52.71 142.65L62.6201 152.186C62.9073 152.475 63.051 152.62 63.3382 152.909L62.1892 137.304L28.5812 106.962C27.1449 105.662 27.2885 104.361 27.863 103.494C28.8684 102.194 30.8791 102.194 32.7463 103.494L74.5409 129.646L91.9194 124.156C93.212 123.722 93.6429 123.289 93.6429 123.289C93.6429 123.145 93.0684 122.278 91.0577 121.555L20.1073 94.1027C19.102 93.6692 18.2402 93.8137 17.6657 94.2472C16.9476 94.8251 16.804 96.1255 17.0912 97.7148Z" fill="#E22A30"/>
<path d="M4.73978 97.4259L16.517 97.5703C17.2351 97.5703 17.8096 96.9924 17.8096 96.27C17.8096 95.5475 17.2351 94.9696 16.517 94.9696L4.73978 94.8251C4.02166 94.8251 3.44716 95.403 3.44716 96.1255C3.44716 96.8479 4.02166 97.4259 4.73978 97.4259Z" fill="white"/>
<path d="M76.6962 134.125L91.6332 134.414C92.3513 134.414 92.9258 133.837 92.9258 133.114C92.9258 132.392 92.3513 131.814 91.6332 131.814L76.6962 131.525C75.9781 131.525 75.4036 132.103 75.4036 132.825C75.4036 133.403 75.9781 134.125 76.6962 134.125Z" fill="white"/>
<path d="M36.6247 97.2814L50.1254 97.4258C50.8435 97.4258 51.418 96.8479 51.418 96.1255C51.418 95.403 50.8435 94.8251 50.1254 94.8251L36.6247 94.6806C35.9066 94.6806 35.3321 95.2585 35.3321 95.981C35.3321 96.7034 35.9066 97.2814 36.6247 97.2814Z" fill="white"/>
<path d="M74.9717 108.84L89.765 109.129C90.4831 109.129 91.0576 108.551 91.0576 107.829C91.0576 107.106 90.4831 106.529 89.765 106.529L74.9717 106.24C74.2536 106.24 73.6791 106.818 73.6791 107.54C73.6791 108.262 74.2536 108.84 74.9717 108.84Z" fill="white"/>
<path d="M50.6999 93.5247L56.014 93.6692C56.7321 93.6692 57.3066 93.0913 57.3066 92.3688C57.3066 91.6464 56.7321 91.0685 56.014 91.0685L50.6999 90.7795C49.9818 90.7795 49.4073 91.3574 49.4073 92.0799C49.4073 92.9468 49.9818 93.5247 50.6999 93.5247Z" fill="white"/>
<path d="M11.2032 151.319L27.8636 151.608C28.5818 151.608 29.1562 151.03 29.1562 150.308C29.1562 149.586 28.5818 149.008 27.8636 149.008L11.2032 148.574C10.4851 148.574 9.91061 149.152 9.91061 149.875C9.91061 150.741 10.4851 151.319 11.2032 151.319Z" fill="white"/>
<path d="M7.3255 113.319L19.5336 113.464C20.2517 113.464 20.8262 112.886 20.8262 112.163C20.8262 111.441 20.2517 110.863 19.5336 110.863L7.3255 110.719C6.60738 110.719 6.03288 111.297 6.03288 112.019C6.03288 112.597 6.60738 113.319 7.3255 113.319Z" fill="white"/>
<path d="M1.2933 129.935L23.555 130.224C24.2732 130.224 24.8477 129.646 24.8477 128.924C24.8477 128.202 24.2732 127.624 23.555 127.624L1.2933 127.335C0.575178 127.335 0.000679016 127.913 0.000679016 128.635C0.000679016 129.357 0.575178 129.935 1.2933 129.935Z" fill="white"/>
<path d="M4.4525 151.175H6.46324C7.18136 151.175 7.75586 150.597 7.75586 149.875C7.75586 149.152 7.18136 148.574 6.46324 148.574H4.4525C3.73438 148.574 3.15988 149.152 3.15988 149.875C3.15988 150.597 3.73438 151.175 4.4525 151.175Z" fill="white"/>
<path d="M9.19191 134.414L14.9369 134.559C15.655 134.559 16.2295 133.981 16.2295 133.259C16.2295 132.536 15.655 131.958 14.9369 131.958L9.19191 131.814C8.47379 131.814 7.89929 132.392 7.89929 133.114C7.89929 133.837 8.47379 134.414 9.19191 134.414Z" fill="white"/>
<path d="M79.8557 113.608L88.1859 113.753C88.904 113.753 89.4785 113.175 89.4785 112.452C89.4785 111.73 88.904 111.152 88.1859 111.152L79.8557 111.008C79.1376 111.008 78.5631 111.586 78.5631 112.308C78.5631 113.03 79.1376 113.608 79.8557 113.608Z" fill="white"/>
<path d="M71.2375 145.54L79.5677 145.684C80.2859 145.684 80.8604 145.106 80.8604 144.384C80.8604 143.662 80.2859 143.084 79.5677 143.084L71.2375 142.939C70.5194 142.939 69.9449 143.517 69.9449 144.24C69.9449 144.962 70.5194 145.54 71.2375 145.54Z" fill="white"/>
<path d="M10.6281 92.0799L17.522 92.2243C17.9529 92.2243 18.3838 91.6464 18.3838 90.924C18.3838 90.2015 18.0965 89.6236 17.6657 89.6236L10.7717 89.4791C10.3408 89.4791 9.90997 90.057 9.90997 90.7795C9.76635 91.5019 10.1972 92.0799 10.6281 92.0799Z" fill="white"/>
<path d="M68.3656 151.897L82.4408 152.042C83.1589 152.042 83.7334 151.464 83.7334 150.741C83.7334 150.019 83.1589 149.441 82.4408 149.441L68.3656 149.297C67.6475 149.297 67.073 149.875 67.073 150.597C67.073 151.175 67.6475 151.897 68.3656 151.897Z" fill="white"/>
<path d="M93.6434 109.274H95.3669C96.085 109.274 96.6595 108.696 96.6595 107.973C96.8031 107.251 96.2286 106.673 95.5105 106.673H93.787C93.0689 106.673 92.4944 107.251 92.4944 107.973C92.3508 108.696 92.9253 109.274 93.6434 109.274Z" fill="white"/>
<path d="M16.8043 89.1901C18.2405 87.8897 20.3949 87.6008 22.5492 88.4677L93.4996 115.776C97.6647 117.365 98.3828 119.243 98.3828 120.688C98.3828 121.7 97.8083 123.578 94.3613 124.734L78.1318 129.791L68.0781 151.175C67.9345 152.042 67.5036 152.909 66.6419 153.487C65.7801 154.065 64.4875 154.065 63.6258 153.631C62.764 153.198 62.1895 152.62 61.7586 152.042L53.8593 144.529L36.6244 157.243L36.4808 157.388C35.1882 158.11 33.8956 158.544 32.7466 158.544C32.0284 158.544 31.4539 158.399 30.7358 158.11C29.0123 157.388 28.007 155.654 27.4325 153.198L15.5117 96.8479L15.368 96.27C14.3627 91.9354 15.9425 89.9125 16.8043 89.1901ZM67.6472 144.24L74.3976 129.935L38.4915 107.395L66.9291 132.97L67.6472 144.24ZM18.5278 95.1141L30.5922 152.331C30.8794 153.776 31.4539 154.643 32.0284 154.932C32.6029 155.221 33.6083 154.932 34.7573 154.354L54.1466 140.049L64.0566 149.586C64.3439 149.875 64.4875 150.019 64.7748 150.308L63.6258 134.703L30.0177 104.361C28.5815 103.061 28.7251 101.76 29.2996 100.894C30.305 99.5932 32.3157 99.5932 34.1828 100.894L75.8338 127.046L93.356 121.555C94.6486 121.122 95.0795 120.688 95.0795 120.688C95.0795 120.544 94.505 119.677 92.4942 118.954L21.4003 91.5019C20.3949 91.0684 19.5331 91.2129 18.9586 91.6464C18.3841 92.2243 18.0969 93.5247 18.5278 95.1141Z" fill="white"/>
</g>
<g clip-path="url(#clip2)">
<path d="M212.617 10.9315L219.597 11.019C220.033 11.019 220.382 10.6692 220.382 10.1445C220.382 9.61976 220.033 9.26995 219.597 9.26995L212.617 9.1825C212.181 9.1825 211.832 9.5323 211.832 10.057C211.832 10.4943 212.181 10.9315 212.617 10.9315Z" fill="#E22A30"/>
<path d="M175.275 26.673L166.201 26.7604C165.765 26.7604 165.416 26.4106 165.416 25.9734C165.416 25.5361 165.765 25.1863 166.201 25.1863L175.275 25.0114C175.711 25.0114 176.06 25.3612 176.06 25.7985C176.06 26.3232 175.711 26.673 175.275 26.673Z" fill="#10BF34"/>
<path d="M189.759 8.92015L181.558 9.00761C181.121 9.00761 180.772 8.6578 180.772 8.22053C180.772 7.78327 181.121 7.43346 181.558 7.43346L189.759 7.34601C190.195 7.34601 190.544 7.69582 190.544 8.13308C190.544 8.57034 190.195 8.92015 189.759 8.92015Z" fill="#10BF34"/>
<path d="M167.859 18.8023L158.785 18.8897C158.349 18.8897 158 18.5399 158 18.1027C158 17.6654 158.349 17.3156 158.785 17.3156L167.772 17.1407C168.208 17.1407 168.557 17.4905 168.557 17.9278C168.644 18.365 168.295 18.7148 167.859 18.8023Z" fill="#10BF34"/>
<path d="M203.457 3.67299L200.229 3.76044C199.792 3.76044 199.443 3.41063 199.443 2.97337C199.443 2.53611 199.792 2.1863 200.229 2.1863L203.457 2.09885C203.893 2.09885 204.242 2.44866 204.242 2.88592C204.242 3.32318 203.893 3.67299 203.457 3.67299Z" fill="#10BF34"/>
<path d="M208.43 34.1939L218.551 34.3688C218.987 34.3688 219.336 34.019 219.336 33.5818C219.336 33.1445 218.987 32.7947 218.551 32.7947L208.43 32.6198C207.994 32.6198 207.645 32.9696 207.645 33.4069C207.645 33.8441 207.994 34.1939 208.43 34.1939Z" fill="#E22A30"/>
<path d="M211.57 14.0799L216.369 14.1673C216.631 14.1673 216.893 13.8175 216.893 13.2928C216.893 12.8555 216.718 12.4183 216.369 12.4183L211.57 12.3308C211.309 12.3308 211.047 12.6806 211.047 13.2053C211.047 13.6426 211.309 14.0799 211.57 14.0799Z" fill="#E22A30"/>
<path d="M210.262 23.8745L220.208 24.0494C220.557 24.0494 220.819 23.6122 220.819 23.0874C220.819 22.5627 220.557 22.1255 220.208 22.1255L210.262 21.9506C209.913 21.9506 209.651 22.3878 209.651 22.9125C209.651 23.4373 209.913 23.8745 210.262 23.8745Z" fill="#E22A30"/>
<path d="M208.43 36.7301H209.651C210.087 36.7301 210.436 36.3802 210.436 35.943C210.436 35.5057 210.087 35.1559 209.651 35.1559H208.43C207.994 35.1559 207.645 35.5057 207.645 35.943C207.645 36.3802 207.994 36.7301 208.43 36.7301Z" fill="#E22A30"/>
<path d="M210.087 1.57414L205.026 1.6616C204.59 1.6616 204.241 1.31179 204.241 0.874525C204.241 0.437262 204.59 0.0874525 205.026 0.0874525L210 0C210.436 0 210.785 0.34981 210.785 0.787072C210.872 1.22433 210.523 1.57414 210.087 1.57414Z" fill="#10BF34"/>
<path d="M178.503 33.6692L173.442 33.7567C173.006 33.7567 172.657 33.4069 172.657 32.9696C172.657 32.5323 173.006 32.1825 173.442 32.1825L178.503 32.0951C178.939 32.0951 179.288 32.4449 179.288 32.8821C179.375 33.2319 179.026 33.5818 178.503 33.6692Z" fill="#10BF34"/>
<path d="M180.336 37.4297L171.785 37.5171C171.349 37.5171 171 37.1673 171 36.7301C171 36.2928 171.349 35.943 171.785 35.943L180.336 35.8555C180.772 35.8555 181.121 36.2053 181.121 36.6426C181.121 37.0799 180.772 37.4297 180.336 37.4297Z" fill="#10BF34"/>
<path d="M178.591 10.232H177.544C177.108 10.232 176.759 9.88214 176.759 9.44488C176.759 9.00762 177.108 8.65781 177.544 8.65781H178.591C179.027 8.65781 179.376 9.00762 179.376 9.44488C179.376 9.88214 179.027 10.232 178.591 10.232Z" fill="#10BF34"/>
<path d="M212.007 0.961989C211.135 0.174917 209.826 1.16378e-05 208.517 0.524727L165.416 17.0532C162.973 18.0152 162.45 19.2396 162.537 20.1141C162.537 20.7262 162.886 21.8631 164.98 22.5628L174.839 25.6236L180.947 38.5666C181.034 39.0913 181.296 39.616 181.819 39.9658C182.343 40.3156 183.128 40.3156 183.651 40.0532C184.175 39.7909 184.524 39.4411 184.786 39.0913L189.584 34.5437L200.054 42.2396L200.141 42.327C200.927 42.7643 201.712 43.0266 202.41 43.0266C202.846 43.0266 203.195 42.9392 203.631 42.7643C204.678 42.327 205.289 41.2776 205.638 39.7909L212.88 5.68442L212.967 5.15971C213.49 2.71104 212.618 1.4867 212.007 0.961989ZM181.121 34.3688L177.02 25.711L198.833 12.0685L181.557 27.5475L181.121 34.3688ZM211.047 4.54754L203.718 39.1787C203.544 40.0532 203.195 40.578 202.846 40.7529C202.497 40.9278 201.886 40.7529 201.188 40.4031L189.41 31.7453L183.302 37.5171C183.128 37.692 183.041 37.7795 182.866 37.9544L183.564 28.5095L203.98 10.1445C204.853 9.35743 204.765 8.57035 204.416 8.04564C203.806 7.25857 202.584 7.25857 201.45 8.04564L176.148 23.8745L165.591 20.5513C164.806 20.289 164.544 20.0266 164.544 20.0266C164.544 19.9392 164.893 19.4145 166.114 18.9772L209.215 2.36123C209.826 2.09887 210.349 2.18632 210.698 2.44868C211.047 2.79849 211.222 3.58556 211.047 4.54754Z" fill="#10BF34"/>
<path d="M213.577 4.11024C212.705 3.32317 211.396 3.14827 210.087 3.67298L166.987 20.2015C164.544 21.1635 164.02 22.3878 164.108 23.1749C164.108 23.7871 164.457 24.9239 166.551 25.6236L176.41 28.6844L182.517 41.6274C182.604 42.1521 182.866 42.6768 183.389 43.0266C183.913 43.3764 184.698 43.3764 185.222 43.1141C185.745 42.8517 186.094 42.5019 186.356 42.1521L191.155 37.6045L201.624 45.3004L201.712 45.3878C202.497 45.8251 203.282 46.0874 203.98 46.0874C204.416 46.0874 204.765 46 205.202 45.8251C206.248 45.3878 206.859 44.3384 207.208 42.8517L214.45 8.74523L214.537 8.39542C215.061 5.85929 214.188 4.63496 213.577 4.11024ZM182.691 37.5171L178.591 28.8593L200.403 15.2167L183.215 30.6958L182.691 37.5171ZM212.618 7.6958L205.289 42.327C205.114 43.2015 204.765 43.7262 204.416 43.9011C204.067 44.076 203.457 43.9011 202.759 43.5513L190.98 34.8935L184.96 40.6654C184.785 40.8403 184.698 40.9277 184.524 41.1026L185.222 31.6578L205.638 13.2928C206.51 12.5057 206.423 11.7186 206.074 11.1939C205.463 10.4068 204.242 10.4068 203.108 11.1939L177.718 27.0228L167.161 23.6996C166.376 23.4372 166.114 23.1749 166.114 23.1749C166.114 23.0874 166.463 22.5627 167.685 22.1255L210.785 5.50948C211.396 5.24713 211.92 5.33458 212.269 5.59694C212.705 5.94675 212.792 6.73382 212.618 7.6958Z" fill="#E22A30"/>
<path d="M220.121 7.52092L212.967 7.60837C212.531 7.60837 212.182 7.25856 212.182 6.8213C212.182 6.38404 212.531 6.03423 212.967 6.03423L220.121 5.94678C220.557 5.94678 220.906 6.29659 220.906 6.73385C220.906 7.17111 220.557 7.52092 220.121 7.52092Z" fill="white"/>
<path d="M176.41 29.7338L167.336 29.9087C166.9 29.9087 166.551 29.5589 166.551 29.1217C166.551 28.6844 166.9 28.3346 167.336 28.3346L176.41 28.1597C176.846 28.1597 177.195 28.5095 177.195 28.9468C177.195 29.2966 176.846 29.7338 176.41 29.7338Z" fill="white"/>
<path d="M200.752 7.43346L192.551 7.52091C192.115 7.52091 191.766 7.1711 191.766 6.73384C191.766 6.29658 192.115 5.94677 192.551 5.94677L200.752 5.85931C201.188 5.85931 201.537 6.20912 201.537 6.64639C201.537 7.08365 201.188 7.43346 200.752 7.43346Z" fill="white"/>
<path d="M177.456 14.4296L168.47 14.6046C168.034 14.6046 167.685 14.2547 167.685 13.8175C167.685 13.3802 168.034 13.0304 168.47 13.0304L177.456 12.8555C177.893 12.8555 178.242 13.2053 178.242 13.6426C178.242 14.0798 177.893 14.4296 177.456 14.4296Z" fill="white"/>
<path d="M192.202 5.1597L188.974 5.24716C188.537 5.24716 188.188 4.89735 188.188 4.46009C188.188 4.02282 188.537 3.67301 188.974 3.67301L192.202 3.49811C192.638 3.49811 192.987 3.84792 192.987 4.28518C192.987 4.8099 192.638 5.1597 192.202 5.1597Z" fill="white"/>
<path d="M216.195 40.1407L206.074 40.3156C205.638 40.3156 205.289 39.9658 205.289 39.5285C205.289 39.0912 205.638 38.7414 206.074 38.7414L216.195 38.4791C216.631 38.4791 216.98 38.8289 216.98 39.2661C216.98 39.7909 216.631 40.1407 216.195 40.1407Z" fill="white"/>
<path d="M218.55 17.1407L211.134 17.2282C210.698 17.2282 210.349 16.8783 210.349 16.4411C210.349 16.0038 210.698 15.654 211.134 15.654L218.55 15.5666C218.986 15.5666 219.335 15.9164 219.335 16.3536C219.335 16.7034 218.986 17.1407 218.55 17.1407Z" fill="white"/>
<path d="M222.215 27.1977L208.691 27.3726C208.255 27.3726 207.906 27.0228 207.906 26.5855C207.906 26.1483 208.255 25.7985 208.691 25.7985L222.215 25.6236C222.651 25.6236 223 25.9734 223 26.4106C223 26.8479 222.651 27.1977 222.215 27.1977Z" fill="white"/>
<path d="M220.296 40.0532H219.074C218.638 40.0532 218.289 39.7034 218.289 39.2661C218.289 38.8289 218.638 38.4791 219.074 38.4791H220.296C220.732 38.4791 221.081 38.8289 221.081 39.2661C221.081 39.7034 220.732 40.0532 220.296 40.0532Z" fill="white"/>
<path d="M217.417 29.9087L213.927 29.9962C213.491 29.9962 213.142 29.6464 213.142 29.2091C213.142 28.7719 213.491 28.422 213.927 28.422L217.417 28.3346C217.853 28.3346 218.202 28.6844 218.202 29.1217C218.202 29.5589 217.853 29.9087 217.417 29.9087Z" fill="white"/>
<path d="M174.49 17.3156L169.43 17.4031C168.994 17.4031 168.645 17.0532 168.645 16.616C168.645 16.1787 168.994 15.8289 169.43 15.8289L174.49 15.7415C174.926 15.7415 175.275 16.0913 175.275 16.5285C175.275 16.9658 174.926 17.3156 174.49 17.3156Z" fill="white"/>
<path d="M179.726 36.6426L174.665 36.73C174.229 36.73 173.88 36.3802 173.88 35.9429C173.88 35.5057 174.229 35.1559 174.665 35.1559L179.726 35.0684C180.162 35.0684 180.511 35.4182 180.511 35.8555C180.511 36.2928 180.162 36.6426 179.726 36.6426Z" fill="white"/>
<path d="M216.543 4.28517L212.356 4.37263C212.094 4.37263 211.832 4.02282 211.832 3.58555C211.832 3.14829 212.007 2.79848 212.268 2.79848L216.456 2.71103C216.718 2.71103 216.98 3.06084 216.98 3.4981C217.067 3.93536 216.805 4.28517 216.543 4.28517Z" fill="white"/>
<path d="M181.47 40.4905L172.92 40.5779C172.484 40.5779 172.135 40.2281 172.135 39.7909C172.135 39.3536 172.484 39.0038 172.92 39.0038L181.47 38.9164C181.907 38.9164 182.256 39.2662 182.256 39.7034C182.256 40.0532 181.907 40.4905 181.47 40.4905Z" fill="white"/>
<path d="M166.114 14.692H165.067C164.631 14.692 164.282 14.3422 164.282 13.905C164.195 13.4677 164.544 13.1179 164.98 13.1179H166.027C166.463 13.1179 166.812 13.4677 166.812 13.905C166.899 14.3422 166.55 14.692 166.114 14.692Z" fill="white"/>
<path d="M212.792 2.53612C211.92 1.74904 210.611 1.57414 209.302 2.09885L166.202 18.6274C163.672 19.5893 163.235 20.7262 163.235 21.6008C163.235 22.2129 163.584 23.3498 165.678 24.0494L175.537 27.1103L181.645 40.0532C181.732 40.5779 181.994 41.1027 182.517 41.4525C183.041 41.8023 183.826 41.8023 184.349 41.5399C184.873 41.2776 185.222 40.9277 185.484 40.5779L190.282 36.0304L200.752 43.7262L200.839 43.8137C201.625 44.2509 202.41 44.5133 203.108 44.5133C203.544 44.5133 203.893 44.4258 204.329 44.2509C205.376 43.8137 205.987 42.7643 206.336 41.2776L213.578 7.1711L213.665 6.82129C214.276 4.19771 213.316 2.97338 212.792 2.53612ZM181.906 35.8555L177.806 27.1977L199.618 13.5551L182.343 29.0342L181.906 35.8555ZM211.745 6.12167L204.417 40.7528C204.242 41.6274 203.893 42.1521 203.544 42.327C203.195 42.5019 202.584 42.327 201.886 41.9772L190.108 33.3194L184.088 39.0912C183.913 39.2662 183.826 39.3536 183.651 39.5285L184.349 30.0836L204.766 11.7186C205.638 10.9316 205.551 10.1445 205.202 9.61977C204.591 8.83269 203.37 8.83269 202.235 9.61977L176.933 25.4487L166.289 22.1255C165.504 21.8631 165.242 21.6008 165.242 21.6008C165.242 21.5133 165.591 20.9886 166.813 20.5513L210 3.93536C210.611 3.673 211.135 3.76045 211.484 4.02281C211.833 4.37262 212.007 5.15969 211.745 6.12167Z" fill="white"/>
</g>
<defs>
<clipPath id="clip0">
<rect width="187" height="132" fill="white" transform="translate(118 139)"/>
</clipPath>
<clipPath id="clip1">
<rect width="107" height="76" fill="white" transform="matrix(-1 0 0 1 107 85)"/>
</clipPath>
<clipPath id="clip2">
<rect width="65" height="46" fill="white" transform="translate(158)"/>
</clipPath>
</defs>
</svg>
